<svg width="347" height="300" viewBox="0 0 347 300" fill="none" xmlns="http://www.w3.org/2000/svg">
<path d="M165.963 38.8246C173.11 31.6772 173.11 20.0889 165.963 12.9415C158.816 5.79411 147.227 5.79412 140.08 12.9415C132.933 20.0889 132.933 31.6772 140.08 38.8246C147.227 45.972 158.816 45.972 165.963 38.8246Z" fill="#FBD931"/>
<path d="M288.865 169.387C287.028 178.362 283.754 186.959 279.302 194.991C249.528 248.768 167.933 277.835 126.571 233.716C120.635 227.38 115.523 220.808 111.189 214.071C97.0091 191.976 91.3323 168.186 93.099 145.644C94.5358 127.318 100.896 109.84 111.59 94.7883C115.83 88.8053 120.776 83.1992 126.382 78.0878C203.407 7.56398 302.927 100.324 288.865 169.387Z" fill="#EF7136"/>
<path d="M279.301 194.992C249.528 248.768 167.933 277.835 126.57 233.716C120.635 227.38 115.523 220.808 111.189 214.071C111.095 212.658 111.024 211.198 110.953 209.69C110.2 195.533 110.153 188.137 125.463 187.077C129.209 186.818 135.074 186.323 142.164 185.711C143.436 183.638 147.676 176.572 151.068 169.27C147.699 168.846 112.131 164.135 100.259 153.77C97.8569 151.674 95.4307 148.847 93.0988 145.62C83.2999 132.147 74.7258 111.772 73.5245 108.686C72.2525 105.435 72.1348 102.868 72.865 98.0626C72.3232 98.6986 67.4944 92.3623 68.2011 90.1246C69.3788 86.4736 80.8737 78.8182 87.2807 78.0644C88.4113 77.9231 91.6148 83.5056 90.8846 83.647C94.8889 84.1652 102.874 86.0967 104.688 88.1931C105.489 89.1117 108.339 91.6557 111.566 94.7885C116.795 99.8293 122.99 106.401 123.084 110.076C123.249 116.035 124.144 115.964 125.982 116.129C127.842 116.294 129.374 117.189 129.209 119.356C129.044 121.547 129.374 123.243 133.095 122.654C136.817 122.089 139.314 122.725 140.044 125.81C140.774 128.873 150.95 128.967 154.813 129.038C158.676 129.108 178.321 130.639 180.629 132.029C182.019 118.791 187.319 97.8271 187.319 97.8271C187.319 97.8271 171.16 92.4565 171.396 89.8655C171.537 88.4051 184.469 83.3878 192.901 80.2786C193.019 80.2315 198.107 80.8439 200.84 79.7133C200.84 79.7133 196.341 92.009 210.78 97.0027C210.78 97.0027 210.968 99.4053 212.005 99.5466C212.711 99.6408 213.771 99.0755 214.242 96.8378C214.454 95.8249 214.549 94.4587 214.454 92.6685C214.454 92.6685 214.549 92.6685 214.737 92.6685H214.761C217.14 92.6921 219.377 92.9276 221.238 93.3281C223.829 93.8934 225.643 94.8356 226.02 96.084C226.609 97.992 225.172 100.23 219.401 101.101C217.234 107.673 217.564 113.421 219.636 113.727C221.921 114.08 222.793 113.326 223.9 112.525C225.007 111.725 225.879 115.8 221.238 118.885C217.611 121.288 213.065 122.207 209.508 119.851C208.613 126.234 207.647 133.419 206.917 139.967C208.566 139.991 232.78 155.419 239.328 158.882C243.568 161.143 252.048 166.325 258.479 173.745C272.47 172.968 276.545 174.028 278.053 184.934C278.406 187.006 278.83 190.54 279.301 194.992Z" fill="#FFFEF2"/>
<path d="M191.441 91.8676C190.946 91.6556 190.734 91.0667 190.946 90.5956L191.959 88.3343C192.171 87.8397 192.76 87.6277 193.231 87.8397C193.726 88.0517 193.938 88.6405 193.726 89.1116L192.713 91.3729C192.525 91.8676 191.936 92.1031 191.441 91.8676Z" fill="#202D37"/>
<path d="M197.377 94.5526C196.882 94.3407 196.67 93.7518 196.882 93.2807L197.895 91.0194C198.107 90.5247 198.696 90.3127 199.167 90.5247C199.662 90.7367 199.874 91.3256 199.662 91.7967L198.649 94.058C198.437 94.5526 197.872 94.7646 197.377 94.5526Z" fill="#202D37"/>
<path d="M156.297 30.86C155.92 31.8257 155.379 32.5324 154.719 32.9799C154.059 33.4275 153.211 33.5924 152.199 33.4981L151.186 36.0421C151.162 36.1127 151.115 36.1599 151.044 36.207C150.974 36.2305 150.903 36.2305 150.832 36.207L147.488 34.8643C147.417 34.8408 147.37 34.7937 147.323 34.723C147.299 34.6523 147.299 34.5817 147.323 34.511L148.218 32.2497C147.605 31.9671 147.04 31.708 146.569 31.4253C146.498 31.4017 146.475 31.3311 146.451 31.2604C146.428 31.1897 146.428 31.1191 146.451 31.0484L147.794 28.4574C147.841 28.3867 147.888 28.3396 147.982 28.316C148.076 28.2925 148.147 28.316 148.218 28.3631C148.406 28.4809 148.595 28.6222 148.807 28.74C149.019 28.8578 149.278 29.0227 149.608 29.1876C149.937 29.376 150.243 29.5173 150.55 29.6351C150.879 29.7764 151.162 29.8471 151.421 29.8471C151.68 29.8471 151.892 29.8 152.034 29.7058C152.175 29.6115 152.293 29.5173 152.363 29.4231C152.434 29.3289 152.505 29.2347 152.528 29.164C152.575 29.0698 152.575 28.952 152.599 28.8342C152.599 28.7165 152.599 28.5516 152.552 28.3396C152.505 28.1276 152.387 27.892 152.199 27.6329C151.987 27.3738 151.727 27.1147 151.374 26.8792C150.974 26.5965 150.644 26.2667 150.338 25.8663C150.031 25.4659 149.796 25.0183 149.584 24.5237C149.396 24.029 149.301 23.4637 149.301 22.8512C149.301 22.2388 149.443 21.6028 149.678 20.9668C150.032 20.0718 150.55 19.4122 151.256 18.9882C151.939 18.5642 152.787 18.3758 153.753 18.4229L154.79 15.8083C154.813 15.7376 154.86 15.6905 154.955 15.6434C155.025 15.6199 155.096 15.5963 155.166 15.6434L158.511 16.986C158.582 17.0096 158.629 17.0803 158.676 17.1509C158.7 17.2216 158.7 17.3158 158.676 17.3865L157.781 19.6478C158.37 19.9069 158.935 20.1895 159.501 20.4957C159.571 20.5193 159.595 20.59 159.642 20.6606C159.666 20.7313 159.666 20.802 159.618 20.8726L158.276 23.4637C158.229 23.5343 158.182 23.5815 158.087 23.605C157.993 23.6286 157.922 23.6286 157.852 23.5815C157.004 23.0161 156.203 22.5686 155.449 22.2624C155.143 22.121 154.86 22.0504 154.601 22.0504C154.342 22.0504 154.13 22.0975 153.989 22.1917C153.847 22.2859 153.73 22.3802 153.635 22.4744C153.565 22.5686 153.494 22.6628 153.471 22.7335C153.447 22.8277 153.423 22.9219 153.4 23.0397C153.4 23.1575 153.4 23.3224 153.447 23.5344C153.494 23.7463 153.612 23.9819 153.824 24.241C154.036 24.5001 154.295 24.7592 154.648 24.9948C155.025 25.2774 155.379 25.6072 155.685 26.0076C155.991 26.4081 156.25 26.8556 156.438 27.3503C156.627 27.8449 156.721 28.4102 156.721 29.0227C156.674 29.6115 156.533 30.224 156.297 30.86Z" fill="#202D37"/>
<path d="M150.926 36.5604C150.856 36.5604 150.762 36.5369 150.691 36.5133L147.346 35.1707C147.181 35.1 147.063 34.9822 146.993 34.8409C146.922 34.676 146.922 34.5111 146.993 34.3463L147.77 32.3912C147.275 32.1556 146.804 31.9201 146.404 31.7081C146.263 31.6374 146.168 31.4961 146.121 31.3548C146.074 31.2134 146.074 31.0485 146.145 30.8837C146.145 30.8837 146.145 30.8601 146.168 30.8601L147.511 28.269C147.605 28.1042 147.747 27.9864 147.935 27.9393C148.123 27.8922 148.288 27.9393 148.453 28.0335C148.642 28.1513 148.83 28.2926 149.018 28.4104C149.207 28.5282 149.466 28.6695 149.796 28.8579C150.102 29.0228 150.408 29.1641 150.691 29.2819C150.974 29.3997 151.233 29.4704 151.445 29.4704C151.68 29.4704 151.798 29.4232 151.845 29.3761C151.963 29.3055 152.057 29.2113 152.104 29.1641C152.175 29.0935 152.198 29.0228 152.222 28.9993C152.246 28.9521 152.269 28.8815 152.269 28.7873C152.269 28.7166 152.269 28.5988 152.222 28.3633C152.198 28.269 152.128 28.0806 151.916 27.7979C151.727 27.5624 151.492 27.3268 151.186 27.1148C150.762 26.8322 150.385 26.4553 150.055 26.0313C149.725 25.6073 149.466 25.1362 149.254 24.5945C149.042 24.0527 148.924 23.4403 148.948 22.7807C148.948 22.1212 149.089 21.4381 149.372 20.7785C149.749 19.8128 150.338 19.1061 151.091 18.635C151.774 18.211 152.599 17.999 153.541 17.999L154.483 15.62C154.554 15.4551 154.648 15.3373 154.813 15.2667C154.978 15.196 155.143 15.1724 155.308 15.2431L158.652 16.5857C158.817 16.6564 158.935 16.7742 159.006 16.9391C159.076 17.104 159.076 17.2688 159.006 17.4337L158.228 19.3888C158.723 19.6243 159.194 19.8599 159.665 20.0954C159.807 20.1661 159.901 20.3074 159.972 20.4488C160.042 20.6137 160.019 20.8021 159.924 20.967L158.582 23.558C158.488 23.7229 158.346 23.8171 158.181 23.8878C157.993 23.9349 157.805 23.9114 157.64 23.7936C156.815 23.2518 156.038 22.8043 155.308 22.4981C155.025 22.3803 154.789 22.3096 154.577 22.3096C154.389 22.3096 154.248 22.3332 154.153 22.4038C153.989 22.4981 153.918 22.5687 153.871 22.6158C153.824 22.6629 153.777 22.7336 153.753 22.7807C153.729 22.8043 153.729 22.8749 153.706 22.9927C153.706 23.0634 153.706 23.1812 153.753 23.3932C153.777 23.558 153.894 23.7465 154.059 23.9585C154.248 24.194 154.483 24.4296 154.789 24.6416C155.19 24.9478 155.567 25.3011 155.897 25.7251C156.226 26.1491 156.485 26.6202 156.697 27.162C156.909 27.7037 157.004 28.3162 157.004 28.9757C157.004 29.6352 156.862 30.2948 156.58 30.9779C156.156 32.0143 155.59 32.7681 154.884 33.2627C154.224 33.7103 153.376 33.8987 152.387 33.8516L151.468 36.16C151.398 36.3249 151.28 36.4426 151.138 36.5133C151.091 36.5369 150.997 36.5604 150.926 36.5604ZM147.652 34.5347L150.879 35.8302L151.869 33.3569C151.916 33.2156 152.081 33.1214 152.222 33.1449C153.164 33.2392 153.941 33.0743 154.53 32.6974C155.119 32.297 155.614 31.6374 155.967 30.7423C156.203 30.1534 156.321 29.5646 156.344 28.9993C156.344 28.4339 156.273 27.9157 156.085 27.4446C155.897 26.9735 155.661 26.5495 155.378 26.1962C155.096 25.8193 154.766 25.5131 154.413 25.254C154.059 24.9949 153.753 24.7122 153.517 24.4296C153.282 24.1234 153.141 23.8407 153.094 23.5816C153.046 23.346 153.023 23.134 153.023 22.9927C153.023 22.8278 153.07 22.6865 153.117 22.5687C153.164 22.4274 153.258 22.3096 153.353 22.1918C153.447 22.0741 153.588 21.9799 153.777 21.8621C153.989 21.7207 154.271 21.6501 154.601 21.6501C154.907 21.6501 155.237 21.7207 155.59 21.8856C156.344 22.1918 157.145 22.6394 157.993 23.2047L159.265 20.7314C158.747 20.4488 158.181 20.1897 157.616 19.9306C157.451 19.8599 157.357 19.6479 157.428 19.483L158.299 17.2688L155.049 15.9733L154.036 18.5408C153.989 18.6821 153.847 18.7764 153.682 18.7528C152.787 18.7057 152.01 18.8941 151.398 19.271C150.762 19.6479 150.29 20.2603 149.961 21.0612C149.725 21.6501 149.607 22.239 149.607 22.8043C149.607 23.3696 149.678 23.8878 149.866 24.3589C150.055 24.83 150.29 25.254 150.573 25.6309C150.856 26.0078 151.186 26.314 151.539 26.5731C151.916 26.8322 152.222 27.1149 152.434 27.3975C152.67 27.7037 152.811 27.9864 152.858 28.2455C152.905 28.481 152.929 28.6695 152.905 28.8344C152.905 28.9993 152.858 29.1406 152.811 29.2819C152.764 29.3997 152.693 29.5175 152.575 29.6352C152.481 29.753 152.34 29.8708 152.175 29.9886C151.963 30.1299 151.68 30.2006 151.374 30.2006C151.068 30.2006 150.738 30.1063 150.361 29.965C150.055 29.8472 149.725 29.6824 149.395 29.4939C149.066 29.3055 148.783 29.1641 148.571 29.0228C148.382 28.905 148.194 28.7873 148.029 28.6695L146.757 31.1428C147.205 31.4019 147.746 31.661 148.335 31.9201C148.5 31.9907 148.594 32.2027 148.524 32.3676L147.652 34.5347Z" fill="#202D37"/>
<path d="M298.004 81.3618C298.287 81.8094 298.405 82.2334 298.381 82.6338C298.357 83.0342 298.169 83.4347 297.839 83.8115L298.569 84.9893C298.593 85.0129 298.593 85.06 298.593 85.1071C298.593 85.1542 298.569 85.1777 298.522 85.2013L296.968 86.1671C296.944 86.1906 296.897 86.1906 296.85 86.1906C296.803 86.1906 296.779 86.1671 296.756 86.12L296.12 85.0835C295.813 85.2484 295.554 85.3897 295.295 85.5075C295.272 85.5311 295.225 85.5311 295.201 85.5075C295.154 85.484 295.13 85.4604 295.107 85.4369L294.471 84.1178C294.447 84.0707 294.447 84.0471 294.471 84C294.494 83.9529 294.518 83.9293 294.565 83.9293C294.683 83.8822 294.777 83.8587 294.895 83.8115C295.013 83.7644 295.154 83.6938 295.319 83.6231C295.484 83.5524 295.649 83.4582 295.79 83.3876C295.931 83.2933 296.049 83.1991 296.143 83.1049C296.214 83.0107 296.261 82.8929 296.261 82.8222C296.261 82.728 296.261 82.6574 296.237 82.6102C296.214 82.5396 296.214 82.4925 296.19 82.4689C296.167 82.4218 296.12 82.3747 296.073 82.3511C296.025 82.304 295.955 82.2569 295.861 82.2098C295.766 82.1627 295.625 82.1391 295.46 82.1391C295.295 82.1391 295.107 82.1863 294.918 82.2334C294.683 82.304 294.447 82.3511 294.188 82.3511C293.929 82.3511 293.67 82.3276 293.411 82.2569C293.152 82.1863 292.893 82.0685 292.657 81.8565C292.398 81.668 292.186 81.4325 292.021 81.1263C291.762 80.7258 291.668 80.3019 291.691 79.9014C291.738 79.501 291.903 79.1005 292.21 78.7237L291.479 77.5224C291.456 77.4988 291.456 77.4517 291.456 77.4046C291.456 77.3575 291.479 77.3339 291.526 77.3104L293.081 76.3446C293.105 76.3211 293.152 76.321 293.199 76.321C293.246 76.321 293.27 76.3446 293.293 76.3917L293.929 77.4281C294.212 77.2632 294.494 77.1219 294.777 76.9806C294.801 76.957 294.848 76.957 294.895 76.9806C294.942 76.9806 294.966 77.0041 294.989 77.0513L295.625 78.3703C295.649 78.4174 295.649 78.441 295.625 78.4881C295.601 78.5352 295.578 78.5588 295.554 78.5588C295.06 78.7237 294.636 78.9121 294.282 79.1241C294.141 79.2183 294.023 79.3125 293.953 79.4068C293.882 79.501 293.835 79.6188 293.835 79.713C293.835 79.8072 293.835 79.8779 293.835 79.925C293.858 79.9721 293.858 80.0427 293.882 80.0663C293.906 80.1134 293.953 80.137 294 80.1841C294.047 80.2312 294.118 80.2783 294.212 80.3019C294.306 80.349 294.447 80.3725 294.612 80.3725C294.777 80.3725 294.966 80.3254 295.154 80.2783C295.389 80.2076 295.625 80.1605 295.884 80.1605C296.143 80.1605 296.402 80.1841 296.661 80.2547C296.921 80.3254 297.18 80.4667 297.415 80.6552C297.627 80.8436 297.839 81.0792 298.004 81.3618Z" fill="#E66220"/>
<path d="M296.897 86.4968C296.85 86.4968 296.826 86.4968 296.779 86.4732C296.662 86.4497 296.544 86.3555 296.473 86.2377L296.002 85.4839C295.814 85.5781 295.625 85.6724 295.437 85.7666C295.319 85.8137 295.201 85.8137 295.083 85.7901C294.966 85.743 294.871 85.6724 294.801 85.5781C294.801 85.5781 294.801 85.5546 294.777 85.5546L294.141 84.2355C294.07 84.0942 294.07 83.9528 294.118 83.8351C294.165 83.6937 294.283 83.5995 294.424 83.5524C294.518 83.5289 294.636 83.4817 294.73 83.4346C294.848 83.3875 294.966 83.3404 295.13 83.2462C295.295 83.1755 295.437 83.1049 295.554 83.0106C295.672 82.94 295.766 82.8693 295.814 82.7986C295.861 82.728 295.861 82.7044 295.861 82.7044C295.861 82.6338 295.861 82.5867 295.861 82.5867C295.861 82.5631 295.837 82.5395 295.837 82.5395C295.837 82.5395 295.837 82.516 295.79 82.4924C295.79 82.4924 295.743 82.4453 295.649 82.3982C295.625 82.3982 295.578 82.3747 295.413 82.3747C295.272 82.3747 295.13 82.3982 294.966 82.4689C294.706 82.5631 294.424 82.6102 294.141 82.6102C293.858 82.6102 293.576 82.5631 293.27 82.4924C292.963 82.4218 292.657 82.2569 292.375 82.0449C292.092 81.8329 291.856 81.5502 291.644 81.2205C291.362 80.7494 291.22 80.2547 291.267 79.7836C291.315 79.3832 291.456 78.9827 291.715 78.6058L291.103 77.6165C291.032 77.4988 291.008 77.381 291.032 77.2632C291.055 77.1219 291.15 77.0041 291.267 76.9334L292.822 75.9677C292.94 75.897 293.081 75.8735 293.199 75.897C293.34 75.9206 293.435 76.0148 293.505 76.109L293.976 76.8628C294.165 76.7685 294.353 76.6743 294.565 76.5801C294.683 76.533 294.801 76.533 294.918 76.5566C295.06 76.6037 295.178 76.6979 295.225 76.8157L295.861 78.1347C295.931 78.2525 295.931 78.3939 295.884 78.5352C295.837 78.6765 295.719 78.7943 295.578 78.8414C295.13 79.0063 294.73 79.1947 294.4 79.3832C294.283 79.4538 294.212 79.5009 294.165 79.5716C294.118 79.6187 294.118 79.6658 294.118 79.6658C294.118 79.76 294.118 79.7836 294.118 79.8071C294.118 79.8307 294.118 79.8307 294.141 79.8543C294.141 79.8543 294.141 79.8778 294.165 79.8778C294.165 79.8778 294.212 79.9014 294.306 79.9485C294.33 79.9485 294.4 79.972 294.542 79.972C294.683 79.972 294.824 79.9485 294.989 79.8778C295.248 79.8072 295.531 79.76 295.814 79.7365C296.096 79.7365 296.402 79.76 296.685 79.8543C296.991 79.9485 297.298 80.0898 297.58 80.3018C297.863 80.5138 298.098 80.7965 298.31 81.1262C298.617 81.6445 298.758 82.1391 298.734 82.6102C298.711 83.0106 298.546 83.4111 298.263 83.788L298.852 84.7537C298.923 84.8715 298.946 84.9893 298.923 85.1306C298.899 85.2719 298.805 85.3661 298.711 85.4368L297.156 86.4026C297.062 86.4732 296.991 86.4968 296.897 86.4968ZM296.12 84.683C296.238 84.683 296.355 84.7537 296.426 84.8479L296.968 85.7195L298.169 84.9893L297.557 84C297.486 83.8586 297.486 83.6937 297.604 83.576C297.886 83.2462 298.051 82.94 298.075 82.6102C298.098 82.2804 297.981 81.9271 297.745 81.5502C297.58 81.2911 297.415 81.0791 297.203 80.9142C296.991 80.7494 296.779 80.6316 296.567 80.5845C296.332 80.5138 296.12 80.4903 295.908 80.4903C295.696 80.4903 295.484 80.5374 295.272 80.5845C295.036 80.6551 294.824 80.7023 294.612 80.7023C294.4 80.7023 294.212 80.6787 294.071 80.608C293.953 80.5374 293.835 80.4903 293.764 80.4196C293.694 80.3489 293.623 80.2783 293.576 80.2076C293.529 80.1369 293.482 80.0427 293.482 79.9485C293.458 79.8543 293.458 79.7601 293.458 79.6423C293.458 79.4774 293.529 79.3125 293.647 79.1476C293.764 79.0063 293.906 78.8885 294.094 78.7707C294.4 78.5823 294.777 78.4174 295.201 78.2525L294.754 77.3339C294.542 77.4281 294.306 77.5459 294.094 77.6636C293.929 77.7579 293.717 77.7108 293.623 77.5459L293.081 76.6743L291.88 77.4045L292.516 78.441C292.587 78.5587 292.587 78.7236 292.492 78.8414C292.233 79.1712 292.092 79.5009 292.045 79.8307C292.021 80.1605 292.092 80.4903 292.327 80.8436C292.492 81.1027 292.681 81.3147 292.893 81.4796C293.105 81.6445 293.317 81.7622 293.529 81.8093C293.764 81.88 293.976 81.9036 294.212 81.9036C294.424 81.9036 294.636 81.88 294.824 81.8093C295.06 81.7387 295.272 81.6916 295.484 81.6916C295.696 81.6916 295.884 81.7151 296.026 81.7858C296.143 81.8564 296.238 81.9036 296.308 81.9742C296.379 82.0449 296.45 82.1156 296.497 82.1862C296.544 82.2569 296.567 82.3511 296.591 82.4453C296.614 82.5395 296.614 82.6338 296.614 82.7515C296.614 82.9164 296.544 83.0813 296.426 83.2462C296.308 83.3875 296.167 83.5053 295.978 83.6231C295.837 83.7173 295.672 83.788 295.484 83.8822C295.295 83.9528 295.154 84.0235 295.036 84.0706C294.989 84.0942 294.942 84.0942 294.918 84.1177L295.366 85.0599C295.554 84.9657 295.766 84.8479 295.978 84.7302C296.002 84.7066 296.073 84.683 296.12 84.683ZM295.39 78.1819C295.39 78.2054 295.39 78.2054 295.39 78.1819C295.39 78.2054 295.39 78.2054 295.39 78.1819Z" fill="#E66220"/>
<path d="M294.66 93.1631C291.056 93.1631 286.486 90.7134 283.141 80.4198C280.362 71.8223 270.421 53.8026 257.513 52.884C257.16 52.8604 256.854 52.6013 256.759 52.248C256.665 51.8947 256.83 51.5414 257.136 51.3529C257.961 50.8347 277.252 38.9159 282.246 37.5968C284.931 36.8901 287.899 37.9972 290.867 40.8003C293.623 43.4149 296.238 47.3957 298.452 52.3187C301.067 58.1603 304.011 64.1904 307.803 68.6659C312.538 74.2249 317.296 75.8502 322.407 73.636C322.69 73.5182 323.043 73.5653 323.279 73.7773C323.514 73.9893 323.609 74.3191 323.514 74.6253C320.994 83.1522 300.548 92.4094 295.861 93.0925C295.437 93.1396 295.06 93.1631 294.66 93.1631ZM259.939 51.5885C266.441 53.0018 271.74 58.1368 275.156 62.4473C279.985 68.501 283.235 75.4497 284.696 79.9016C287.381 88.193 291.056 92.0796 295.578 91.4436C299.488 90.8783 316.872 83.0109 321.159 75.8031C308.651 79.2656 300.501 61.0105 296.921 53.0018C292.728 43.6033 287.004 38.0679 282.67 39.2221C278.807 40.2349 265.074 48.4556 259.939 51.5885Z" fill="#E66220"/>
<path d="M278.454 49.0447C278.147 49.0447 277.865 48.8798 277.723 48.5971C277.511 48.1967 277.676 47.702 278.077 47.49C278.1 47.4665 281.539 45.6763 285.897 43.4857C286.297 43.2737 286.792 43.4386 287.004 43.839C287.216 44.2394 287.051 44.7341 286.651 44.9461C282.317 47.1603 278.878 48.9269 278.854 48.9505C278.713 49.0211 278.571 49.0447 278.454 49.0447Z" fill="#E66220"/>
<path d="M277.794 54.4154C277.535 54.4154 277.3 54.2976 277.135 54.0856C276.876 53.7088 276.946 53.1906 277.323 52.9315C278.784 51.8715 283.565 49.4217 288.465 47.2547C288.889 47.0662 289.36 47.2547 289.548 47.6787C289.737 48.1027 289.548 48.5738 289.124 48.7622C284.39 50.8586 279.632 53.2612 278.289 54.2505C278.148 54.3448 277.959 54.4154 277.794 54.4154Z" fill="#E66220"/>
<path d="M284.013 59.4792C283.73 59.4792 283.471 59.3378 283.306 59.0787C283.071 58.7018 283.188 58.1836 283.565 57.9481C283.612 57.9245 287.994 55.2157 291.268 53.4962C291.668 53.2842 292.163 53.4491 292.375 53.8495C292.587 54.2499 292.422 54.7446 292.022 54.9566C288.818 56.629 284.46 59.3143 284.413 59.3378C284.319 59.4321 284.154 59.4792 284.013 59.4792Z" fill="#E66220"/>
<path d="M287.829 66.0278C287.569 66.0278 287.31 65.9101 287.169 65.6981C286.91 65.3212 286.981 64.803 287.357 64.5439C287.381 64.5203 290.396 62.3533 293.223 60.5631C293.6 60.3275 294.118 60.4217 294.353 60.8222C294.589 61.1991 294.495 61.7173 294.094 61.9528C291.291 63.7194 288.347 65.863 288.3 65.8865C288.182 65.9807 287.993 66.0278 287.829 66.0278Z" fill="#E66220"/>
<path d="M299.983 189.22C299.536 189.22 299.159 188.867 299.159 188.42C299.159 188.372 299.159 188.255 299.135 188.113C298.641 182.201 299.206 180.741 300.219 180.34C301.538 179.822 306.249 179.704 307.191 179.681C307.191 179.681 307.191 179.681 307.215 179.681C307.662 179.681 308.039 180.034 308.039 180.482C308.039 180.929 307.686 181.306 307.238 181.33C305.26 181.377 301.891 181.542 300.925 181.824C300.784 182.06 300.407 183.19 300.808 187.948C300.831 188.231 300.831 188.302 300.831 188.372C300.808 188.844 300.431 189.22 299.983 189.22Z" fill="#FBD931"/>
<path d="M345.868 188.42C345.845 188.42 345.821 188.42 345.798 188.42C345.35 188.372 344.997 187.972 345.044 187.525C345.185 185.876 345.327 182.978 345.091 182.083C344.62 181.683 342.123 181.33 339.65 181.33C339.202 181.33 338.825 180.953 338.825 180.505C338.825 180.058 339.202 179.681 339.65 179.681C342.594 179.681 346.174 180.01 346.646 181.542C347.07 182.908 346.74 186.889 346.669 187.666C346.646 188.113 346.292 188.42 345.868 188.42Z" fill="#FBD931"/>
<path d="M342.853 220.714C341.581 220.714 340.403 220.549 340.003 220.478C339.556 220.408 339.249 219.984 339.32 219.536C339.391 219.088 339.815 218.782 340.262 218.853C342.712 219.23 344.973 219.041 345.209 218.617C345.326 216.804 345.209 213.412 345.209 213.365C345.185 212.917 345.538 212.517 346.01 212.517C346.457 212.517 346.858 212.846 346.858 213.317C346.858 213.459 346.975 216.827 346.858 218.735C346.834 219.206 346.598 219.63 346.198 219.96C345.468 220.549 344.125 220.714 342.853 220.714Z" fill="#FBD931"/>
<path d="M306.484 221.185C305.636 221.185 302.739 221.138 301.75 220.596C301.396 220.408 300.431 219.889 300.431 213.341C300.431 212.893 300.807 212.517 301.255 212.517C301.703 212.517 302.079 212.893 302.079 213.341C302.079 215.697 302.291 218.523 302.621 219.183C303.186 219.395 305 219.512 306.484 219.512C306.932 219.512 307.309 219.889 307.309 220.337C307.309 220.784 306.955 221.185 306.484 221.185Z" fill="#FBD931"/>
<path d="M313.739 200.056C311.737 200.056 309.546 200.009 308.439 199.844C308.039 199.773 307.356 199.679 307.191 199.043C306.767 197.465 306.72 192 309.146 188.938C310.701 186.983 314.422 186.512 320.24 187.501C320.382 187.525 320.5 187.548 320.547 187.548C320.853 187.572 321.112 187.737 321.253 188.019C321.348 188.208 321.583 188.655 321.56 193.672C321.536 198.713 321.3 199.067 321.183 199.255C320.924 199.655 320.759 199.938 315.341 200.032C314.846 200.056 314.305 200.056 313.739 200.056ZM308.698 198.219C310.489 198.501 317.861 198.478 319.769 198.195C319.934 196.546 319.958 190.822 319.816 189.126C313.15 187.996 311.078 189.173 310.442 189.974C308.557 192.33 308.463 196.617 308.698 198.219ZM320.5 187.572H320.523H320.5Z" fill="#E66220"/>
<path d="M315.883 196.735H314.493C313.668 196.735 312.985 196.051 312.985 195.227V194.238C312.985 193.413 313.668 192.73 314.493 192.73H315.883C316.707 192.73 317.39 193.413 317.39 194.238V195.227C317.39 196.075 316.707 196.735 315.883 196.735Z" fill="#E66220"/>
<path d="M315.883 197.088H314.493C313.457 197.088 312.632 196.264 312.632 195.227V194.238C312.632 193.201 313.457 192.377 314.493 192.377H315.883C316.919 192.377 317.744 193.201 317.744 194.238V195.227C317.744 196.264 316.896 197.088 315.883 197.088ZM314.493 193.107C313.857 193.107 313.339 193.625 313.339 194.261V195.251C313.339 195.887 313.857 196.405 314.493 196.405H315.883C316.519 196.405 317.037 195.887 317.037 195.251V194.261C317.037 193.625 316.519 193.107 315.883 193.107H314.493Z" fill="#E66220"/>
<path d="M315.883 211.716H314.493C313.668 211.716 312.985 211.032 312.985 210.208V209.219C312.985 208.394 313.668 207.711 314.493 207.711H315.883C316.707 207.711 317.39 208.394 317.39 209.219V210.208C317.39 211.032 316.707 211.716 315.883 211.716Z" fill="#E66220"/>
<path d="M315.883 212.069H314.493C313.457 212.069 312.632 211.244 312.632 210.208V209.219C312.632 208.182 313.457 207.358 314.493 207.358H315.883C316.919 207.358 317.744 208.182 317.744 209.219V210.208C317.744 211.244 316.896 212.069 315.883 212.069ZM314.493 208.065C313.857 208.065 313.339 208.583 313.339 209.219V210.208C313.339 210.844 313.857 211.362 314.493 211.362H315.883C316.519 211.362 317.037 210.844 317.037 210.208V209.219C317.037 208.583 316.519 208.065 315.883 208.065H314.493Z" fill="#E66220"/>
<path d="M331.829 196.004H330.44C329.615 196.004 328.932 195.321 328.932 194.497V193.508C328.932 192.683 329.615 192 330.44 192H331.829C332.654 192 333.337 192.683 333.337 193.508V194.497C333.337 195.321 332.654 196.004 331.829 196.004Z" fill="#E66220"/>
<path d="M331.829 196.358H330.44C329.403 196.358 328.579 195.533 328.579 194.497V193.508C328.579 192.471 329.403 191.647 330.44 191.647H331.829C332.866 191.647 333.69 192.471 333.69 193.508V194.497C333.69 195.51 332.842 196.358 331.829 196.358ZM330.44 192.353C329.804 192.353 329.286 192.872 329.286 193.508V194.497C329.286 195.133 329.804 195.651 330.44 195.651H331.829C332.465 195.651 332.984 195.133 332.984 194.497V193.508C332.984 192.872 332.465 192.353 331.829 192.353H330.44Z" fill="#E66220"/>
<path d="M331.829 211.716H330.44C329.615 211.716 328.932 211.032 328.932 210.208V209.219C328.932 208.394 329.615 207.711 330.44 207.711H331.829C332.654 207.711 333.337 208.394 333.337 209.219V210.208C333.337 211.032 332.654 211.716 331.829 211.716Z" fill="#E66220"/>
<path d="M331.829 212.069H330.44C329.403 212.069 328.579 211.244 328.579 210.208V209.219C328.579 208.182 329.403 207.358 330.44 207.358H331.829C332.866 207.358 333.69 208.182 333.69 209.219V210.208C333.69 211.244 332.842 212.069 331.829 212.069ZM330.44 208.065C329.804 208.065 329.286 208.583 329.286 209.219V210.208C329.286 210.844 329.804 211.362 330.44 211.362H331.829C332.465 211.362 332.984 210.844 332.984 210.208V209.219C332.984 208.583 332.465 208.065 331.829 208.065H330.44Z" fill="#E66220"/>
<path d="M331.147 200.362C329.144 200.362 326.954 200.268 325.917 200.032C324.975 199.82 324.787 199.302 324.81 198.925C324.81 198.737 324.834 198.148 324.834 197.394C324.975 187.76 325.187 187.548 325.588 187.195C326.436 186.441 331.9 186.347 335.08 187.925C337.082 188.914 337.954 191.764 338.354 194.002C338.708 196.098 338.778 198.619 338.496 199.278C338.307 199.726 338.095 200.197 332.678 200.315C332.183 200.338 331.665 200.362 331.147 200.362ZM326.436 198.454C328.249 198.807 335.245 198.76 336.965 198.383C337.082 196.782 336.682 190.587 334.326 189.409C331.853 188.184 327.943 188.231 326.789 188.443C326.577 189.904 326.483 195.486 326.459 197.418C326.459 197.842 326.459 198.195 326.436 198.454Z" fill="#E66220"/>
<path d="M318.073 218.923C315.058 218.923 309.782 218.335 308.086 214.424C306.555 210.891 307.332 204.979 307.85 204.202C308.086 203.825 308.345 203.424 312.443 203.306C314.516 203.259 316.966 203.306 318.662 203.448C320.523 203.589 321.088 203.778 321.3 204.319C321.559 204.908 321.489 208.865 321.441 211.174C321.277 217.463 320.97 218.123 320.853 218.335C320.688 218.688 320.405 218.806 320.264 218.829C320.24 218.829 319.369 218.923 318.073 218.923ZM309.216 205.214C308.934 206.369 308.392 211.009 309.593 213.765C311.148 217.345 317.555 217.416 319.439 217.251C319.746 215.272 319.934 207.193 319.793 205.214C318.026 204.908 310.771 204.79 309.216 205.214Z" fill="#E66220"/>
<path d="M325.776 208.536H325.752C325.305 208.512 324.928 208.135 324.951 207.688C324.975 206.91 324.975 206.251 324.975 205.685C324.975 204.107 324.975 203.518 325.399 203.094C325.705 202.788 325.776 202.718 333.761 202.859C334.209 202.859 334.585 203.236 334.562 203.707C334.562 204.154 334.185 204.508 333.737 204.508C333.737 204.508 333.737 204.508 333.714 204.508C330.934 204.461 327.825 204.437 326.624 204.461C326.6 204.79 326.6 205.238 326.6 205.685C326.6 206.251 326.6 206.934 326.577 207.735C326.577 208.182 326.223 208.536 325.776 208.536Z" fill="#E66220"/>
<path d="M332.96 218.052C332.63 218.052 332.324 217.864 332.206 217.557C332.018 217.133 332.23 216.662 332.63 216.474C334.939 215.485 337.812 214.26 337.318 203.377C337.294 202.93 337.648 202.529 338.095 202.506C338.543 202.482 338.943 202.836 338.967 203.283C339.485 214.378 336.564 216.568 333.29 217.981C333.172 218.029 333.078 218.052 332.96 218.052Z" fill="#E66220"/>
<path d="M327.354 218.57C325.894 218.57 325.282 218.429 325.022 217.863C324.858 217.51 324.834 216.921 324.81 214.024C324.81 213.412 324.787 212.728 324.787 212.022C324.787 211.574 325.14 211.197 325.588 211.174C326.035 211.174 326.412 211.527 326.436 211.975C326.436 212.681 326.459 213.364 326.459 214C326.483 215.131 326.483 216.285 326.53 216.898C327.119 216.945 328.226 216.921 328.768 216.898C329.074 216.898 329.333 216.874 329.521 216.874C329.969 216.874 330.346 217.251 330.346 217.699C330.346 218.146 329.969 218.523 329.521 218.523C329.357 218.523 329.121 218.523 328.815 218.547C328.249 218.57 327.755 218.57 327.354 218.57Z" fill="#E66220"/>
<path d="M180.676 132.83C180.653 132.83 180.629 132.83 180.582 132.83C180.135 132.783 179.805 132.382 179.852 131.935C181.077 120.181 185.435 102.208 186.377 98.3687C185.034 97.8976 181.996 96.8376 178.98 95.5892C171.443 92.4564 170.501 90.9489 170.595 89.7947C170.666 89.0174 170.76 87.9338 185.505 82.2099C192.572 79.454 199.709 76.9336 199.78 76.9101C200.204 76.7687 200.675 76.9807 200.84 77.4047C200.981 77.8287 200.769 78.2998 200.345 78.4647C187.602 82.9637 173.893 88.4049 172.291 90.0067C172.503 90.3836 173.704 91.632 179.946 94.1995C183.762 95.7777 187.554 97.0261 187.602 97.0496C188.002 97.191 188.238 97.6149 188.143 98.0389C188.096 98.2509 182.843 119.074 181.477 132.123C181.454 132.524 181.1 132.83 180.676 132.83Z" fill="#202D37"/>
<path d="M198.084 107.131C197.636 107.131 197.26 106.754 197.26 106.307C197.26 105.859 197.636 105.482 198.084 105.482C202.112 105.482 204.467 103.692 204.679 100.442C204.703 99.994 205.103 99.6406 205.551 99.6642C205.998 99.6878 206.352 100.088 206.328 100.536C206.046 104.658 202.96 107.131 198.084 107.131Z" fill="#202D37"/>
<path d="M206.987 140.815C206.964 140.815 206.917 140.815 206.893 140.815C206.446 140.768 206.116 140.368 206.163 139.896C206.775 134.243 207.647 127.459 208.754 119.733C210.191 109.605 211.51 101.431 211.51 101.337C211.581 100.936 211.934 100.63 212.334 100.654C215.043 100.701 217.399 100.583 219.33 100.277C223.358 99.6409 224.677 98.4396 225.101 97.7801C225.384 97.3325 225.455 96.8379 225.29 96.3196C224.772 94.6001 219.071 93.0926 211.439 93.5872C210.992 93.6108 210.591 93.281 210.568 92.8099C210.544 92.3624 210.874 91.9619 211.345 91.9384C218.129 91.5144 225.879 92.5508 226.891 95.8485C227.198 96.8379 227.056 97.8036 226.515 98.6751C225.502 100.277 223.193 101.384 219.613 101.926C217.752 102.208 215.562 102.35 213.041 102.326C212.688 104.517 211.581 111.583 210.403 119.992C209.319 127.695 208.448 134.455 207.835 140.085C207.765 140.509 207.411 140.815 206.987 140.815Z" fill="#202D37"/>
<path d="M212.924 97.8035C212.523 97.8035 212.17 97.4973 212.099 97.0969C212.028 96.6493 212.358 96.2253 212.806 96.1782C216.127 95.7307 219.849 95.8955 220.014 95.9191C220.461 95.9427 220.815 96.3195 220.791 96.7906C220.767 97.2382 220.367 97.5915 219.919 97.568C219.872 97.568 216.198 97.3795 213.018 97.8271C212.994 97.8035 212.971 97.8035 212.924 97.8035Z" fill="#202D37"/>
<path d="M211.675 79.2656C211.675 79.2656 217.493 76.5803 221.827 81.4091C226.868 87.0859 221.427 93.116 221.309 93.3044C218.105 92.6684 214.525 92.6448 214.525 92.6448C214.878 98.3923 212.523 99.2874 211.51 99.146C210.474 99.0047 210.85 96.979 210.85 96.979C196.411 91.9853 200.91 79.6896 200.91 79.6896C198.178 80.8202 193.09 80.2078 192.972 80.2549C194.621 71.8222 207.953 72.8351 211.675 79.2656Z" fill="#202D37"/>
<path d="M211.699 99.9941C211.581 99.9941 211.487 99.9941 211.369 99.9705C210.945 99.8998 210.591 99.6878 210.356 99.3581C209.979 98.8399 209.932 98.1097 209.956 97.5679C205.433 95.8719 202.3 93.2809 200.675 89.8418C199.002 86.3321 199.332 82.8224 199.733 80.9145C197.354 81.4091 194.433 81.1971 193.326 81.1265C193.184 81.1265 193.067 81.1029 193.019 81.1029C192.807 81.1265 192.595 81.0558 192.431 80.9145C192.195 80.726 192.101 80.4198 192.148 80.1372C192.855 76.6275 195.493 74.2248 199.403 73.5653C204.279 72.7409 209.555 74.7666 212.005 78.2763C213.771 77.711 218.671 76.651 222.44 80.8909C227.292 86.3557 223.335 92.1267 221.992 93.7755L221.945 93.8226C221.757 94.0817 221.427 94.1995 221.121 94.1524C218.954 93.7284 216.598 93.5871 215.35 93.5164C215.397 96.2017 214.831 98.1097 213.654 99.1932C213.112 99.6878 212.382 99.9941 211.699 99.9941ZM211.675 98.3452C211.816 98.3452 212.17 98.3217 212.57 97.9683C213.088 97.4972 213.913 96.1781 213.701 92.7156C213.677 92.48 213.771 92.268 213.936 92.1031C214.101 91.9382 214.313 91.844 214.549 91.844C214.69 91.844 217.87 91.8911 220.979 92.4329C222.463 90.4778 224.913 86.1201 221.238 81.9744C217.375 77.6403 212.099 79.9958 212.052 80.0194C211.675 80.2078 211.204 80.0429 210.992 79.6896C209.084 76.4155 204.137 74.4368 199.709 75.167C197.99 75.4497 195.092 76.3919 194.032 79.5012C195.61 79.5954 198.743 79.6896 200.604 78.9359C200.91 78.8181 201.264 78.8887 201.499 79.1007C201.735 79.3363 201.805 79.666 201.711 79.9723C201.688 80.0194 200.062 84.6362 202.206 89.1352C203.713 92.2916 206.728 94.6706 211.157 96.2017C211.534 96.343 211.769 96.7199 211.699 97.1439C211.581 97.5914 211.581 98.1332 211.675 98.3452Z" fill="#202D37"/>
<path d="M221.309 118.885C217.682 121.288 213.136 122.206 209.579 119.851C211.039 109.604 212.335 101.478 212.335 101.478C215.232 101.525 217.587 101.384 219.472 101.077C217.305 107.649 217.635 113.397 219.707 113.703C221.992 114.056 222.864 113.302 223.971 112.502C225.078 111.748 225.926 115.799 221.309 118.885Z" fill="#202D37"/>
<path d="M214.29 122.065C212.429 122.065 210.663 121.57 209.131 120.557C208.872 120.393 208.731 120.063 208.778 119.757C210.215 109.628 211.534 101.454 211.534 101.36C211.605 100.96 211.958 100.653 212.358 100.677C215.067 100.724 217.423 100.606 219.354 100.3C219.637 100.253 219.92 100.371 220.108 100.583C220.297 100.795 220.344 101.101 220.273 101.384C218.53 106.684 218.53 111.112 219.425 112.572C219.566 112.784 219.708 112.926 219.849 112.949C221.639 113.232 222.346 112.737 223.288 112.054L223.524 111.889C223.924 111.607 224.372 111.559 224.796 111.748C225.314 111.983 225.644 112.596 225.714 113.397C225.832 114.975 224.866 117.566 221.804 119.615C219.284 121.241 216.693 122.065 214.29 122.065ZM210.474 119.45C213.371 121.099 217.211 120.652 220.862 118.226C223.288 116.624 223.853 114.881 223.971 114.221C224.018 113.938 224.042 113.703 224.018 113.538C223.005 114.268 221.898 114.928 219.566 114.574C219.119 114.504 218.506 114.245 217.988 113.444C216.763 111.465 216.905 106.919 218.294 102.114C216.74 102.279 214.973 102.373 213.018 102.349C212.688 104.469 211.628 111.277 210.474 119.45Z" fill="#202D37"/>
<path d="M24.5774 58.6549C21.845 58.6549 18.83 58.49 15.6736 58.3016C13.5301 58.1838 11.2924 58.0661 9.10177 57.9954C8.65423 57.9718 8.3009 57.595 8.3009 57.1474C8.32446 56.6999 8.70133 56.323 9.14888 56.3465C11.3631 56.4172 13.6008 56.535 15.7443 56.6763C25.0721 57.1945 33.9052 57.6892 34.8003 53.5435C34.9181 53.0017 35.0594 52.3186 35.2243 51.5413C37.9096 38.8216 40.8775 25.5365 42.4793 23.2988C45.0703 19.6478 56.3296 22.6393 57.6016 22.9926C58.0492 23.1104 58.3083 23.5579 58.1669 24.0055C58.0492 24.453 57.6016 24.7121 57.1541 24.5708C52.7728 23.3695 45.2588 22.1917 43.7984 24.2646C42.1966 26.5259 38.2865 44.9459 36.8261 51.8946C36.6612 52.672 36.5198 53.3551 36.4021 53.8968C35.6012 57.7363 30.9137 58.6549 24.5774 58.6549Z" fill="#E66220"/>
<path d="M16.7032 62.8266C18.0186 61.5112 18.0186 59.3785 16.7032 58.063C15.3878 56.7476 13.2551 56.7476 11.9396 58.0631C10.6242 59.3785 10.6242 61.5112 11.9396 62.8266C13.2551 64.142 15.3878 64.142 16.7032 62.8266Z" fill="#E66220"/>
<path d="M14.3312 64.1909C12.2819 64.1909 10.6095 62.5185 10.6095 60.4693C10.6095 58.42 12.2819 56.7476 14.3312 56.7476C16.3805 56.7476 18.0529 58.42 18.0529 60.4693C18.0529 62.5185 16.3805 64.1909 14.3312 64.1909ZM14.3312 57.4307C12.6588 57.4307 11.3161 58.7968 11.3161 60.4457C11.3161 62.1181 12.6823 63.4607 14.3312 63.4607C16.0036 63.4607 17.3462 62.0945 17.3462 60.4457C17.3462 58.7968 16.0036 57.4307 14.3312 57.4307Z" fill="#E66220"/>
<path d="M29.0527 64.1432C30.913 64.1432 32.4211 62.6352 32.4211 60.7749C32.4211 58.9146 30.913 57.4065 29.0527 57.4065C27.1924 57.4065 25.6843 58.9146 25.6843 60.7749C25.6843 62.6352 27.1924 64.1432 29.0527 64.1432Z" fill="#E66220"/>
<path d="M29.0527 64.4966C27.0035 64.4966 25.3311 62.8242 25.3311 60.7749C25.3311 58.7256 27.0035 57.0532 29.0527 57.0532C31.102 57.0532 32.7744 58.7256 32.7744 60.7749C32.7744 62.8242 31.102 64.4966 29.0527 64.4966ZM29.0527 57.7363C27.3803 57.7363 26.0377 59.1025 26.0377 60.7514C26.0377 62.4238 27.4039 63.7664 29.0527 63.7664C30.7016 63.7664 32.0678 62.4002 32.0678 60.7514C32.0678 59.1025 30.7016 57.7363 29.0527 57.7363Z" fill="#E66220"/>
<path d="M8.46561 48.597C8.15939 48.597 7.85318 48.597 7.57052 48.597C7.12297 48.597 6.74609 48.2201 6.74609 47.7726C6.74609 47.325 7.12297 46.9481 7.57052 46.9481C15.1081 46.9953 36.7552 46.4535 36.9672 46.4299C37.4148 46.4299 37.7916 46.7833 37.8152 47.2308C37.8152 47.6783 37.4619 48.0552 37.0143 48.0788C36.8023 48.1023 16.7099 48.597 8.46561 48.597Z" fill="#E66220"/>
<path d="M40.9244 31.1424C39.5346 31.1424 7.12289 30.9069 0.927917 30.318C0.480372 30.2709 0.150605 29.8705 0.17416 29.4229C0.22127 28.9754 0.621703 28.6456 1.06925 28.6692C7.17001 29.258 40.5711 29.4936 40.9244 29.4936C41.3719 29.4936 41.7488 29.8705 41.7488 30.318C41.7488 30.7656 41.3955 31.1424 40.9244 31.1424Z" fill="#E66220"/>
<path d="M9.21985 48.3377C8.9843 48.3377 8.72519 48.2199 8.58386 48.0315C6.72301 45.6995 2.20044 35.4766 2.20044 29.635C2.20044 29.1874 2.57732 28.8105 3.02487 28.8105C3.47241 28.8105 3.84929 29.1874 3.84929 29.635C3.84929 34.9584 8.23053 44.9222 9.87939 47.0186C10.162 47.3719 10.0914 47.8901 9.73805 48.1728C9.59672 48.2906 9.40829 48.3377 9.21985 48.3377Z" fill="#E66220"/>
<path d="M22.1277 39.5285C17.134 39.5285 11.3395 39.5285 5.16805 39.5285C4.72051 39.5285 4.34363 39.1516 4.34363 38.7041C4.34363 38.2565 4.72051 37.8796 5.16805 37.8796C23.5645 37.9032 38.734 37.8796 38.8989 37.8796C39.3464 37.8796 39.7233 38.2565 39.7233 38.7041C39.7233 39.1516 39.3464 39.5285 38.8989 39.5285C38.7811 39.5285 32.0444 39.5285 22.1277 39.5285Z" fill="#E66220"/>
<path d="M16.4038 48.3379C16.0269 48.3379 15.6736 48.0552 15.6029 47.6783C14.4959 41.7896 15.0847 30.4596 15.1083 29.9649C15.1318 29.5174 15.5087 29.1641 15.9798 29.1876C16.4274 29.2112 16.7807 29.6116 16.7571 30.0592C16.7571 30.1769 16.1447 41.6718 17.2282 47.3721C17.3225 47.8197 17.0162 48.2437 16.5687 48.3379C16.498 48.3379 16.4509 48.3379 16.4038 48.3379Z" fill="#E66220"/>
<path d="M28.2991 48.0788C27.8751 48.0788 27.4982 47.749 27.4747 47.325C27.4747 47.2543 26.9094 39.2456 27.9458 30.1063C27.9929 29.6587 28.4169 29.329 28.8644 29.3761C29.312 29.4232 29.6418 29.8472 29.5946 30.2947C28.5582 39.2692 29.1235 47.1366 29.1235 47.2072C29.1471 47.6548 28.8173 48.0552 28.3698 48.0788C28.3462 48.0788 28.3227 48.0788 28.2991 48.0788Z" fill="#E66220"/>
<path d="M227.622 252.489C227.127 252.489 226.656 252.442 226.232 252.371C225.784 252.301 225.478 251.877 225.549 251.429C225.62 250.982 226.044 250.676 226.491 250.746C229.388 251.194 235.654 250.157 245.288 237.979C263.52 214.943 268.772 201.799 265.31 187.736C261.588 172.614 244.228 162.391 238.999 159.612C236.243 158.151 230.543 154.689 224.489 150.991C217.234 146.586 208.236 141.121 206.94 140.791C206.681 140.815 206.163 141.027 205.598 141.286C203.36 142.252 199.167 144.065 191.653 142.205C184.516 140.461 182.726 136.928 181.548 134.573C181.1 133.678 180.747 132.995 180.252 132.688C178.274 131.487 159.359 129.909 154.86 129.815H154.389C146.993 129.673 140.044 129.108 139.29 125.952C138.89 124.232 137.877 122.725 133.284 123.431C131.423 123.714 130.174 123.502 129.35 122.748C128.408 121.877 128.361 120.487 128.455 119.238C128.502 118.72 128.62 117.118 125.982 116.883L125.84 116.859C123.249 116.647 122.472 115.705 122.331 110.028C122.213 105.718 112.108 96.2487 107.255 91.7025C105.724 90.2657 104.617 89.2293 104.123 88.6639C102.639 86.9444 95.2659 84.9893 90.8375 84.4005C90.39 84.3298 90.0602 83.9294 90.1309 83.4818C90.2016 83.0343 90.602 82.7045 91.0495 82.7752C94.6299 83.2463 103.228 85.1307 105.371 87.604C105.795 88.0986 106.949 89.1821 108.386 90.5248C115.853 97.5206 123.862 105.388 123.979 110.005C124.05 112.596 124.262 114.103 124.639 114.739C124.851 115.093 125.063 115.163 125.982 115.234L126.123 115.258C128.785 115.493 130.269 117.024 130.104 119.38C130.01 120.581 130.127 121.241 130.481 121.547C130.881 121.924 131.753 121.994 133.048 121.806C134.721 121.547 139.785 120.793 140.916 125.575C140.986 125.904 141.599 126.988 146.098 127.624C149.019 128.048 152.41 128.119 154.46 128.142H154.931C157.757 128.189 178.462 129.626 181.148 131.251C182.043 131.793 182.514 132.712 183.056 133.795C184.163 135.986 185.694 139.001 192.077 140.556C199.073 142.275 202.771 140.673 204.985 139.708C205.833 139.354 206.446 139.072 207.035 139.095C208.071 139.119 212.287 141.592 225.384 149.53C231.414 153.205 237.114 156.667 239.823 158.104C245.217 160.954 263.072 171.507 266.959 187.289C270.563 201.917 265.239 215.437 246.631 238.945C237.986 249.875 231.697 252.489 227.622 252.489Z" fill="#202D37"/>
<path d="M213.206 234.541C212.853 234.541 212.523 234.305 212.406 233.952C210.78 228.251 211.134 226.932 212.641 224.271C213.23 223.258 215.303 220.784 217.965 217.628C222.44 212.305 229.2 204.296 230.072 201.351C231.344 197.064 229.624 190.94 208.755 175.347C208.401 175.064 208.307 174.569 208.59 174.193C208.872 173.839 209.367 173.745 209.744 174.028C230.213 189.315 233.299 196.193 231.65 201.799C230.684 205.05 224.348 212.611 219.237 218.664C216.74 221.632 214.596 224.176 214.102 225.048C212.806 227.309 212.523 228.181 214.031 233.457C214.149 233.905 213.913 234.352 213.466 234.47C213.348 234.541 213.277 234.541 213.206 234.541Z" fill="#202D37"/>
<path d="M151.091 170.094C151.068 170.094 151.021 170.094 150.997 170.094C147.016 169.599 111.731 164.841 99.765 154.406C86.4093 142.746 72.9358 109.345 72.818 109.016C71.4989 105.647 71.334 102.891 72.1585 97.7091C72.2291 97.2616 72.6531 96.9553 73.1007 97.026C73.5482 97.0967 73.8544 97.5207 73.7838 97.9682C73.0064 102.868 73.1242 105.317 74.3491 108.427C74.4669 108.756 87.7755 141.757 100.849 153.181C112.438 163.31 147.276 167.974 151.209 168.468C151.657 168.516 151.987 168.94 151.916 169.387C151.869 169.788 151.492 170.094 151.091 170.094Z" fill="#202D37"/>
<path d="M142.188 186.535C142.046 186.535 141.881 186.488 141.764 186.417C141.387 186.182 141.245 185.664 141.481 185.287C143.271 182.366 152.246 167.361 154.46 158.01C154.554 157.563 155.001 157.28 155.449 157.398C155.897 157.492 156.156 157.939 156.061 158.387C153.8 167.997 144.684 183.214 142.894 186.158C142.729 186.394 142.447 186.535 142.188 186.535Z" fill="#202D37"/>
<path d="M221.262 256.258C220.72 256.258 219.589 256.259 213.465 248.886C211.534 246.554 207.671 241.678 207.482 240.948C206.823 238.427 211.275 234.305 212.664 233.104C212.853 232.939 213.088 232.868 213.324 232.915C213.559 232.939 213.771 233.08 213.889 233.269C216.81 237.697 224.842 249.522 226.844 251.006C227.033 251.147 227.151 251.336 227.174 251.571C227.198 251.807 227.127 252.019 226.986 252.183C226.42 252.867 223.5 256.258 221.262 256.258ZM209.06 240.453C209.39 241.042 211.84 244.316 214.714 247.802C219.731 253.856 221.073 254.539 221.285 254.61C222.251 254.563 223.971 253.055 225.196 251.736C222.275 248.721 215.185 238.215 213.041 234.988C210.874 236.99 208.919 239.487 209.06 240.453Z" fill="#E66220"/>
<path d="M192.949 274.914C192.336 274.914 191.842 274.725 191.512 274.349C191.041 273.83 190.946 273.077 191.276 272.064C190.051 272.77 188.779 273.265 187.955 272.959C187.46 272.77 187.154 272.37 187.036 271.805C186.683 269.779 188.685 267.541 190.829 265.186C192.218 263.631 193.655 262.029 194.15 260.757C194.904 258.732 195.092 257.224 195.092 256.47C195.045 256.494 194.998 256.517 194.951 256.517C192.006 257.648 188.732 258.802 187.06 257.954C186.565 257.695 186.235 257.295 186.094 256.777C185.576 254.845 189.086 252.537 196.435 247.873C200.345 245.399 204.797 242.596 207.788 240.076C208.142 239.793 208.66 239.817 208.943 240.17C209.225 240.524 209.202 241.042 208.848 241.324C205.763 243.915 201.264 246.766 197.306 249.262C194.715 250.911 192.266 252.442 190.452 253.761C188.026 255.528 187.719 256.188 187.696 256.353C187.719 256.4 187.743 256.423 187.814 256.47C188.991 257.059 193.043 255.481 194.385 254.963C195.139 254.68 195.351 254.586 195.54 254.586C195.869 254.562 196.199 254.704 196.411 254.986C197.165 255.976 196.576 258.967 195.705 261.323C195.116 262.901 193.561 264.62 192.077 266.269C190.428 268.083 188.591 270.156 188.662 271.404C189.345 271.334 191.323 270.203 192.996 268.86C193.302 268.601 193.773 268.625 194.056 268.884C194.362 269.166 194.409 269.614 194.197 269.944C192.666 272.299 192.737 273.077 192.76 273.218C192.925 273.265 193.655 273.289 195.163 272.535C195.493 272.37 195.917 272.441 196.152 272.723C196.27 272.865 196.482 273.053 196.953 273.077C199.002 273.147 203.077 269.873 205.15 267.8C205.456 267.494 205.927 267.471 206.257 267.73C206.587 267.989 206.658 268.46 206.422 268.813C205.786 269.826 204.915 271.64 205.079 272.37V272.394C205.833 272.134 208.118 270.368 211.84 266.316C215.397 262.43 218.671 258.166 220.579 254.963C220.814 254.562 221.309 254.445 221.709 254.68C222.11 254.916 222.228 255.41 221.992 255.811C219.943 259.25 216.339 263.914 212.546 267.989C206.069 274.961 204.844 274.254 204.326 273.948C203.902 273.689 203.596 273.289 203.478 272.794C203.384 272.394 203.407 271.97 203.478 271.498C201.499 273.077 198.885 274.796 196.882 274.749C196.317 274.725 195.822 274.561 195.398 274.278C194.433 274.702 193.608 274.914 192.949 274.914Z" fill="#E66220"/>
<path d="M193.491 270.344C193.255 270.344 193.02 270.25 192.855 270.061C192.548 269.708 192.596 269.19 192.949 268.907C196.294 266.033 199.733 262.17 200.322 261.063C200.534 260.663 201.028 260.498 201.429 260.734C201.829 260.946 201.994 261.44 201.758 261.841C201.005 263.23 197.377 267.258 193.985 270.156C193.868 270.297 193.679 270.344 193.491 270.344Z" fill="#202D37"/>
<path d="M195.516 274.137C195.257 274.137 194.998 274.019 194.833 273.783C194.574 273.406 194.668 272.888 195.045 272.629C199.403 269.638 203.831 264.055 203.878 264.008C204.161 263.655 204.679 263.584 205.032 263.867C205.386 264.149 205.456 264.667 205.174 265.021C204.985 265.256 200.533 270.862 195.987 273.972C195.846 274.089 195.681 274.137 195.516 274.137Z" fill="#202D37"/>
<path d="M205.692 269.237C205.504 269.237 205.315 269.166 205.15 269.025C204.797 268.719 204.773 268.201 205.08 267.871C205.574 267.282 206.14 266.599 206.399 266.246C206.564 266.034 207.082 265.374 207.718 265.845C207.977 266.034 208.236 266.505 207.883 267.023C207.859 267.07 207.812 267.117 207.765 267.141C207.741 267.164 207.718 267.188 207.694 267.235C207.412 267.588 206.87 268.318 206.328 268.931C206.163 269.143 205.928 269.237 205.692 269.237Z" fill="#202D37"/>
<path d="M112.602 235.012C112.178 235.012 111.825 234.682 111.778 234.258C111.613 232.373 110.812 222.292 110.129 209.737C109.729 202.176 109.587 196.947 111.448 193.107C113.474 188.891 117.784 186.771 125.416 186.253C131.376 185.829 142.776 184.839 155.991 183.685C176.154 181.918 201.24 179.704 215.609 178.856C216.056 178.833 216.457 179.186 216.48 179.634C216.504 180.081 216.15 180.482 215.703 180.505C201.358 181.353 176.295 183.544 156.132 185.334C142.918 186.488 131.517 187.501 125.534 187.901C118.562 188.396 114.699 190.21 112.956 193.837C111.283 197.3 111.425 202.364 111.801 209.643C112.485 222.174 113.285 232.232 113.427 234.116C113.474 234.564 113.121 234.964 112.673 235.012C112.649 235.012 112.626 235.012 112.602 235.012Z" fill="#E66220"/>
<path d="M114.322 269.049C110.836 269.049 108.763 268.201 107.868 266.505C104.735 260.428 105.206 243.421 106.384 238.097C107.632 232.444 112.084 233.198 115.335 233.74C115.594 233.787 115.83 233.834 116.089 233.858C119.292 234.376 134.32 231.738 140.044 230.301C143.389 229.453 146.333 228.864 148.383 230.254C149.796 231.196 150.62 232.939 151.021 235.718C151.633 240.17 152.199 247.355 152.646 256.447C152.858 260.993 150.055 261.935 141.929 263.49C139.973 263.867 137.335 264.55 134.297 265.351C129.232 266.67 123.485 268.154 118.609 268.813C116.96 268.955 115.547 269.049 114.322 269.049ZM107.986 238.427C106.761 243.986 106.62 260.475 109.328 265.727C109.894 266.811 111.919 267.942 118.35 267.094C123.132 266.458 128.832 264.997 133.849 263.678C136.935 262.877 139.597 262.194 141.599 261.794C150.267 260.145 151.115 259.321 150.974 256.47C150.526 247.425 149.984 240.312 149.372 235.883C149.066 233.646 148.43 232.232 147.464 231.573C146.121 230.654 143.954 230.96 140.445 231.855C135.168 233.198 119.481 236.025 115.83 235.459C115.57 235.412 115.311 235.365 115.076 235.341C111.213 234.706 108.834 234.588 107.986 238.427Z" fill="#E66220"/>
<path d="M138.443 300C120.446 300 117.102 294.794 116.442 290.342C115.853 286.456 114.746 277.411 114.228 268.271C114.204 267.824 114.558 267.423 115.005 267.4C115.453 267.376 115.853 267.73 115.877 268.177C116.395 277.246 117.502 286.22 118.091 290.083C118.421 292.321 119.528 295.124 125.252 296.844C132.389 298.987 144.826 298.822 162.21 296.302C179.664 293.782 202.347 290.154 222.393 286.951C243.522 283.582 261.753 280.661 268.042 279.978C279.702 278.706 286.25 277.269 285.049 262.43C283.871 247.991 278.854 196.099 277.347 185.051C275.933 174.758 272.306 173.816 258.62 174.569C258.173 174.593 257.772 174.24 257.749 173.792C257.725 173.345 258.079 172.944 258.526 172.921C265.781 172.52 270.304 172.614 273.413 174.216C276.522 175.841 278.147 178.904 278.948 184.816C280.479 195.887 285.497 247.826 286.674 262.288C287.97 278.306 280.574 280.284 268.207 281.627C261.965 282.31 243.734 285.231 222.628 288.599C202.606 291.803 179.899 295.43 162.422 297.951C152.411 299.388 144.59 300 138.443 300Z" fill="#E66220"/>
<path d="M138.23 254.28C134.838 254.28 132.083 251.524 132.083 248.132C132.083 244.74 134.838 241.984 138.23 241.984C141.622 241.984 144.378 244.74 144.378 248.132C144.378 251.524 141.622 254.28 138.23 254.28ZM138.23 243.633C135.757 243.633 133.731 245.658 133.731 248.132C133.731 250.605 135.757 252.631 138.23 252.631C140.704 252.631 142.729 250.605 142.729 248.132C142.729 245.658 140.704 243.633 138.23 243.633Z" fill="#E66220"/>
<path d="M198.084 240.806C194.692 240.806 191.936 238.05 191.936 234.658C191.936 231.266 194.692 228.51 198.084 228.51C201.476 228.51 204.232 231.266 204.232 234.658C204.232 238.05 201.476 240.806 198.084 240.806ZM198.084 230.159C195.61 230.159 193.585 232.185 193.585 234.658C193.585 237.131 195.61 239.157 198.084 239.157C200.557 239.157 202.583 237.131 202.583 234.658C202.583 232.185 200.557 230.159 198.084 230.159Z" fill="#E66220"/>
<path d="M189.298 229.123C189.204 229.123 189.086 229.099 188.992 229.052C188.568 228.887 188.356 228.393 188.544 227.969C189.486 225.637 192.101 223.823 195.54 223.093C198.861 222.386 203.478 222.669 206.493 225.566C206.823 225.872 206.823 226.414 206.517 226.72C206.21 227.05 205.669 227.05 205.362 226.744C203.266 224.718 199.544 223.917 195.893 224.695C192.996 225.307 190.829 226.767 190.075 228.581C189.934 228.935 189.628 229.123 189.298 229.123Z" fill="#E66220"/>
<path d="M186.824 222.245C186.73 222.245 186.636 222.221 186.542 222.198C186.118 222.033 185.906 221.562 186.047 221.138C187.201 218.076 190.428 215.72 194.692 214.825C199.615 213.812 204.467 215.061 207.364 218.076C207.671 218.405 207.671 218.924 207.341 219.23C207.011 219.536 206.493 219.536 206.187 219.206C203.195 216.097 198.461 215.72 195.045 216.427C191.394 217.181 188.544 219.206 187.602 221.68C187.484 222.033 187.178 222.245 186.824 222.245Z" fill="#E66220"/>
<path d="M181.76 216.474C181.642 216.474 181.525 216.45 181.43 216.403C181.007 216.215 180.818 215.72 181.007 215.32C182.467 212.022 186.377 209.454 191.701 208.277C198.696 206.746 205.928 208.112 210.097 211.786C210.45 212.093 210.474 212.611 210.168 212.941C209.861 213.294 209.343 213.317 209.013 213.011C205.221 209.69 198.555 208.441 192.054 209.878C187.319 210.915 183.739 213.2 182.514 215.979C182.373 216.285 182.066 216.474 181.76 216.474Z" fill="#E66220"/>
<path d="M72.8182 98.934C72.6297 98.934 72.4177 98.8869 72.2058 98.7456C70.8867 98.0154 66.6703 92.4093 67.4947 89.8653C68.8374 85.6725 80.8505 77.9936 87.2574 77.2398C87.7992 77.1692 88.6472 77.4047 90.1783 79.7367C90.932 80.8673 91.7329 82.3513 91.8507 83.1757C91.992 84.0237 91.4502 84.377 91.0969 84.4477C89.448 84.801 76.163 95.5185 73.5484 98.6043C73.3835 98.7927 73.1244 98.934 72.8182 98.934ZM87.3281 78.9122C81.1567 79.7131 70.1093 87.0858 69.0494 90.4071C68.6254 91.7497 71.4284 96.0132 72.7004 97.1203C75.5506 94.1523 86.6685 84.801 90.1311 83.105C89.7071 81.9273 88.0347 79.2891 87.3281 78.9122Z" fill="#202D37"/>
<path d="M66.8588 84.6595C66.7174 84.6595 66.5761 84.6124 66.4348 84.5418C64.1499 83.2227 62.7602 80.137 62.878 76.6744C62.9486 74.7429 63.4668 73.0705 64.3855 71.7985C60.8522 72.034 55.2697 71.9634 54.4924 69.0661C53.4795 65.2973 60.2633 63.4365 66.8352 61.6227C67.2592 61.5049 67.6832 61.3872 68.0836 61.2694C66.6232 56.3228 64.6681 50.9287 63.7966 50.3163C63.4904 50.0807 62.9722 49.7981 62.3833 49.4448C59.8865 47.9372 55.6937 45.4404 55.1755 42.1427C54.8457 39.9992 55.4346 38.209 56.7536 37.3375C57.7901 36.6779 59.0856 36.7015 60.1691 37.4081C60.7109 37.7615 62.03 38.5152 63.5846 39.4103C70.0151 43.1085 73.1715 45.0164 73.7604 45.9586C74.5848 47.2777 85.3259 74.8842 86.5272 78.0406C86.6921 78.4646 86.4801 78.9357 86.0561 79.1006C85.6321 79.2654 85.161 79.0534 84.9961 78.6294C80.2616 66.4279 72.9831 47.8666 72.3706 46.8301C71.7818 46.0293 65.7046 42.5196 62.7837 40.8472C61.1584 39.905 59.8629 39.1748 59.274 38.7979C58.7323 38.4446 58.1198 38.421 57.6487 38.7272C56.895 39.2219 56.5652 40.3996 56.8007 41.8836C57.2012 44.4275 60.97 46.6888 63.2313 48.0315C63.8437 48.4083 64.3855 48.7145 64.7624 48.9972C66.5525 50.2927 69.1436 59.0081 69.8974 61.6463C69.968 61.8583 69.9209 62.0938 69.8267 62.2823C69.7089 62.4707 69.544 62.612 69.332 62.6827C68.6725 62.8711 67.9894 63.0596 67.2592 63.248C62.5717 64.5435 55.4817 66.475 56.0705 68.6657C56.5416 70.4559 62.7131 70.4794 66.7174 69.9376C67.1179 69.8905 67.4947 70.1261 67.6125 70.503C67.7303 70.8798 67.5419 71.3038 67.1885 71.4923C65.6103 72.2696 64.5975 74.2482 64.5033 76.745C64.409 79.5481 65.4926 82.1156 67.2356 83.1285C67.6361 83.364 67.7539 83.8587 67.5419 84.2591C67.4241 84.5182 67.1414 84.6595 66.8588 84.6595Z" fill="#E66220"/>
<path d="M68.2721 90.9491C68.225 90.9491 68.1779 90.9491 68.1308 90.9255C66.3406 90.6193 62.8544 88.6642 59.9572 85.6727C57.3897 83.011 54.3275 78.5827 54.3982 72.6233C54.3982 72.1757 54.7751 71.7988 55.2226 71.7988C55.6701 71.7988 56.047 72.1757 56.047 72.6233C55.9764 78.0174 58.7794 82.0688 61.1349 84.5185C63.9615 87.4394 67.0708 89.0647 68.3899 89.3002C68.8374 89.3709 69.1436 89.7949 69.073 90.2424C69.0023 90.6664 68.649 90.9491 68.2721 90.9491Z" fill="#E66220"/>
<path d="M61.8884 64.7792C61.5822 64.7792 61.2995 64.6143 61.1346 64.3081C59.368 60.6806 58.2609 55.9932 60.3809 53.6612C61.2995 52.6719 63.1368 51.8004 66.835 53.2372C67.2589 53.4021 67.4709 53.8732 67.3061 54.2972C67.1412 54.7212 66.6701 54.9332 66.2461 54.7683C64.6914 54.1559 62.6186 53.6612 61.6057 54.7683C60.3573 56.1345 60.7577 59.762 62.6186 63.5779C62.807 63.9783 62.6422 64.473 62.2417 64.685C62.1239 64.7556 62.0062 64.7792 61.8884 64.7792Z" fill="#E66220"/>
<path d="M56.8477 66.97C56.5886 66.97 56.3059 66.8287 56.1646 66.5931C54.2802 63.7194 53.1495 59.3853 54.7984 57.0298C55.4815 56.0405 56.9183 55.0276 59.9098 55.7342C60.3574 55.8285 60.6165 56.276 60.5223 56.7236C60.4281 57.1711 59.9805 57.4302 59.533 57.336C57.8606 56.9355 56.7299 57.1475 56.141 57.972C55.0104 59.5973 55.9526 63.2719 57.5308 65.6745C57.7899 66.0513 57.6721 66.5696 57.2952 66.8051C57.1775 66.9229 57.0126 66.97 56.8477 66.97Z" fill="#E66220"/>
<path d="M57.908 74.2013C56.4005 74.2013 54.5161 73.4476 52.4668 71.9636C49.5695 69.8672 48.1562 65.7215 49.4517 63.0834C49.8993 62.1883 51.3126 60.2332 55.0343 61.3403C55.4818 61.4581 55.7174 61.9292 55.5996 62.3767C55.4583 62.8243 55.0107 63.0598 54.5632 62.942C53.2912 62.5651 51.6188 62.4003 50.9121 63.8371C50.0641 65.5566 50.9828 68.9015 53.409 70.6445C56.1414 72.6232 58.0022 72.8116 58.756 72.364C59.1329 72.152 59.2977 71.7045 59.2271 71.0921C59.18 70.6445 59.5097 70.2441 59.9573 70.197C60.4048 70.1499 60.8053 70.4796 60.8524 70.9272C60.9701 72.1992 60.499 73.2356 59.5568 73.8009C59.1328 74.06 58.5675 74.2013 57.908 74.2013Z" fill="#E66220"/>
<path d="M10.4206 194.615C5.35631 194.615 4.34344 193.084 3.61323 190.21C2.69459 186.559 2.03505 182.036 0.810184 170.848C0.786629 170.565 0.763075 170.306 0.715965 170.047L0.574634 168.845C0.291973 166.231 0.0564241 164.182 0.009314 162.533C-0.132016 157.751 1.30484 156.126 6.39273 155.325C20.8791 153.04 40.4062 151.297 47.7789 150.637C48.5092 150.567 49.1216 150.52 49.5927 150.473C53.6913 150.096 55.9525 151.509 57.201 155.207C57.7427 156.809 58.0961 158.905 58.3316 161.661L58.3552 161.897C58.4023 162.344 58.0489 162.745 57.6014 162.792C57.1539 162.839 56.7534 162.486 56.7063 162.038L56.6827 161.803C56.4708 159.188 56.1174 157.209 55.6228 155.749C54.6099 152.781 53.0788 151.839 49.7105 152.121C49.2394 152.168 48.6505 152.216 47.8967 152.286C40.5475 152.946 21.044 154.665 6.62828 156.95C2.34126 157.633 1.51684 158.552 1.63461 162.486C1.68172 164.064 1.91727 166.113 2.19993 168.681L2.34126 169.882C2.36482 170.141 2.41193 170.424 2.43548 170.683C3.63679 181.777 4.29633 186.253 5.19142 189.809C5.92163 192.66 6.32207 194.238 21.892 191.694C22.3395 191.623 22.7635 191.929 22.8342 192.377C22.9048 192.824 22.5986 193.248 22.1511 193.319C16.8041 194.191 13.0588 194.615 10.4206 194.615Z" fill="#E66220"/>
<path d="M57.5072 161.708C48.2972 162.957 18.9476 166.914 1.46973 169.387C1.13996 166.49 0.88085 164.252 0.83374 162.485C13.4592 161.049 46.083 156.809 56.4237 155.466C56.9419 157.021 57.2952 159.046 57.5072 161.708Z" fill="#E66220"/>
<path d="M1.46978 169.741C1.39912 169.741 1.30489 169.717 1.25778 169.67C1.18712 169.623 1.14001 169.529 1.11646 169.434L1.04579 168.798C0.763128 166.207 0.527579 164.134 0.480469 162.509C0.480469 162.321 0.621796 162.179 0.786681 162.156C13.954 160.648 49.4043 156.031 56.353 155.136C56.5179 155.113 56.6828 155.207 56.7299 155.372C57.2481 156.927 57.625 158.999 57.837 161.708C57.8606 161.897 57.7192 162.062 57.5308 162.085L57.3188 162.109C47.8026 163.404 18.8298 167.314 1.49333 169.764C1.51689 169.741 1.49334 169.741 1.46978 169.741ZM1.21068 162.815C1.28134 164.37 1.49334 166.301 1.776 168.728L1.79955 169.01C19.1125 166.584 47.5434 162.721 57.1304 161.426C56.9184 159.094 56.6121 157.28 56.1646 155.867C48.627 156.832 14.4486 161.284 1.21068 162.815Z" fill="#E66220"/>
<path d="M9.97322 179.398C9.31367 179.398 8.77191 179.351 8.37148 179.28C8.11237 179.233 7.33505 179.045 7.07595 178.362C6.8404 177.702 6.46352 176.383 6.22796 175.205C5.80397 173.085 5.96886 172.379 6.34574 171.978C7.45283 170.801 14.1425 170.047 16.5686 170.259C17.5815 170.353 18.1233 170.565 18.4059 171.013C19.1126 172.073 20.2668 176.265 18.9006 177.679C17.9819 178.574 12.9647 179.398 9.97322 179.398ZM8.55991 177.632C9.879 178.15 16.7806 177.16 17.7228 176.477C18.1233 175.983 17.6993 173.085 17.0868 171.978C16.6393 171.813 14.9433 171.743 12.2816 172.049C9.73767 172.355 8.08881 172.803 7.61771 173.038C7.54705 173.745 8.06526 176.171 8.55991 177.632ZM6.93462 172.497L7.52349 173.062L6.93462 172.497Z" fill="#E66220"/>
<path d="M121.059 226.296C120.635 226.296 120.258 225.966 120.234 225.519C120.14 223.941 120.022 222.386 119.905 220.855L119.81 219.654C119.787 219.206 120.117 218.806 120.564 218.782C121.012 218.758 121.412 219.088 121.436 219.536L121.53 220.737C121.648 222.268 121.766 223.823 121.86 225.425C121.883 225.872 121.554 226.273 121.082 226.296C121.106 226.296 121.082 226.296 121.059 226.296ZM120.305 214.542C119.858 214.542 119.504 214.189 119.481 213.741C119.434 212.728 119.41 211.81 119.41 210.962C119.41 209.784 119.457 208.748 119.528 207.758C119.551 207.311 119.952 206.957 120.423 207.005C120.87 207.028 121.224 207.429 121.177 207.9C121.106 208.842 121.059 209.831 121.059 210.962C121.059 211.786 121.082 212.681 121.106 213.694C121.13 214.142 120.776 214.542 120.305 214.542C120.329 214.542 120.305 214.542 120.305 214.542ZM121.624 202.953C121.506 202.953 121.389 202.929 121.294 202.882C120.87 202.694 120.706 202.199 120.894 201.799C121.554 200.338 122.472 199.184 123.603 198.36C124.074 198.006 124.686 197.677 125.393 197.37C125.817 197.182 126.288 197.394 126.477 197.794C126.665 198.218 126.453 198.69 126.053 198.878C125.464 199.137 124.969 199.396 124.569 199.679C123.65 200.362 122.92 201.281 122.378 202.482C122.237 202.765 121.93 202.953 121.624 202.953ZM131.4 197.37C130.999 197.37 130.669 197.088 130.599 196.687C130.528 196.24 130.811 195.816 131.258 195.722C132.978 195.415 134.98 195.133 137.171 194.897C137.618 194.85 138.019 195.18 138.066 195.627C138.113 196.075 137.783 196.475 137.335 196.523C135.192 196.735 133.237 197.017 131.564 197.323C131.494 197.37 131.447 197.37 131.4 197.37ZM143.13 196.122C142.706 196.122 142.329 195.792 142.306 195.345C142.282 194.897 142.635 194.497 143.083 194.473C145.909 194.308 148.171 194.261 149.019 194.261C149.019 194.261 149.019 194.261 149.042 194.261C149.49 194.261 149.867 194.615 149.867 195.062C149.867 195.51 149.513 195.887 149.066 195.91C148.241 195.934 146.004 195.957 143.201 196.122C143.154 196.122 143.13 196.122 143.13 196.122Z" fill="#E66220"/>
<path d="M247.267 273.712C246.843 273.712 246.49 273.406 246.443 272.982C246.396 272.535 246.725 272.111 247.173 272.063C249.152 271.828 251.107 271.592 253.015 271.333C253.462 271.263 253.886 271.592 253.933 272.04C254.004 272.487 253.674 272.911 253.227 272.959C251.319 273.218 249.34 273.453 247.361 273.689C247.338 273.689 247.314 273.712 247.267 273.712ZM258.974 272.158C258.574 272.158 258.22 271.875 258.15 271.451C258.079 271.003 258.385 270.579 258.833 270.509C261 270.179 262.955 269.849 264.627 269.519C265.075 269.425 265.499 269.731 265.593 270.179C265.687 270.627 265.381 271.051 264.933 271.145C263.237 271.475 261.282 271.804 259.092 272.134C259.068 272.158 259.021 272.158 258.974 272.158ZM270.54 269.802C270.186 269.802 269.88 269.59 269.762 269.237C269.621 268.813 269.856 268.342 270.28 268.2C270.587 268.106 270.869 267.988 271.105 267.894C272.518 267.305 273.437 266.363 274.002 264.926C274.167 264.502 274.638 264.29 275.062 264.455C275.486 264.62 275.698 265.091 275.533 265.515C274.803 267.4 273.578 268.671 271.741 269.425C271.458 269.543 271.152 269.661 270.799 269.779C270.704 269.779 270.61 269.802 270.54 269.802ZM275.533 260.239C275.086 260.239 274.709 259.885 274.709 259.414C274.685 257.86 274.567 255.952 274.332 253.62C274.285 253.172 274.615 252.772 275.062 252.725C275.51 252.678 275.91 253.007 275.957 253.455C276.193 255.834 276.334 257.789 276.334 259.414C276.358 259.862 276.004 260.239 275.533 260.239ZM274.45 248.508C274.049 248.508 273.696 248.202 273.625 247.802C273.39 246.035 273.131 244.127 272.848 242.101L272.824 241.984C272.754 241.536 273.083 241.112 273.531 241.065C273.979 240.994 274.403 241.324 274.45 241.772L274.473 241.889C274.756 243.915 275.015 245.823 275.251 247.613C275.321 248.061 274.991 248.485 274.544 248.532C274.52 248.508 274.497 248.508 274.45 248.508Z" fill="#E66220"/>
<path d="M143.954 289.942C141.716 289.918 139.714 289.8 137.971 289.589C137.524 289.541 137.194 289.117 137.265 288.67C137.312 288.222 137.736 287.893 138.183 287.963C139.856 288.175 141.787 288.293 143.954 288.317C144.402 288.317 144.779 288.693 144.779 289.141C144.779 289.565 144.402 289.942 143.954 289.942ZM149.819 289.753C149.395 289.753 149.018 289.424 148.995 288.976C148.971 288.529 149.325 288.128 149.772 288.105C151.068 288.034 152.458 287.916 153.918 287.798C154.365 287.751 154.766 288.105 154.813 288.552C154.86 289 154.507 289.4 154.059 289.447C152.599 289.589 151.186 289.683 149.866 289.753C149.866 289.753 149.843 289.753 149.819 289.753ZM132.412 288.128C132.294 288.128 132.177 288.105 132.082 288.057C129.915 287.092 128.384 285.725 127.395 283.865C127.183 283.464 127.324 282.97 127.725 282.758C128.125 282.546 128.62 282.687 128.832 283.087C129.656 284.595 130.928 285.725 132.742 286.55C133.166 286.738 133.354 287.233 133.166 287.633C133.025 287.94 132.718 288.128 132.412 288.128ZM126.665 278.635C126.241 278.635 125.887 278.306 125.84 277.882C125.723 276.515 125.675 275.079 125.628 273.548C125.605 273.029 125.605 272.488 125.581 271.946C125.558 271.498 125.911 271.098 126.382 271.098C126.83 271.074 127.23 271.428 127.23 271.899C127.254 272.44 127.254 272.982 127.277 273.5C127.324 275.008 127.371 276.421 127.466 277.74C127.513 278.188 127.159 278.588 126.712 278.635C126.712 278.635 126.688 278.635 126.665 278.635Z" fill="#E66220"/>
<path d="M22.9759 173.839C37.8391 168.044 57.3663 162.438 62.6897 160.978C68.0131 159.494 71.0753 157.657 73.7841 164.37C76.4694 171.083 80.3796 182.437 81.9106 185.805C83.4417 189.173 84.8079 192.047 76.1396 195.062C67.4714 198.077 48.5567 204.06 40.7364 207.405C32.9161 210.75 30.2544 211.833 26.0145 201.94C21.7746 192.047 19.9137 186.535 18.3356 181.706C16.7338 176.83 19.7724 175.087 22.9759 173.839Z" fill="#FBD931"/>
<path d="M62.1038 182.03C64.8624 181.372 66.5655 178.603 65.9079 175.844C65.2502 173.086 62.4808 171.382 59.7222 172.04C56.9637 172.698 55.2606 175.467 55.9182 178.226C56.5759 180.984 59.3453 182.687 62.1038 182.03Z" fill="#FFFEF2"/>
<path d="M60.9227 183.002C57.6485 183.002 54.9633 180.34 54.9633 177.043C54.9633 173.769 57.625 171.083 60.9227 171.083C64.2204 171.083 66.8821 173.745 66.8821 177.043C66.8821 180.34 64.1968 183.002 60.9227 183.002ZM60.9227 172.732C58.5436 172.732 56.6121 174.664 56.6121 177.043C56.6121 179.422 58.5436 181.353 60.9227 181.353C63.3017 181.353 65.2333 179.422 65.2333 177.043C65.2333 174.664 63.3017 172.732 60.9227 172.732Z" fill="#202D37"/>
<path d="M68.0602 181C67.9896 181 67.9189 181 67.8482 181C64.5741 180.882 61.983 178.126 62.1008 174.852C62.2186 171.578 64.9745 168.987 68.2487 169.104C71.5228 169.222 74.1139 171.978 73.9961 175.252C73.9019 178.456 71.2402 181 68.0602 181ZM63.7496 174.875C63.7025 176.03 64.1265 177.113 64.9038 177.961C65.6812 178.809 66.7647 179.28 67.8953 179.327C69.0495 179.374 70.1331 178.95 70.981 178.173C71.829 177.396 72.3001 176.312 72.3472 175.182C72.4179 172.803 70.5571 170.8 68.178 170.73C65.8225 170.636 63.8203 172.52 63.7496 174.875Z" fill="#202D37"/>
<path d="M66.6938 188.514C66.364 188.514 66.0342 188.302 65.9164 187.948C65.7751 187.524 65.9871 187.053 66.4347 186.888C70.6746 185.428 74.0665 184.297 74.09 184.297C74.514 184.156 74.9851 184.392 75.1265 184.816C75.2678 185.24 75.0322 185.711 74.6083 185.852C74.5847 185.852 71.1928 186.983 66.9764 188.443C66.8822 188.49 66.788 188.514 66.6938 188.514Z" fill="#202D37"/>
<path d="M55.7877 192.377C55.4579 192.377 55.1517 192.188 55.0339 191.858C54.869 191.435 55.0575 190.963 55.4815 190.775C56.6592 190.28 57.7663 189.833 58.7556 189.409C60.0747 188.867 61.5587 188.278 63.1369 187.642C63.5608 187.477 64.0319 187.689 64.1968 188.113C64.3617 188.537 64.1497 189.008 63.7257 189.173C62.1475 189.786 60.6871 190.398 59.368 190.94C58.3787 191.34 57.2716 191.811 56.0939 192.306C55.9997 192.353 55.8819 192.377 55.7877 192.377Z" fill="#202D37"/>
<path d="M44.5991 197.135C44.2694 197.135 43.9867 196.946 43.8454 196.64C43.6569 196.216 43.8454 195.745 44.2694 195.557C46.5778 194.544 49.1924 193.437 51.8305 192.33C52.2545 192.141 52.7256 192.353 52.9141 192.777C53.1025 193.201 52.8905 193.672 52.4665 193.861C49.8284 194.968 47.2373 196.099 44.9289 197.088C44.8111 197.111 44.6934 197.135 44.5991 197.135Z" fill="#202D37"/>
<path d="M35.4364 201.281C35.1301 201.281 34.8475 201.116 34.7061 200.833C34.4941 200.433 34.659 199.938 35.083 199.726C36.4492 199.043 38.8047 197.959 42.0789 196.523C42.5029 196.334 42.974 196.523 43.1624 196.947C43.3508 197.37 43.1624 197.842 42.7384 198.03C39.4878 199.443 37.1794 200.527 35.8132 201.186C35.6719 201.257 35.5541 201.281 35.4364 201.281Z" fill="#202D37"/>
</svg>
