<svg width="759" height="415" viewBox="0 0 759 415" fill="none" xmlns="http://www.w3.org/2000/svg">
<path d="M517.932 243.419C510.793 237.873 503.419 232.741 495.749 228.139C482.003 219.82 467.431 213.154 451.915 208.257C445.307 206.192 438.995 204.599 432.918 203.537C427.078 202.004 421.237 200.529 415.396 198.936C396.635 193.862 379.173 191.266 364.246 193.331C350.264 194.275 339.763 198.051 331.267 203.537C327.079 206.192 323.539 209.201 320.648 212.505L305.368 194.098C303.067 191.384 300.353 188.729 297.168 186.193C295.929 183.479 294.218 180.706 291.976 177.992L271.917 153.804C269.616 151.09 266.902 148.435 263.776 145.957C262.537 143.184 260.826 140.47 258.525 137.698L238.466 113.509C215.045 85.3087 144.957 71.5036 81.9487 82.7129C18.8815 93.8632 -14.9234 122.948 6.37429 147.668L24.6632 168.848C26.728 171.266 29.2649 173.567 32.2147 175.75C33.2177 178.169 34.7516 180.588 36.8164 183.007L55.1053 204.186C57.1702 206.605 59.707 208.906 62.6569 211.089C63.6598 213.508 65.1937 215.927 67.2586 218.287L85.5475 239.466C87.6123 241.885 90.1492 244.186 93.158 246.428C94.1609 248.788 95.6948 251.207 97.7597 253.625L116.049 274.805C118.113 277.224 120.65 279.525 123.659 281.767C124.662 284.127 126.137 286.545 128.261 288.905L146.55 310.085C148.615 312.504 151.21 314.805 154.16 317.106C155.163 319.465 156.638 321.825 158.703 324.244L176.992 345.424C198.29 370.143 272.153 390.143 342.005 390.143C411.857 390.143 432.033 376.161 433.036 356.397C441.945 359.111 450.853 361.707 459.762 364.362C484.422 373.27 506.664 376.338 526.663 374.45C536.575 373.506 544.716 371.205 551.383 367.724C560.999 362.887 567.371 355.925 570.852 347.076C574.215 338.285 574.569 328.256 571.914 317.106C568.964 304.775 562.651 291.914 552.622 278.463C543.536 266.369 532.386 254.569 518.168 243.419H517.932Z" fill="#4337DD"/>
<path d="M568.787 319.229C547.43 298.994 505.602 285.248 457.401 285.248C409.201 285.248 367.373 298.994 346.016 319.229H330.972V349.79C330.972 385.423 387.55 414.332 457.401 414.332C527.253 414.332 583.831 385.423 583.831 349.79V319.229H568.787Z" fill="#EFAB00"/>
<path d="M457.401 383.772C527.226 383.772 583.831 354.875 583.831 319.23C583.831 283.584 527.226 254.688 457.401 254.688C387.577 254.688 330.972 283.584 330.972 319.23C330.972 354.875 387.577 383.772 457.401 383.772Z" fill="#FFCA28"/>
<path d="M457.401 366.781C395.219 366.781 348.789 341.707 348.789 319.229C348.789 296.752 395.219 271.678 457.401 271.678C519.584 271.678 566.014 296.752 566.014 319.229C566.014 341.707 519.584 366.781 457.401 366.781Z" fill="#F9BB00"/>
<path d="M438.699 324.657C436.634 324.716 434.57 324.716 432.505 324.952C428.021 325.424 423.478 325.011 418.994 324.775C411.797 324.303 404.776 323.005 397.933 320.999C394.57 319.996 391.207 318.935 388.139 317.224C381.768 313.625 381.473 307.371 387.549 303.3C390.735 301.177 394.393 300.351 398.169 299.938C401.119 299.584 404.068 299.348 406.959 299.112C407.726 299.053 408.493 298.817 409.201 298.522C410.853 297.873 411.325 297.047 411.089 295.395C410.912 293.979 410.558 292.622 410.676 291.147C411.03 287.135 413.39 284.481 416.989 282.77C424.068 279.348 437.165 278.817 445.366 286.368C447.962 288.787 450.617 291.147 452.858 293.861C454.274 295.572 454.333 295.572 455.572 293.684C457.46 290.734 459.879 288.138 462.593 285.779C465.307 283.36 468.433 281.885 471.973 281.118C477.519 279.997 483.065 280.233 488.433 282.003C493.979 283.891 496.988 287.725 497.755 293.271C498.227 296.87 498.463 296.929 502.297 296.398C508.61 295.513 514.923 295.454 521.176 296.811C524.421 297.519 527.253 298.876 529.554 301.295C532.622 304.539 532.032 309.2 528.079 311.914C524.893 314.097 521.235 315.336 517.636 316.634C513.448 318.168 509.2 319.406 504.834 320.232C504.48 320.291 504.067 320.291 503.772 320.763C504.303 321.353 505.07 321.471 505.778 321.707C510.498 323.241 515.277 324.716 519.524 327.194C522.002 328.669 523.949 330.557 524.126 333.507C524.362 336.751 522.474 338.934 519.878 340.586C516.044 343.064 511.678 343.713 507.135 343.949C504.067 344.126 500.94 343.772 497.873 344.185C493.684 344.716 490.557 346.427 489.2 350.616C487.843 354.922 484.185 357.046 479.938 358.285C473.625 360.055 467.254 360.055 460.941 357.872C458.227 356.928 456.044 355.217 454.038 353.388C450.558 350.262 447.667 346.722 445.897 342.415C444.835 339.878 444.245 337.223 444.363 334.451C444.363 333.861 444.54 333.153 443.832 332.858C443.301 332.622 442.888 333.212 442.475 333.507C433.744 339.996 424.068 344.716 413.744 348.374C410.204 349.613 406.664 350.911 402.947 351.559C399.408 352.149 395.927 351.972 392.564 350.498C391.915 350.203 391.266 349.79 390.735 349.377C387.195 346.722 387.372 343.182 391.207 340.881C392.564 340.055 394.039 339.524 395.632 339.229C404.245 337.754 412.741 335.925 420.941 333.153C426.664 331.206 432.21 328.787 437.46 325.719C437.814 325.542 438.109 325.306 438.404 325.07C438.404 325.07 438.404 324.893 438.522 324.657H438.699Z" fill="#FFCA28"/>
<path d="M568.787 268.316C547.43 248.08 505.602 234.334 457.401 234.334C409.201 234.334 367.373 248.08 346.016 268.316H330.972V298.876C330.972 334.51 387.55 363.418 457.401 363.418C527.253 363.418 583.831 334.51 583.831 298.876V268.316H568.787Z" fill="#EFAB00"/>
<path d="M457.401 332.858C527.226 332.858 583.831 303.961 583.831 268.316C583.831 232.67 527.226 203.774 457.401 203.774C387.577 203.774 330.972 232.67 330.972 268.316C330.972 303.961 387.577 332.858 457.401 332.858Z" fill="#FFCA28"/>
<path d="M457.401 315.867C395.219 315.867 348.789 290.793 348.789 268.316C348.789 245.838 395.219 220.765 457.401 220.765C519.584 220.765 566.014 245.838 566.014 268.316C566.014 290.793 519.584 315.867 457.401 315.867Z" fill="#F9BB00"/>
<path d="M438.699 273.743C436.634 273.802 434.57 273.802 432.505 274.038C428.021 274.51 423.478 274.097 418.994 273.861C411.797 273.389 404.776 272.091 397.933 270.085C394.57 269.082 391.207 268.021 388.139 266.31C381.768 262.711 381.473 256.457 387.549 252.387C390.735 250.263 394.393 249.437 398.169 249.024C401.119 248.67 404.068 248.434 406.959 248.198C407.726 248.139 408.493 247.903 409.201 247.608C410.853 246.959 411.325 246.133 411.089 244.481C410.912 243.065 410.558 241.708 410.676 240.233C411.03 236.222 413.39 233.567 416.989 231.856C424.068 228.434 437.165 227.903 445.366 235.455C447.962 237.873 450.617 240.233 452.858 242.947C454.274 244.658 454.333 244.658 455.572 242.77C457.46 239.82 459.879 237.224 462.593 234.865C465.307 232.446 468.433 230.971 471.973 230.204C477.519 229.083 483.065 229.319 488.433 231.089C493.979 232.977 496.988 236.811 497.755 242.357C498.227 245.956 498.463 246.015 502.297 245.484C508.61 244.599 514.923 244.54 521.176 245.897C524.421 246.605 527.253 247.962 529.554 250.381C532.622 253.625 532.032 258.286 528.079 261C524.893 263.183 521.235 264.422 517.636 265.72C513.448 267.254 509.2 268.493 504.834 269.318C504.48 269.377 504.067 269.377 503.772 269.849C504.303 270.439 505.07 270.557 505.778 270.793C510.498 272.327 515.277 273.802 519.524 276.28C522.002 277.755 523.949 279.643 524.126 282.593C524.362 285.837 522.474 288.02 519.878 289.672C516.044 292.15 511.678 292.799 507.135 293.035C504.067 293.212 500.94 292.858 497.873 293.271C493.684 293.802 490.557 295.513 489.2 299.702C487.843 304.008 484.185 306.132 479.938 307.371C473.625 309.141 467.254 309.141 460.941 306.958C458.227 306.014 456.044 304.303 454.038 302.474C450.558 299.348 447.667 295.808 445.897 291.501C444.835 288.964 444.245 286.309 444.363 283.537C444.363 282.947 444.54 282.239 443.832 281.944C443.301 281.708 442.888 282.298 442.475 282.593C433.744 289.082 424.068 293.802 413.744 297.46C410.204 298.699 406.664 299.997 402.947 300.646C399.408 301.236 395.927 301.059 392.564 299.584C391.915 299.289 391.266 298.876 390.735 298.463C387.195 295.808 387.372 292.268 391.207 289.967C392.564 289.141 394.039 288.61 395.632 288.315C404.245 286.84 412.741 285.011 420.941 282.239C426.664 280.292 432.21 277.873 437.46 274.805C437.814 274.628 438.109 274.392 438.404 274.156C438.404 274.156 438.404 273.979 438.522 273.743H438.699Z" fill="#FFCA28"/>
<path d="M568.787 217.343C547.43 197.107 505.602 183.361 457.401 183.361C409.201 183.361 367.373 197.107 346.016 217.343H330.972V247.903C330.972 283.537 387.55 312.445 457.401 312.445C527.253 312.445 583.831 283.537 583.831 247.903V217.343H568.787Z" fill="#EFAB00"/>
<path d="M457.401 281.885C527.226 281.885 583.831 252.988 583.831 217.343C583.831 181.697 527.226 152.801 457.401 152.801C387.577 152.801 330.972 181.697 330.972 217.343C330.972 252.988 387.577 281.885 457.401 281.885Z" fill="#FFCA28"/>
<path d="M457.401 264.894C395.219 264.894 348.789 239.82 348.789 217.343C348.789 194.865 395.219 169.792 457.401 169.792C519.584 169.792 566.014 194.865 566.014 217.343C566.014 239.82 519.584 264.894 457.401 264.894Z" fill="#F9BB00"/>
<path d="M438.699 222.77C436.634 222.829 434.57 222.829 432.505 223.065C428.021 223.537 423.478 223.124 418.994 222.888C411.797 222.416 404.776 221.118 397.933 219.113C394.57 218.11 391.207 217.048 388.139 215.337C381.768 211.738 381.473 205.484 387.549 201.414C390.735 199.29 394.393 198.464 398.169 198.051C401.119 197.697 404.068 197.461 406.959 197.225C407.726 197.166 408.493 196.93 409.201 196.635C410.853 195.986 411.325 195.16 411.089 193.508C410.912 192.092 410.558 190.735 410.676 189.26C411.03 185.249 413.39 182.594 416.989 180.883C424.068 177.461 437.165 176.93 445.366 184.482C447.962 186.901 450.617 189.26 452.858 191.974C454.274 193.685 454.333 193.685 455.572 191.797C457.46 188.847 459.879 186.252 462.593 183.892C465.307 181.473 468.433 179.998 471.973 179.231C477.519 178.11 483.065 178.346 488.433 180.116C493.979 182.004 496.988 185.839 497.755 191.384C498.227 194.983 498.463 195.042 502.297 194.511C508.61 193.626 514.923 193.567 521.176 194.924C524.421 195.632 527.253 196.989 529.554 199.408C532.622 202.653 532.032 207.313 528.079 210.027C524.893 212.21 521.235 213.449 517.636 214.747C513.448 216.281 509.2 217.52 504.834 218.346C504.48 218.405 504.067 218.405 503.772 218.877C504.303 219.467 505.07 219.585 505.778 219.821C510.498 221.354 515.277 222.829 519.524 225.307C522.002 226.782 523.949 228.67 524.126 231.62C524.362 234.865 522.474 237.047 519.878 238.699C516.044 241.177 511.678 241.826 507.135 242.062C504.067 242.239 500.94 241.885 497.873 242.298C493.684 242.829 490.557 244.54 489.2 248.729C487.843 253.036 484.185 255.159 479.938 256.398C473.625 258.168 467.254 258.168 460.941 255.985C458.227 255.041 456.044 253.331 454.038 251.502C450.558 248.375 447.667 244.835 445.897 240.528C444.835 237.991 444.245 235.337 444.363 232.564C444.363 231.974 444.54 231.266 443.832 230.971C443.301 230.735 442.888 231.325 442.475 231.62C433.744 238.109 424.068 242.829 413.744 246.487C410.204 247.726 406.664 249.024 402.947 249.673C399.408 250.263 395.927 250.086 392.564 248.611C391.915 248.316 391.266 247.903 390.735 247.49C387.195 244.835 387.372 241.295 391.207 238.994C392.564 238.168 394.039 237.637 395.632 237.342C404.245 235.868 412.741 234.039 420.941 231.266C426.664 229.319 432.21 226.9 437.46 223.832C437.814 223.655 438.109 223.419 438.404 223.183C438.404 223.183 438.404 223.006 438.522 222.77H438.699Z" fill="#FFCA28"/>
<path d="M568.787 166.429C547.43 146.193 505.602 132.447 457.401 132.447C409.201 132.447 367.373 146.193 346.016 166.429H330.972V196.989C330.972 232.623 387.55 261.531 457.401 261.531C527.253 261.531 583.831 232.623 583.831 196.989V166.429H568.787Z" fill="#EFAB00"/>
<path d="M457.401 230.971C527.226 230.971 583.831 202.074 583.831 166.429C583.831 130.783 527.226 101.887 457.401 101.887C387.577 101.887 330.972 130.783 330.972 166.429C330.972 202.074 387.577 230.971 457.401 230.971Z" fill="#FFCA28"/>
<path d="M457.401 213.98C395.219 213.98 348.789 188.906 348.789 166.429C348.789 143.951 395.219 118.878 457.401 118.878C519.584 118.878 566.014 143.951 566.014 166.429C566.014 188.906 519.584 213.98 457.401 213.98Z" fill="#F9BB00"/>
<path d="M438.699 171.856C436.634 171.915 434.57 171.915 432.505 172.151C428.021 172.623 423.478 172.21 418.994 171.974C411.797 171.503 404.776 170.205 397.933 168.199C394.57 167.196 391.207 166.134 388.139 164.423C381.768 160.824 381.473 154.571 387.549 150.5C390.735 148.376 394.393 147.55 398.169 147.137C401.119 146.783 404.068 146.547 406.959 146.311C407.726 146.252 408.493 146.016 409.201 145.721C410.853 145.072 411.325 144.246 411.089 142.594C410.912 141.178 410.558 139.821 410.676 138.347C411.03 134.335 413.39 131.68 416.989 129.969C424.068 126.547 437.165 126.016 445.366 133.568C447.962 135.987 450.617 138.347 452.858 141.06C454.274 142.771 454.333 142.771 455.572 140.883C457.46 137.934 459.879 135.338 462.593 132.978C465.307 130.559 468.433 129.084 471.973 128.317C477.519 127.196 483.065 127.432 488.433 129.202C493.979 131.09 496.988 134.925 497.755 140.47C498.227 144.069 498.463 144.128 502.297 143.597C508.61 142.712 514.923 142.653 521.176 144.01C524.421 144.718 527.253 146.075 529.554 148.494C532.622 151.739 532.032 156.399 528.079 159.113C524.893 161.296 521.235 162.535 517.636 163.833C513.448 165.367 509.2 166.606 504.834 167.432C504.48 167.491 504.067 167.491 503.772 167.963C504.303 168.553 505.07 168.671 505.778 168.907C510.498 170.441 515.277 171.915 519.524 174.393C522.002 175.868 523.949 177.756 524.126 180.706C524.362 183.951 522.474 186.134 519.878 187.786C516.044 190.263 511.678 190.912 507.135 191.148C504.067 191.325 500.94 190.971 497.873 191.384C493.684 191.915 490.557 193.626 489.2 197.815C487.843 202.122 484.185 204.246 479.938 205.484C473.625 207.254 467.254 207.254 460.941 205.071C458.227 204.128 456.044 202.417 454.038 200.588C450.558 197.461 447.667 193.921 445.897 189.614C444.835 187.078 444.245 184.423 444.363 181.65C444.363 181.06 444.54 180.352 443.832 180.057C443.301 179.821 442.888 180.411 442.475 180.706C433.744 187.196 424.068 191.915 413.744 195.573C410.204 196.812 406.664 198.11 402.947 198.759C399.408 199.349 395.927 199.172 392.564 197.697C391.915 197.402 391.266 196.989 390.735 196.576C387.195 193.921 387.372 190.381 391.207 188.08C392.564 187.255 394.039 186.724 395.632 186.429C404.245 184.954 412.741 183.125 420.941 180.352C426.664 178.405 432.21 175.986 437.46 172.918C437.814 172.741 438.109 172.505 438.404 172.269C438.404 172.269 438.404 172.092 438.522 171.856H438.699Z" fill="#FFCA28"/>
<path d="M568.787 115.456C547.43 95.2202 505.602 81.474 457.401 81.474C409.201 81.474 367.373 95.2202 346.016 115.456H330.972V146.016C330.972 181.65 387.55 210.558 457.401 210.558C527.253 210.558 583.831 181.65 583.831 146.016V115.456H568.787Z" fill="#EFAB00"/>
<path d="M457.401 179.998C527.226 179.998 583.831 151.102 583.831 115.456C583.831 79.8103 527.226 50.9139 457.401 50.9139C387.577 50.9139 330.972 79.8103 330.972 115.456C330.972 151.102 387.577 179.998 457.401 179.998Z" fill="#FFCA28"/>
<path d="M457.401 163.007C395.219 163.007 348.789 137.934 348.789 115.456C348.789 92.9783 395.219 67.9048 457.401 67.9048C519.584 67.9048 566.014 92.9783 566.014 115.456C566.014 137.934 519.584 163.007 457.401 163.007Z" fill="#F9BB00"/>
<path d="M438.699 120.884C436.634 120.943 434.57 120.943 432.505 121.179C428.021 121.651 423.478 121.238 418.994 121.002C411.797 120.53 404.776 119.232 397.933 117.226C394.57 116.223 391.207 115.161 388.139 113.45C381.768 109.851 381.473 103.598 387.549 99.5269C390.735 97.403 394.393 96.5771 398.169 96.1641C401.119 95.8101 404.068 95.5741 406.959 95.3381C407.726 95.2791 408.493 95.0432 409.201 94.7482C410.853 94.0992 411.325 93.2733 411.089 91.6214C410.912 90.2055 410.558 88.8485 410.676 87.3736C411.03 83.3619 413.39 80.707 416.989 78.9961C424.068 75.5744 437.165 75.0434 445.366 82.5949C447.962 85.0138 450.617 87.3736 452.858 90.0875C454.274 91.7984 454.333 91.7984 455.572 89.9105C457.46 86.9607 459.879 84.3648 462.593 82.005C465.307 79.5861 468.433 78.1112 471.973 77.3442C477.519 76.2233 483.065 76.4593 488.433 78.2292C493.979 80.1171 496.988 83.9518 497.755 89.4975C498.227 93.0963 498.463 93.1553 502.297 92.6243C508.61 91.7394 514.923 91.6804 521.176 93.0373C524.421 93.7452 527.253 95.1022 529.554 97.521C532.622 100.766 532.032 105.427 528.079 108.14C524.893 110.323 521.235 111.562 517.636 112.86C513.448 114.394 509.2 115.633 504.834 116.459C504.48 116.518 504.067 116.518 503.772 116.99C504.303 117.58 505.07 117.698 505.778 117.934C510.498 119.468 515.277 120.943 519.524 123.42C522.002 124.895 523.949 126.783 524.126 129.733C524.362 132.978 522.474 135.161 519.878 136.813C516.044 139.29 511.678 139.939 507.135 140.175C504.067 140.352 500.94 139.998 497.873 140.411C493.684 140.942 490.557 142.653 489.2 146.842C487.843 151.149 484.185 153.273 479.938 154.512C473.625 156.281 467.254 156.281 460.941 154.099C458.227 153.155 456.044 151.444 454.038 149.615C450.558 146.488 447.667 142.948 445.897 138.642C444.835 136.105 444.245 133.45 444.363 130.677C444.363 130.087 444.54 129.379 443.832 129.084C443.301 128.848 442.888 129.438 442.475 129.733C433.744 136.223 424.068 140.942 413.744 144.6C410.204 145.839 406.664 147.137 402.947 147.786C399.408 148.376 395.927 148.199 392.564 146.724C391.915 146.429 391.266 146.016 390.735 145.603C387.195 142.948 387.372 139.408 391.207 137.108C392.564 136.282 394.039 135.751 395.632 135.456C404.245 133.981 412.741 132.152 420.941 129.379C426.664 127.432 432.21 125.013 437.46 121.946C437.814 121.769 438.109 121.533 438.404 121.297C438.404 121.297 438.404 121.12 438.522 120.884H438.699Z" fill="#FFCA28"/>
<path d="M568.787 64.542C547.43 44.3063 505.602 30.5601 457.401 30.5601C409.201 30.5601 367.373 44.3063 346.016 64.542H330.972V95.1022C330.972 130.736 387.55 159.644 457.401 159.644C527.253 159.644 583.831 130.736 583.831 95.1022V64.542H568.787Z" fill="#EFAB00"/>
<path d="M457.401 129.084C527.226 129.084 583.831 100.188 583.831 64.5421C583.831 28.8965 527.226 0 457.401 0C387.577 0 330.972 28.8965 330.972 64.5421C330.972 100.188 387.577 129.084 457.401 129.084Z" fill="#FFCA28"/>
<path d="M457.401 112.093C395.219 112.093 348.789 87.0197 348.789 64.5421C348.789 42.0644 395.219 16.991 457.401 16.991C519.584 16.991 566.014 42.0644 566.014 64.5421C566.014 87.0197 519.584 112.093 457.401 112.093Z" fill="#F9BB00"/>
<path d="M438.699 69.9697C436.634 70.0287 434.57 70.0287 432.505 70.2647C428.021 70.7367 423.478 70.3237 418.994 70.0877C411.797 69.6157 404.776 68.3178 397.933 66.3119C394.57 65.309 391.207 64.2471 388.139 62.5362C381.768 58.9374 381.473 52.6838 387.549 48.613C390.735 46.4891 394.393 45.6632 398.169 45.2502C401.119 44.8962 404.068 44.6603 406.959 44.4243C407.726 44.3653 408.493 44.1293 409.201 43.8343C410.853 43.1853 411.325 42.3594 411.089 40.7075C410.912 39.2916 410.558 37.9347 410.676 36.4598C411.03 32.448 413.39 29.7932 416.989 28.0823C424.068 24.6605 437.165 24.1295 445.366 31.681C447.962 34.0999 450.617 36.4598 452.858 39.1736C454.274 40.8845 454.333 40.8845 455.572 38.9966C457.46 36.0468 459.879 33.4509 462.593 31.0911C465.307 28.6722 468.433 27.1973 471.973 26.4304C477.519 25.3094 483.065 25.5454 488.433 27.3153C493.979 29.2032 496.988 33.038 497.755 38.5836C498.227 42.1824 498.463 42.2414 502.297 41.7104C508.61 40.8255 514.923 40.7665 521.176 42.1234C524.421 42.8314 527.253 44.1883 529.554 46.6071C532.622 49.8519 532.032 54.5127 528.079 57.2265C524.893 59.4094 521.235 60.6483 517.636 61.9462C513.448 63.4801 509.2 64.719 504.834 65.545C504.48 65.604 504.067 65.604 503.772 66.076C504.303 66.6659 505.07 66.7839 505.778 67.0199C510.498 68.5538 515.277 70.0287 519.524 72.5066C522.002 73.9815 523.949 75.8693 524.126 78.8192C524.362 82.064 522.474 84.2468 519.878 85.8987C516.044 88.3766 511.678 89.0255 507.135 89.2615C504.067 89.4385 500.94 89.0845 497.873 89.4975C493.684 90.0285 490.557 91.7394 489.2 95.9281C487.843 100.235 484.185 102.359 479.938 103.598C473.625 105.368 467.254 105.368 460.941 103.185C458.227 102.241 456.044 100.53 454.038 98.701C450.558 95.5741 447.667 92.0344 445.897 87.7276C444.835 85.1908 444.245 82.5359 444.363 79.7631C444.363 79.1731 444.54 78.4652 443.832 78.1702C443.301 77.9342 442.888 78.5242 442.475 78.8192C433.744 85.3088 424.068 90.0285 413.744 93.6863C410.204 94.9252 406.664 96.2231 402.947 96.8721C399.408 97.462 395.927 97.285 392.564 95.8101C391.915 95.5152 391.266 95.1022 390.735 94.6892C387.195 92.0344 387.372 88.4946 391.207 86.1937C392.564 85.3678 394.039 84.8368 395.632 84.5418C404.245 83.0669 412.741 81.238 420.941 78.4652C426.664 76.5183 432.21 74.0995 437.46 71.0316C437.814 70.8547 438.109 70.6187 438.404 70.3827C438.404 70.3827 438.404 70.2057 438.522 69.9697H438.699Z" fill="#FFCA28"/>
<path d="M642.119 172.328C658.402 171.62 673.446 176.517 687.782 184.187C696.631 188.906 705.776 193.154 714.566 197.992C733.209 208.316 745.598 223.714 752.914 242.888C758.047 256.221 759.58 270.085 758.813 284.127C757.988 299.702 753.799 314.569 746.778 328.669C740.348 341.589 731.911 353.093 721.41 363.182C706.72 377.341 689.434 387.429 669.139 392.503C662.354 394.214 655.393 395.04 648.313 395.276C639.169 395.512 630.201 394.745 621.352 392.503C613.977 390.674 607.193 387.488 600.585 384.007C590.91 378.875 581.057 374.096 571.559 368.668C554.273 358.875 542.415 344.539 535.04 326.781C530.556 315.926 528.492 304.598 528.138 292.917C527.312 266.9 535.04 243.301 550.202 221.944C563.181 203.597 580.054 189.319 601.47 180.293C614.272 174.924 627.606 171.797 642.06 172.269L642.119 172.328Z" fill="#EFAB00"/>
<path d="M758.342 276.634C758.755 298.758 752.738 318.462 741.941 336.81C732.738 352.503 720.467 365.837 705.068 376.338C690.083 386.603 673.446 393.27 654.98 395.158C629.907 397.695 607.311 391.795 588.197 375.689C571.973 362.061 562.356 344.775 558.58 324.657C554.156 300.941 557.283 277.991 567.548 255.926C574.745 240.469 584.775 226.9 597.695 215.337C614.804 200.116 634.568 189.791 657.989 186.96C678.638 184.482 698.284 187.373 716.16 198.287C732.266 208.139 743.711 221.59 750.909 238.404C756.277 250.912 758.755 263.95 758.342 276.634Z" fill="#FFCA28"/>
<path d="M644.007 378.757C627.016 378.757 612.621 373.565 599.937 362.946C587.017 352.09 579.229 338.639 576.102 321.648C572.386 301.531 574.981 281.708 583.772 262.711C589.966 249.319 598.757 237.519 609.789 227.667C625.364 213.803 641.824 205.956 660.172 203.715C664.007 203.243 667.783 203.007 671.323 203.007C684.479 203.007 695.983 206.133 706.484 212.505C719.287 220.293 728.372 230.853 734.39 244.776C738.755 254.923 740.82 265.425 740.525 276.044V276.87C740.879 294.805 736.218 311.678 726.366 328.492C718.343 342.179 707.664 353.624 694.626 362.533C681.293 371.618 667.724 376.751 653.034 378.226C649.907 378.521 646.898 378.698 643.948 378.698L644.007 378.757Z" fill="#F9BB00"/>
<path d="M655.511 304.657C655.098 305.306 654.626 305.896 654.213 306.545C646.957 317.224 637.222 325.011 624.479 329.082C618.225 331.088 612.444 328.669 609.848 323.123C608.314 319.76 608.255 316.221 609.789 312.917C611.087 310.085 612.916 307.43 614.509 304.657C615.04 303.772 615.571 302.77 615.748 301.826C616.043 300.174 615.276 298.935 613.742 297.932C612.326 297.047 610.851 296.044 609.612 294.923C602.296 288.197 604.243 279.82 609.435 274.451C612.975 270.793 617.458 269.85 622.473 270.204C626.78 270.499 631.028 271.088 635.157 272.268C635.511 272.386 635.924 272.386 636.632 272.563C636.278 271.796 636.101 271.206 635.806 270.734C633.564 266.487 632.09 261.944 631.264 257.224C629.848 249.024 636.632 240.469 645.305 239.761C648.609 239.466 651.381 240.882 654.036 242.475C655.57 243.419 657.104 244.481 658.579 245.602C660.29 246.841 661.116 246.723 662.001 244.894C664.125 240.705 666.897 236.989 670.85 234.216C674.036 231.915 677.576 230.853 681.529 231.915C686.484 233.272 689.729 237.343 689.788 242.298C689.788 247.077 688.726 251.738 687.369 256.28C686.779 258.345 685.953 260.292 685.245 262.357C685.009 262.947 684.832 263.537 684.537 264.481C685.304 264.186 685.776 264.068 686.189 263.832C690.319 261.944 694.508 260.292 699.051 259.525C705.304 258.522 710.732 262.357 711.853 268.316C712.502 271.796 711.794 275.1 709.906 278.05C708.667 280.056 707.192 281.944 705.658 283.714C703.475 286.251 702.059 288.964 703.003 292.268C703.357 293.566 704.183 294.746 704.95 295.867C706.543 298.227 707.9 300.646 708.136 303.536C708.785 311.442 701.764 320.232 692.797 319.878C682.827 319.466 674.154 316.103 666.897 309.613C666.367 309.141 665.836 308.669 665.01 307.902C665.01 308.728 664.951 309.259 665.01 309.731C667.015 322.533 665.954 335.1 662.001 347.43C661.47 349.141 660.349 350.852 659.051 352.091C656.219 354.863 651.971 355.158 648.963 353.093C646.072 351.147 645.128 347.312 646.721 343.713C648.078 340.645 649.494 337.636 650.732 334.569C654.449 325.365 656.278 315.808 655.924 305.896C655.924 305.542 655.865 305.129 655.806 304.775C655.688 304.775 655.57 304.716 655.452 304.657H655.511Z" fill="#FFCA28"/>
</svg>
