<svg width="747" height="560" viewBox="0 0 747 560" fill="none" xmlns="http://www.w3.org/2000/svg">
<path d="M503.878 387.202C473.871 408.26 420.194 428.648 359.635 437.499C281.071 448.951 190.966 441.065 125.916 390.138C122.096 387.16 118.361 384.014 114.71 380.742C-13.7536 264.584 119.243 74.387 261.556 154.72C352.878 206.275 396.44 225.068 514.748 167.892C610.854 121.454 676.912 265.591 503.878 387.202Z" fill="url(#paint0_linear_34_3423)"/>
<path d="M680.27 136.808C675.485 114.407 595.243 102.451 568.845 100.647C542.447 98.8436 512.062 100.27 512.776 119.441C513.489 138.611 516.049 197.886 516.595 243.107C511.768 241.345 506.774 239.835 501.528 238.786C501.864 235.891 502.787 232.41 505.054 229.054C509.041 223.097 509.754 215.882 507.656 215.043C503.249 207.534 481.803 207.324 474.375 210.596L471.228 212.232C470.388 211.309 469.591 210.848 468.038 211.477C463.17 213.365 469.633 226.327 473.788 231.822C475.382 233.962 476.39 235.64 477.019 237.192C476.39 237.234 475.718 237.276 475.089 237.36C454.944 239.373 453.097 250.196 463.128 255.524C458.217 257.789 456.833 263.242 464.932 269.325C460.148 271.003 459.183 276.288 462.918 279.644C463.883 280.483 465.268 281.322 466.905 282.077C460.148 284.846 461.155 290.048 469.843 293.907C470.514 294.201 471.186 294.452 471.857 294.704C463.631 317.566 436.94 351.084 443.025 393.285C449.11 435.527 475.508 443.288 496.912 441.568C510.006 440.519 526.205 432.004 536.823 417.993C536.823 417.993 622.48 456.376 642.373 459.271C662.265 462.165 667.721 454.195 672.044 441.778C676.283 429.403 688.16 173.807 680.27 136.808Z" fill="#FFFEF2"/>
<path d="M629.95 429.319C625.795 429.319 619.92 427.641 611.526 424.201C584.205 412.959 546.308 399.493 545.931 399.367C545.175 399.116 544.755 398.277 545.049 397.48C545.301 396.724 546.14 396.305 546.938 396.599C547.315 396.724 585.296 410.232 612.659 421.516C624.033 426.215 630.496 427.473 633.601 425.627C636.539 423.866 637.043 418.706 637.756 411.574C637.924 409.938 638.092 408.26 638.302 406.499C643.338 363.207 648.878 223.81 646.024 189.118C644.681 172.926 643.002 164.284 637.001 158.915C630.999 153.587 620.507 151.154 601.496 146.708L591.927 144.484C559.528 136.933 536.11 131.438 529.395 136.766C528.094 137.814 527.465 139.241 527.465 141.296V247.092C527.465 247.889 526.793 248.56 525.996 248.56C525.198 248.56 524.527 247.889 524.527 247.092V141.17C524.527 138.234 525.534 135.927 527.549 134.333C535.355 128.124 558.143 133.452 592.557 141.506L602.125 143.729C621.641 148.26 632.342 150.735 638.931 156.608C645.688 162.606 647.535 171.751 648.92 188.783C651.773 223.6 646.234 363.375 641.156 406.75C640.946 408.512 640.778 410.19 640.61 411.784C639.813 419.755 639.267 425.544 635.028 428.06C633.685 428.899 632.049 429.319 629.95 429.319Z" fill="#202D37"/>
<path d="M649.801 461.368C647.451 461.368 644.891 461.158 642.079 460.739C622.228 457.844 539.635 420.929 536.152 419.377C535.396 419.041 535.061 418.16 535.396 417.447C535.732 416.692 536.614 416.357 537.327 416.692C538.166 417.07 623.025 454.992 642.498 457.844C662.181 460.697 666.714 452.433 670.575 441.316C672.673 435.318 676.702 368.577 679.22 298.438C682.284 212.987 682.158 152.664 678.801 137.059C676.87 128.082 660.796 119.524 632.3 112.393C609.847 106.772 583.618 103.08 568.719 102.074C542.153 100.27 525.072 102.829 517.98 109.666C515.294 112.267 514.077 115.413 514.203 119.357C514.287 122.041 514.454 125.523 514.622 129.634C515.63 155.685 517.56 204.178 518.064 243.065C518.064 243.862 517.434 244.533 516.595 244.533C515.797 244.533 515.126 243.904 515.126 243.065C514.622 204.22 512.734 155.768 511.685 129.718C511.517 125.607 511.391 122.125 511.265 119.441C511.097 114.7 512.65 110.715 515.923 107.569C523.729 99.9761 541.062 97.2494 568.887 99.1371C589.997 100.563 676.367 111.764 681.654 136.472C686.523 159.292 683.585 257.453 682.116 298.563C679.808 362.326 675.737 435.318 673.303 442.281C671.288 448.028 668.728 453.859 663.776 457.467C660.209 460.11 655.676 461.368 649.801 461.368Z" fill="#202D37"/>
<path d="M516.007 307.793C512.734 301.206 509.88 293.698 507.782 284.679C502.326 280.316 499.262 273.604 498.297 263.536C498.297 263.536 492.044 263.872 486.294 263.201C493.764 267.647 493.051 275.366 485.497 276.498L485.622 277.337C487.679 278.134 488.476 283.63 484.699 285.098C493.764 293.865 483.188 298.731 471.857 294.704C463.631 317.567 436.94 351.084 443.025 393.285C449.11 435.528 475.508 443.288 496.912 441.568C510.006 440.52 526.205 432.004 536.823 417.993C541.23 412.204 544.671 405.45 546.518 397.899C547.525 393.872 548.071 389.635 548.071 385.147C547.945 346.26 528.975 334.011 516.007 307.793Z" fill="#06D188"/>
<path d="M421.705 324.572C420.278 328.851 400.05 330.864 392.453 331.452L392.537 332.626C399.084 332.626 414.067 333.129 414.067 337.702C414.025 343.407 390.775 342.946 390.775 342.946C384.018 356.873 369.497 358.509 368.909 358.593C368.322 358.677 366.685 363.207 366.223 365.514C369.119 366.395 370.882 366.773 370.882 366.773C370.882 366.773 368.322 373.904 366.727 379.315C365.132 384.727 364.587 388.712 367.692 392.446C372.141 397.773 366.559 418.202 359.634 437.541C281.071 448.993 190.966 441.107 125.915 390.18C145.43 337.45 175.563 304.394 182.026 291.642C183.705 288.37 187.86 252.503 185.845 230.606C179.97 233.165 168.429 235.598 162.763 229.473C155.251 221.293 165.869 209.925 175.689 212.148H175.731C175.815 212.19 175.941 212.19 176.025 212.232C179.131 213.071 181.397 215.714 182.53 218.147C184.041 221.419 188.825 224.229 189.874 217.643C190.924 211.057 193.861 210.302 195.246 209.254C196.673 208.205 198.016 201.703 195.246 199.354C199.149 200.402 205.067 197.55 204.521 191.048C208.13 194.026 216.902 193.523 219.672 186.727C223.197 190.251 227.1 190.251 230.08 188.824C252.7 200.654 275.153 213.91 275.027 215.714C274.901 217.643 247.664 229.096 247.664 228.844C247.664 228.592 246.153 288.957 246.993 292.187C261.22 307.373 280.105 331.955 295.382 396.347C295.382 396.431 295.424 396.473 295.424 396.557C295.466 396.808 295.55 397.06 295.591 397.312C297.774 406.163 303.02 413.84 311.791 397.018C311.791 397.018 311.791 397.144 311.791 397.354C318.758 383.93 325.515 373.401 328.662 374.03C328.662 374.03 331.222 361.655 335.377 348.399C337.769 340.806 340.707 332.962 343.98 327.005C357.41 302.591 371.847 292.942 392.202 287.237C415.2 280.735 420.236 292.271 387.627 307.834C398.707 305.149 413.563 304.185 417.256 308.296C422.754 314.42 403.113 318.238 393.67 319.58C409.576 318.657 423.51 319.286 421.705 324.572Z" fill="#F5793B"/>
<path d="M119.285 411.994C119.159 411.994 119.033 411.994 118.866 411.952C118.068 411.742 117.648 410.903 117.858 410.148C131.792 361.067 156.259 326.501 170.864 305.862C175.396 299.444 179.006 294.368 180.726 290.97C182.027 288.369 186.224 255.188 184.545 232.703C178.25 234.968 167.422 236.73 161.673 230.48C158.064 226.578 157.77 221.335 160.917 216.846C164.233 212.106 171.367 208.582 178.082 211.393C178.838 211.686 179.173 212.567 178.88 213.322C178.586 214.077 177.705 214.413 176.949 214.119C171.661 211.896 165.953 214.749 163.31 218.524C162.176 220.118 159.994 224.313 163.813 228.466C168.681 233.752 179.299 231.822 185.259 229.221C185.678 229.053 186.182 229.053 186.602 229.305C187.021 229.557 187.273 229.976 187.315 230.438C189.288 251.832 185.343 288.327 183.37 292.271C181.566 295.878 177.914 300.996 173.298 307.54C158.777 328.011 134.52 362.326 120.712 410.903C120.502 411.574 119.915 411.994 119.285 411.994Z" fill="#202D37"/>
<path d="M167.296 225.11C166.708 225.11 166.163 224.775 165.953 224.187C165.659 223.432 166.037 222.593 166.75 222.258C172.332 220.034 175.689 220.034 177.326 220.034C178.123 220.034 178.795 220.706 178.795 221.503C178.795 222.3 178.123 222.971 177.326 222.971C175.773 222.971 172.877 222.971 167.841 224.984C167.631 225.068 167.464 225.11 167.296 225.11Z" fill="#202D37"/>
<path d="M214.678 216.846C213.712 216.846 212.873 216.049 212.873 215.043V210.47C212.873 209.505 213.67 208.666 214.678 208.666C215.643 208.666 216.482 209.463 216.482 210.47V215.043C216.482 216.007 215.685 216.846 214.678 216.846Z" fill="#202D37"/>
<path d="M229.912 211.477C228.947 211.477 228.107 210.68 228.107 209.673V205.143C228.107 204.178 228.905 203.339 229.912 203.339C230.877 203.339 231.716 204.136 231.716 205.143V209.715C231.716 210.68 230.919 211.477 229.912 211.477Z" fill="#202D37"/>
<path d="M215.265 235.765C215.223 235.765 215.265 235.765 215.265 235.765C208.047 235.598 202.717 230.983 201.29 223.642C201.122 222.845 201.668 222.09 202.465 221.922C203.263 221.754 204.018 222.3 204.186 223.097C205.361 229.096 209.516 232.703 215.307 232.829C216.105 232.829 216.776 233.5 216.734 234.339C216.734 235.136 216.063 235.765 215.265 235.765Z" fill="#202D37"/>
<path d="M299.075 414.553C298.404 414.553 297.774 414.091 297.648 413.378C282.582 340.009 263.025 311.4 245.944 293.152C245.776 292.984 245.65 292.774 245.608 292.523C245.44 291.935 245.02 290.341 245.608 259.257C245.734 251.203 245.944 243.4 246.028 238.24C246.112 235.388 246.154 233.039 246.196 231.361C246.237 230.228 246.237 229.515 246.279 229.012C246.279 228.928 246.279 228.886 246.279 228.802H246.321C246.405 228.047 246.531 227.921 246.825 227.669C247.035 227.501 247.287 227.376 247.538 227.334C249.931 226.579 269.068 218.273 273.181 215.504C269.026 211.896 246.951 198.934 223.491 186.937C222.777 186.559 222.484 185.678 222.861 184.965C223.239 184.252 224.12 183.958 224.834 184.336C236.543 190.293 249.511 197.424 259.625 203.339C276.79 213.407 276.706 214.665 276.622 215.756C276.538 216.846 276.454 217.853 262.227 224.313C262.101 224.355 252.994 228.466 249.259 229.851C249.049 237.695 247.916 286.188 248.504 291.474C265.836 310.057 285.519 339.128 300.628 412.791C300.796 413.588 300.292 414.343 299.495 414.511C299.285 414.553 299.201 414.553 299.075 414.553Z" fill="#202D37"/>
<path d="M224.246 315.469C220.721 315.469 215.013 313.749 208.508 310.645C202.339 307.75 192.602 302.255 181.103 292.732C180.474 292.229 180.39 291.306 180.893 290.677C181.397 290.048 182.32 289.964 182.95 290.467C203.43 307.457 220.469 313.162 225.044 312.448C228.611 311.903 239.69 299.151 245.86 291.222C246.363 290.593 247.287 290.467 247.916 290.97C248.546 291.474 248.672 292.397 248.168 293.026C245.398 296.592 231.255 314.462 225.505 315.343C225.128 315.469 224.666 315.469 224.246 315.469Z" fill="#202D37"/>
<path d="M234.823 339.883C236.422 339.883 237.718 338.588 237.718 336.989C237.718 335.39 236.422 334.094 234.823 334.094C233.223 334.094 231.927 335.39 231.927 336.989C231.927 338.588 233.223 339.883 234.823 339.883Z" fill="#202D37"/>
<path d="M235.368 368.367C235.368 369.541 236.585 370.548 238.096 370.548C239.607 370.548 240.824 369.583 240.824 368.367C240.824 367.15 239.607 366.185 238.096 366.185C236.585 366.185 235.368 367.15 235.368 368.367Z" fill="#202D37"/>
<path d="M238.683 401.213C237.634 401.8 237.424 403.352 238.18 404.653C238.935 405.953 240.362 406.499 241.411 405.911C242.46 405.324 242.67 403.772 241.915 402.471C241.159 401.171 239.733 400.626 238.683 401.213Z" fill="#202D37"/>
<path d="M195.162 330.529C194.449 330.529 193.735 330.403 193.064 330.151C188.405 328.473 186.055 321.342 183.076 312.365C182.278 310.015 181.481 307.582 180.599 305.107C180.306 304.352 180.725 303.513 181.481 303.22C182.236 302.926 183.076 303.346 183.369 304.101C184.293 306.618 185.09 309.051 185.887 311.442C188.489 319.328 190.756 326.166 194.071 327.382C195.246 327.802 196.631 327.508 198.352 326.459C203.766 323.104 210.313 317.315 210.397 317.231C210.984 316.685 211.949 316.727 212.453 317.357C212.999 317.944 212.957 318.909 212.327 319.412C212.033 319.664 205.528 325.453 199.863 328.934C198.268 329.983 196.673 330.529 195.162 330.529Z" fill="#202D37"/>
<path d="M252.491 323.103C250.057 323.103 245.524 321.803 236.165 316.349C235.452 315.93 235.242 315.049 235.62 314.336C236.039 313.623 236.921 313.413 237.634 313.791C249.805 320.88 252.784 320.251 253.246 320.041C253.372 319.999 253.414 319.957 253.414 319.831C254.379 316.014 255.68 304.058 255.68 303.933C255.764 303.136 256.478 302.548 257.317 302.632C258.114 302.716 258.702 303.429 258.618 304.268C258.576 304.772 257.275 316.559 256.268 320.544C256.016 321.593 255.345 322.348 254.379 322.768C253.918 322.977 253.33 323.103 252.491 323.103Z" fill="#202D37"/>
<path d="M233.27 414.553C233.228 414.553 233.228 414.553 233.186 414.553C232.389 414.511 231.759 413.84 231.801 413.001C232.053 408.47 232.137 396.011 229.828 392.655C227.143 388.796 225.464 382.462 228.821 376.379C231.759 371.135 229.828 365.221 227.562 360.103C224.834 353.978 225.128 338.121 226.303 325.327C226.387 324.53 227.101 323.943 227.898 323.985C228.695 324.068 229.283 324.782 229.241 325.579C227.814 341.184 228.192 354.272 230.248 358.886C232.808 364.633 234.907 371.387 231.381 377.763C228.653 382.671 230.038 387.789 232.221 390.935C235.536 395.718 234.823 411.323 234.739 413.085C234.697 413.965 234.025 414.553 233.27 414.553Z" fill="#202D37"/>
<path d="M308.77 405.03C308.56 405.03 308.392 404.988 308.182 404.904C307.427 404.569 307.091 403.73 307.427 402.975C310.281 396.305 314.352 388.712 318.338 382.671C323.207 375.33 325.893 373.233 327.445 372.646C328.663 367.066 334.496 341.142 342.722 326.25C357.117 300.074 372.771 291.138 391.824 285.769C402.82 282.665 410.374 283.378 411.969 287.657C413.983 293.026 405.128 301.038 388.299 309.135C387.585 309.47 386.704 309.177 386.326 308.463C385.991 307.75 386.284 306.869 386.998 306.492C404.96 297.892 410.122 291.138 409.199 288.705C408.569 287.027 403.491 285.517 392.58 288.621C374.24 293.781 359.173 302.423 345.282 327.676C336.469 343.701 330.173 373.988 330.131 374.282C329.964 375.037 329.25 375.54 328.495 375.456C327.865 375.582 325.305 377.428 320.479 384.853C316.702 390.684 312.841 397.899 310.155 404.149C309.861 404.695 309.357 405.03 308.77 405.03Z" fill="#202D37"/>
<path d="M358.754 388.67C358.628 388.67 358.544 388.67 358.418 388.628C337.434 383.552 328.117 375.414 327.74 375.079C327.152 374.533 327.068 373.61 327.614 373.023C328.159 372.436 329.083 372.352 329.67 372.897C329.796 373.023 338.945 380.909 359.09 385.776C359.887 385.985 360.349 386.74 360.181 387.537C360.013 388.251 359.383 388.67 358.754 388.67Z" fill="#202D37"/>
<path d="M367.399 414.553C367.273 414.553 367.147 414.553 367.021 414.511C366.224 414.301 365.762 413.504 365.972 412.707C369.623 399.241 368.574 396.64 366.475 393.201C363.454 388.334 363.832 384.098 365.342 378.854C366.475 374.995 368.112 370.212 368.952 367.779C363.79 366.479 347.548 361.613 334.37 349.448C333.782 348.902 333.741 347.979 334.286 347.392C334.832 346.805 335.755 346.763 336.343 347.308C351.283 361.109 370.966 365.262 371.134 365.304C371.554 365.388 371.931 365.64 372.099 366.017C372.309 366.395 372.351 366.815 372.183 367.234C372.141 367.318 369.623 374.407 368.07 379.693C366.475 385.104 366.685 388.125 368.868 391.648C371.847 396.515 372.267 400.332 368.7 413.462C368.616 414.133 368.028 414.553 367.399 414.553Z" fill="#202D37"/>
<path d="M366.224 366.982C366.14 366.982 366.014 366.982 365.93 366.94C365.132 366.773 364.629 365.976 364.797 365.22C365.048 364.046 365.594 362.284 366.182 360.732C367.147 358.131 367.776 357.292 368.742 357.166C370.252 356.998 383.304 355.027 389.474 342.316C389.726 341.813 390.229 341.477 390.817 341.477C397.699 341.603 409.618 340.848 412.262 338.289C412.598 337.954 412.598 337.744 412.598 337.66C412.598 337.576 412.598 337.366 412.262 337.073C409.576 334.472 396.944 333.884 389.6 334.094C388.802 334.094 388.131 333.465 388.089 332.668C388.047 331.871 388.718 331.2 389.516 331.158C391.572 331.074 409.87 330.612 414.319 334.933C415.326 335.898 415.536 336.947 415.536 337.618C415.536 338.289 415.326 339.338 414.319 340.303C410.374 344.162 395.853 344.372 391.698 344.33C385.235 356.705 372.771 359.39 369.707 359.893C369.161 360.9 368.112 363.836 367.692 365.724C367.525 366.521 366.937 366.982 366.224 366.982Z" fill="#202D37"/>
<path d="M389.306 336.444C389.181 336.444 389.055 336.444 388.929 336.402C388.131 336.192 387.67 335.395 387.879 334.598C388.467 332.291 388.299 321.048 385.823 312.658C385.613 311.861 386.033 311.064 386.83 310.855C387.586 310.645 388.425 311.064 388.635 311.861C391.153 320.335 391.489 332.333 390.733 335.353C390.523 336.024 389.936 336.444 389.306 336.444Z" fill="#202D37"/>
<path d="M388.844 321.551C388.718 321.551 388.634 321.551 388.592 321.551C387.963 321.425 387.501 320.922 387.417 320.293C387.291 319.496 387.879 318.741 388.676 318.615C388.802 318.615 388.886 318.615 389.012 318.615C389.893 318.573 396.147 317.86 402.862 316.433C414.487 313.916 416.417 311.441 416.711 310.728C416.795 310.519 417.005 310.099 416.207 309.26C412.808 305.485 395.139 306.827 383.598 310.477C382.843 310.728 382.003 310.309 381.752 309.512C381.5 308.757 381.92 307.918 382.717 307.666C392.789 304.436 413.312 301.583 418.432 307.288C420.362 309.47 419.775 311.358 419.229 312.28C418.641 313.329 416.879 316.475 402.736 319.454C397.196 320.628 390.397 321.551 388.844 321.551ZM390.271 319.663C390.271 319.705 390.313 319.789 390.313 319.873C390.271 319.789 390.271 319.747 390.271 319.663ZM389.096 318.657C389.222 318.699 389.348 318.741 389.474 318.783C389.39 318.699 389.222 318.657 389.096 318.657Z" fill="#202D37"/>
<path d="M389.558 333.129C388.803 333.129 388.131 332.542 388.089 331.745C388.047 330.948 388.677 330.235 389.474 330.193C389.558 330.193 397.112 329.731 404.792 328.641C419.355 326.543 420.32 324.194 420.32 324.11C420.488 323.649 420.362 323.439 420.237 323.271C419.439 322.223 415.242 319.873 393.713 321.048C392.915 321.09 392.202 320.461 392.16 319.664C392.118 318.867 392.748 318.153 393.545 318.112C416.292 316.853 420.992 319.454 422.587 321.509C423.384 322.558 423.552 323.775 423.09 325.075C422.419 327.005 419.817 329.48 405.17 331.577C397.406 332.71 389.726 333.171 389.642 333.171C389.642 333.129 389.6 333.129 389.558 333.129Z" fill="#202D37"/>
<path d="M366.224 354.44C365.762 354.44 365.301 354.23 365.007 353.81C364.545 353.139 364.713 352.216 365.385 351.755C370.799 348.021 373.946 343.743 374.702 339.002C375.709 332.752 372.477 326.837 369.582 323.02C369.33 322.684 369.246 322.223 369.33 321.845C369.414 321.426 369.707 321.09 370.043 320.88C374.702 318.363 381.92 312.952 381.584 309.26C381.542 308.841 381.207 308.505 380.535 308.254C376.968 306.743 367.441 308.254 358.754 315.133C358.124 315.637 357.201 315.511 356.697 314.882C356.194 314.252 356.32 313.329 356.949 312.826C366.014 305.653 376.842 303.471 381.71 305.527C383.389 306.24 384.396 307.457 384.522 309.009C385.026 314.714 376.506 320.461 372.897 322.642C375.835 326.921 378.689 333.004 377.597 339.548C376.716 345.085 373.149 350.035 367.022 354.23C366.812 354.356 366.518 354.44 366.224 354.44Z" fill="#202D37"/>
<path d="M475.928 259.928C462.918 259.593 455.909 253.678 455.7 248.057C455.532 243.149 460.484 237.36 474.921 235.891C475.592 235.807 476.222 235.766 476.893 235.724C477.691 235.64 478.404 236.269 478.488 237.066C478.572 237.863 477.943 238.576 477.145 238.66C476.516 238.702 475.886 238.744 475.257 238.828C462.834 240.086 458.553 244.533 458.679 247.973C458.847 252.126 464.974 256.74 476.012 257.034C476.809 257.076 477.481 257.747 477.439 258.544C477.397 259.299 476.725 259.928 475.928 259.928Z" fill="#202D37"/>
<path d="M595.998 272.261C586.22 272.261 577.323 271.338 569.349 269.451C558.185 266.808 552.016 263.032 549.414 261.396C549.204 261.271 549.036 261.187 548.868 261.061C534.683 252.545 519.323 243.904 501.277 240.212C500.479 240.044 499.976 239.289 500.144 238.492C500.311 237.695 501.067 237.192 501.864 237.36C520.372 241.177 535.984 249.944 550.379 258.586C550.547 258.67 550.715 258.796 550.925 258.921C566.537 268.528 589.325 271.506 618.619 267.815C619.416 267.731 620.172 268.276 620.256 269.073C620.34 269.87 619.794 270.625 618.997 270.709C610.897 271.758 603.217 272.261 595.998 272.261Z" fill="#202D37"/>
<path d="M477.019 237.192C477.984 239.625 477.984 241.806 477.858 245.162L476.893 245.372C484.279 248.644 495.107 247.008 495.107 247.008C497.709 246.337 500.101 245.875 501.78 245.582C501.78 245.582 501.108 242.729 501.57 238.786C501.906 235.891 502.829 232.41 505.095 229.054C509.124 223.097 511.223 218.063 509.292 212.903C506.228 204.723 478.53 199.983 466.863 212.148C463.673 215.504 465.645 222.803 473.787 231.78C475.592 233.794 476.389 235.64 477.019 237.192Z" fill="#06D188"/>
<path d="M483.483 278.092C479.915 278.092 475.383 276.959 470.053 274.191C459.687 268.821 457.588 263.871 457.63 260.683C457.672 257.914 459.435 255.523 462.457 254.139C463.212 253.803 464.051 254.139 464.387 254.852C464.723 255.607 464.387 256.446 463.674 256.782C462.541 257.327 460.61 258.544 460.568 260.725C460.526 262.277 461.533 266.43 471.396 271.548C481.342 276.708 487.763 275.659 489.526 272.513C490.701 270.415 489.694 266.934 485.455 264.417C484.742 263.997 484.532 263.116 484.951 262.403C485.371 261.69 486.252 261.48 486.966 261.9C492.799 265.381 493.975 270.583 492.086 273.939C490.743 276.456 487.805 278.092 483.483 278.092Z" fill="#202D37"/>
<path d="M481.677 286.985C475.172 286.985 465.52 284.007 461.91 280.735C459.728 278.763 458.763 276.037 459.308 273.478C459.854 270.877 461.743 268.863 464.513 267.94C465.268 267.689 466.107 268.108 466.359 268.863C466.611 269.618 466.233 270.457 465.436 270.709C463.673 271.296 462.498 272.555 462.162 274.065C461.827 275.659 462.456 277.295 463.883 278.553C467.282 281.658 477.313 284.51 482.978 284.007C484.993 283.839 485.748 282.371 486 281.196C486.336 279.518 485.79 278.05 485.454 277.882C484.657 277.715 484.195 276.917 484.363 276.12C484.531 275.323 485.329 274.82 486.126 275.03C488.266 275.491 489.19 278.218 489.022 280.693C488.77 284.217 486.504 286.65 483.23 286.943C482.727 286.985 482.223 286.985 481.677 286.985Z" fill="#202D37"/>
<path d="M479.663 297.599C476.431 297.599 472.738 296.843 469.213 295.249C463.883 292.858 460.945 289.838 460.987 286.692C461.029 285.265 461.742 282.581 466.317 280.693C467.072 280.399 467.912 280.735 468.247 281.49C468.541 282.245 468.206 283.084 467.45 283.42C465.226 284.343 463.967 285.517 463.925 286.734C463.925 288.16 465.603 290.425 470.388 292.565C477.522 295.753 484.447 295.04 486.21 292.439C487.175 290.971 486.252 288.705 483.65 286.146C483.062 285.601 483.062 284.636 483.608 284.091C484.153 283.504 485.119 283.504 485.664 284.049C490.784 288.999 489.735 292.481 488.644 294.075C487.091 296.382 483.692 297.599 479.663 297.599Z" fill="#202D37"/>
<path d="M525.953 292.523C525.912 292.523 525.828 292.523 525.786 292.523C507.698 290.509 498.968 282.245 496.954 265.088C492.001 265.256 479.033 265.256 475.928 260.767C475.298 259.886 474.795 258.418 475.634 256.446C479.663 247.26 501.696 244.029 504.214 243.694C505.012 243.568 505.767 244.155 505.851 244.952C505.977 245.749 505.389 246.504 504.592 246.588C498.255 247.427 481.174 251.077 478.32 257.579C477.984 258.376 478.11 258.754 478.32 259.047C480.167 261.732 491.036 262.403 498.171 262.026C498.968 261.984 499.64 262.571 499.724 263.368C501.36 280.274 508.747 287.615 526.121 289.544C526.919 289.628 527.506 290.341 527.422 291.18C527.338 291.977 526.709 292.523 525.953 292.523Z" fill="#202D37"/>
<path d="M602.251 315.217C578.035 315.217 557.136 305.527 549.497 302.003C548.28 301.458 547.063 300.871 546.644 300.745C545.972 300.829 543.706 301.793 541.691 302.632C535.396 305.275 524.904 309.68 515.881 309.26C515.084 309.218 514.454 308.547 514.496 307.708C514.538 306.911 515.21 306.282 516.049 306.324C524.401 306.701 534.515 302.465 540.558 299.948C544.335 298.354 545.93 297.724 546.979 297.85C547.567 297.934 548.322 298.27 550.714 299.36C559.486 303.429 586.135 315.763 614.715 311.358C615.513 311.232 616.268 311.777 616.394 312.574C616.52 313.371 615.974 314.126 615.177 314.252C610.812 314.924 606.49 315.217 602.251 315.217Z" fill="#202D37"/>
<path d="M488.812 248.895C484.489 248.895 478.823 248.308 474.585 245.875C473.871 245.456 473.661 244.575 474.039 243.862C474.459 243.148 475.34 242.939 476.054 243.316C482.852 247.301 494.729 245.582 494.855 245.54C495.653 245.414 496.408 245.959 496.534 246.756C496.66 247.553 496.114 248.308 495.317 248.434C495.107 248.476 492.421 248.895 488.812 248.895Z" fill="#202D37"/>
<path d="M489.61 221.209C488.225 221.209 486.714 221.125 485.077 220.999C479.957 220.538 476.138 219.154 473.368 216.805C472.738 216.259 472.655 215.336 473.2 214.749C473.746 214.12 474.669 214.036 475.257 214.581C477.523 216.511 480.838 217.643 485.329 218.063C494.31 218.902 499.388 217.014 502.745 215.252C503.459 214.875 504.34 215.168 504.718 215.882C505.096 216.595 504.802 217.476 504.088 217.853C501.025 219.489 496.618 221.209 489.61 221.209Z" fill="#202D37"/>
<path d="M507.823 381.581C507.823 384.307 507.235 386.531 506.06 388.25C504.885 389.97 502.997 391.187 500.395 391.942V399.115C500.395 399.325 500.311 399.493 500.185 399.661C500.059 399.786 499.849 399.87 499.639 399.87H490.154C489.945 399.87 489.777 399.786 489.609 399.661C489.483 399.535 489.399 399.325 489.399 399.115V392.739C487.636 392.655 486 392.529 484.573 392.361C484.405 392.32 484.237 392.236 484.111 392.068C483.985 391.9 483.901 391.732 483.901 391.523L484.657 383.888C484.699 383.636 484.783 383.468 484.95 383.342C485.118 383.217 485.328 383.175 485.58 383.217C486.167 383.342 486.755 383.468 487.385 383.552C488.014 383.636 488.811 383.762 489.777 383.888C490.742 384.014 491.665 384.056 492.505 384.056C493.428 384.097 494.183 383.972 494.855 383.72C495.484 383.468 495.946 383.175 496.198 382.797C496.45 382.42 496.659 382.084 496.743 381.79C496.827 381.497 496.911 381.203 496.911 380.993C496.911 380.742 496.869 380.448 496.743 380.112C496.659 379.819 496.45 379.399 496.156 378.938C495.862 378.476 495.316 378.015 494.603 377.553C493.848 377.092 492.966 376.756 491.875 376.505C490.658 376.211 489.483 375.75 488.35 375.036C487.217 374.365 486.167 373.526 485.202 372.478C484.237 371.471 483.44 370.17 482.852 368.66C482.264 367.15 481.971 365.472 481.971 363.71C481.971 361.193 482.6 359.096 483.901 357.376C485.202 355.656 487.007 354.398 489.441 353.559V346.175C489.441 345.966 489.525 345.798 489.651 345.63C489.777 345.462 489.987 345.378 490.196 345.378H499.681C499.891 345.378 500.059 345.462 500.227 345.63C500.395 345.798 500.479 345.966 500.479 346.175V352.552C502.157 352.636 503.836 352.761 505.515 352.929C505.683 352.971 505.85 353.055 506.018 353.223C506.144 353.391 506.228 353.559 506.186 353.768L505.431 361.403C505.389 361.613 505.305 361.781 505.137 361.948C504.969 362.074 504.759 362.158 504.549 362.074C501.905 361.487 499.513 361.193 497.373 361.193C496.492 361.151 495.736 361.277 495.065 361.529C494.435 361.781 493.974 362.116 493.68 362.494C493.386 362.871 493.218 363.207 493.092 363.5C493.008 363.794 492.924 364.046 492.924 364.339C492.924 364.591 492.966 364.843 493.092 365.178C493.176 365.472 493.386 365.892 493.722 366.353C494.015 366.814 494.561 367.276 495.316 367.737C496.072 368.199 496.953 368.534 498.044 368.786C499.261 369.08 500.437 369.583 501.57 370.254C502.703 370.925 503.752 371.764 504.717 372.813C505.683 373.862 506.438 375.12 507.026 376.631C507.529 378.183 507.823 379.819 507.823 381.581Z" fill="#202D37"/>
<path d="M499.639 401.339H490.154C489.566 401.339 489.021 401.129 488.601 400.709C488.182 400.29 487.972 399.744 487.972 399.157V394.165C486.713 394.081 485.538 393.956 484.446 393.83C483.859 393.746 483.397 393.494 483.02 393.033C482.684 392.613 482.474 392.11 482.474 391.564C482.474 391.522 482.474 391.48 482.474 391.439L483.229 383.804C483.313 383.133 483.649 382.587 484.153 382.21C484.656 381.832 485.328 381.706 485.957 381.832C486.503 381.958 487.09 382.084 487.678 382.168C488.265 382.252 489.063 382.378 489.986 382.503C490.909 382.629 491.749 382.671 492.546 382.671C493.302 382.671 493.889 382.629 494.351 382.419C494.854 382.21 494.98 382.042 495.022 382C495.232 381.664 495.358 381.455 495.4 381.329C495.484 381.119 495.484 381.035 495.484 380.993C495.484 380.951 495.484 380.825 495.4 380.574C495.358 380.448 495.274 380.196 494.938 379.735C494.854 379.567 494.561 379.273 493.847 378.854C493.218 378.476 492.462 378.183 491.539 377.973C490.196 377.637 488.853 377.092 487.594 376.337C486.377 375.582 485.202 374.659 484.153 373.526C483.061 372.352 482.18 370.925 481.509 369.205C480.879 367.528 480.543 365.682 480.543 363.71C480.543 360.9 481.299 358.467 482.768 356.495C484.027 354.817 485.789 353.475 488.014 352.552V346.175C488.014 345.588 488.223 345.085 488.601 344.623C489.021 344.162 489.608 343.91 490.196 343.91H499.681C500.268 343.91 500.856 344.162 501.276 344.581C501.695 345.001 501.947 345.588 501.947 346.175V351.167C503.206 351.251 504.423 351.335 505.64 351.503H505.682C506.186 351.587 506.689 351.839 507.025 352.258C507.445 352.719 507.655 353.349 507.571 353.978L506.815 361.571V361.613C506.731 362.2 506.438 362.745 505.934 363.123C505.388 363.542 504.759 363.668 504.129 363.542C501.611 362.997 499.303 362.703 497.247 362.661C496.533 362.661 495.946 362.703 495.484 362.913C494.98 363.123 494.812 363.291 494.771 363.333C494.519 363.71 494.393 363.92 494.393 364.004C494.351 364.13 494.309 364.256 494.309 364.339C494.309 364.339 494.309 364.465 494.393 364.717C494.435 364.801 494.519 365.053 494.854 365.556C494.98 365.724 495.232 366.059 495.988 366.479C496.617 366.856 497.373 367.15 498.296 367.36C499.639 367.695 500.94 368.241 502.199 368.996C503.458 369.709 504.633 370.674 505.682 371.806C506.773 372.981 507.655 374.407 508.284 376.127C508.914 377.805 509.249 379.651 509.249 381.58C509.249 384.601 508.578 387.16 507.193 389.089C505.976 390.809 504.171 392.152 501.779 393.033V399.157C501.779 399.744 501.569 400.29 501.15 400.709C500.772 401.129 500.226 401.339 499.639 401.339ZM490.867 398.402H498.925V391.942C498.925 391.271 499.345 390.725 499.975 390.516C502.199 389.845 503.878 388.796 504.843 387.369C505.85 385.901 506.354 383.972 506.354 381.539C506.354 379.944 506.102 378.476 505.598 377.134C505.095 375.792 504.423 374.701 503.584 373.778C502.702 372.855 501.779 372.1 500.772 371.513C499.765 370.925 498.715 370.464 497.624 370.212C496.449 369.919 495.4 369.499 494.519 368.996C493.595 368.45 492.924 367.821 492.462 367.192C492.085 366.605 491.791 366.101 491.665 365.682C491.497 365.22 491.413 364.801 491.413 364.381C491.413 363.962 491.497 363.5 491.665 363.039C491.833 362.619 492.043 362.2 492.42 361.697C492.882 361.067 493.553 360.564 494.477 360.228C495.316 359.893 496.281 359.767 497.331 359.809C499.303 359.851 501.569 360.103 503.961 360.564L504.549 354.439C503.164 354.314 501.737 354.188 500.31 354.146C499.513 354.104 498.925 353.475 498.925 352.678V346.931H490.867V353.6C490.867 354.23 490.49 354.775 489.902 354.985C487.804 355.74 486.167 356.83 485.076 358.299C483.985 359.767 483.439 361.529 483.439 363.752C483.439 365.346 483.691 366.814 484.237 368.199C484.74 369.541 485.454 370.674 486.251 371.555C487.132 372.478 488.056 373.233 489.063 373.862C490.028 374.449 491.077 374.869 492.168 375.12C493.386 375.414 494.435 375.833 495.316 376.337C496.281 376.924 496.953 377.511 497.373 378.183C497.75 378.77 498.002 379.231 498.128 379.693C498.296 380.154 498.38 380.616 498.38 381.035C498.38 381.455 498.296 381.874 498.128 382.336C497.96 382.755 497.75 383.217 497.414 383.72C496.995 384.349 496.281 384.853 495.4 385.188C494.561 385.524 493.595 385.65 492.504 385.608C491.665 385.608 490.7 385.524 489.65 385.44C488.643 385.314 487.804 385.188 487.174 385.104C486.797 385.062 486.461 384.978 486.083 384.894L485.496 391.061C486.713 391.187 488.056 391.313 489.525 391.355C490.322 391.397 490.909 392.026 490.909 392.823V398.402H490.867ZM504.633 353.684C504.633 353.726 504.633 353.726 504.633 353.684V353.684Z" fill="#202D37"/>
<path d="M424.307 219.573C424.097 219.573 423.887 219.531 423.677 219.405C422.964 219.07 422.628 218.189 423.006 217.434C423.174 217.098 438.996 184.462 444.242 173.177C444.577 172.422 445.459 172.129 446.172 172.464C446.928 172.8 447.221 173.681 446.886 174.394C441.64 185.72 425.818 218.357 425.65 218.692C425.356 219.28 424.853 219.573 424.307 219.573Z" fill="#202D37"/>
<path d="M441.263 215.168C440.675 215.168 440.046 215.085 439.458 214.917C437.612 214.371 436.143 212.987 435.303 211.057C434.506 209.212 434.422 207.114 435.052 205.059C436.353 200.78 440.423 198.179 444.159 199.312C446.005 199.857 447.474 201.241 448.313 203.171C449.111 205.017 449.195 207.114 448.565 209.17C447.516 212.777 444.452 215.168 441.263 215.168ZM442.354 201.996C440.465 201.996 438.577 203.59 437.863 205.94C437.444 207.324 437.486 208.708 438.031 209.925C438.493 211.015 439.332 211.812 440.339 212.106C442.522 212.777 444.956 211.057 445.795 208.331C446.215 206.946 446.173 205.562 445.627 204.346C445.166 203.255 444.326 202.458 443.319 202.164C443.025 202.038 442.69 201.996 442.354 201.996Z" fill="#202D37"/>
<path d="M424.014 194.362C422.922 194.362 421.831 194.11 420.824 193.523C419.145 192.558 418.012 190.88 417.634 188.824C417.299 186.853 417.676 184.755 418.726 182.909C420.95 179.008 425.566 177.456 428.924 179.386C432.323 181.315 433.247 186.098 430.98 189.957C429.469 192.768 426.7 194.362 424.014 194.362ZM425.776 181.525C424.139 181.525 422.377 182.616 421.328 184.42C420.614 185.678 420.32 187.062 420.572 188.321C420.782 189.495 421.412 190.46 422.335 190.964C424.307 192.096 427.077 191.006 428.504 188.531C429.931 186.056 429.511 183.119 427.539 181.945C426.993 181.651 426.406 181.525 425.776 181.525Z" fill="#202D37"/>
<path d="M407.688 218.398C406.849 218.398 406.219 217.727 406.219 216.93C406.219 216.427 406.303 204.849 406.975 200.948C407.1 200.151 407.856 199.605 408.653 199.731C409.451 199.857 409.996 200.612 409.87 201.409C409.241 205.059 409.157 216.804 409.157 216.93C409.157 217.727 408.485 218.398 407.688 218.398Z" fill="#202D37"/>
<path d="M402.568 207.953C401.813 207.953 401.183 207.366 401.099 206.611C401.015 205.814 401.645 205.101 402.442 205.017C405.758 204.723 413.564 205.017 413.899 205.017C414.697 205.059 415.326 205.73 415.326 206.527C415.284 207.324 414.655 207.953 413.815 207.953C413.732 207.953 405.842 207.66 402.694 207.953C402.652 207.953 402.61 207.953 402.568 207.953Z" fill="#202D37"/>
<path d="M651.27 449.832C651.228 449.832 651.186 449.832 651.144 449.832C650.347 449.748 649.759 449.035 649.843 448.238C662.559 317.776 663.273 155.936 656.432 143.1C653.704 138.024 632.888 130.347 602 123.006C573.923 116.336 544.378 111.596 530.235 111.428C529.437 111.428 528.766 110.757 528.766 109.96C528.766 109.163 529.437 108.492 530.235 108.492C544.588 108.659 574.385 113.442 602.629 120.153C621.808 124.684 654.585 133.535 658.95 141.715C663.357 149.979 664.07 204.723 663.273 253.216C662.182 319.706 658.32 390.893 652.697 448.531C652.655 449.245 652.025 449.832 651.27 449.832Z" fill="#202D37"/>
<path d="M219.672 186.727C229.912 196.878 243.216 177.875 228.947 178.211C238.222 164.787 218.581 157.404 214.678 167.136C211.908 161.389 200.619 163.361 202.13 169.989C194.701 162.732 181.314 170.492 183.58 180.686C170.108 177.833 158.693 195.284 172.668 199.941C168.639 202.122 168.262 210.47 175.69 212.148C178.963 212.903 181.355 215.63 182.489 218.147C183.999 221.419 188.784 224.229 189.833 217.643C190.882 211.057 193.82 210.302 195.247 209.253C196.674 208.205 198.017 201.703 195.247 199.353C199.15 200.402 205.067 197.55 204.522 191.047C208.131 194.026 216.902 193.522 219.672 186.727Z" fill="#202D37"/>
<path d="M186.811 223.097C184.419 223.097 182.153 220.957 181.145 218.734C180.18 216.637 178.166 214.203 175.354 213.574C171.493 212.693 168.891 210.051 168.429 206.443C168.135 204.178 168.723 201.954 169.94 200.36C165.072 197.801 164.19 193.397 165.156 189.873C166.792 183.832 173.843 178.253 181.859 178.924C181.649 174.268 184.167 169.905 188.7 167.388C192.729 165.165 197.219 165.123 200.786 167.095C201.374 165.165 202.927 163.613 205.235 162.816C208.299 161.767 212.16 162.187 214.552 164.452C216.021 162.564 218.287 161.431 220.973 161.222C225.254 160.928 229.66 163.193 231.675 166.717C232.682 168.521 233.857 172.087 231.465 176.869C234.99 177.456 236.123 179.386 236.501 180.686C237.34 183.664 235.242 187.566 231.633 189.705C227.856 191.928 223.701 191.677 220.176 189.034C218.665 191.425 216.273 193.103 213.293 193.858C210.733 194.487 208.089 194.32 205.948 193.481C205.613 195.62 204.564 197.466 202.885 198.85C201.5 200.025 199.737 200.738 197.975 200.948C198.268 201.912 198.394 203.003 198.352 204.22C198.268 206.485 197.555 209.379 196.128 210.428C195.876 210.638 195.582 210.806 195.289 210.973C193.862 211.854 192.099 212.945 191.302 217.853C190.63 222.006 188.574 222.929 187.357 223.055C187.189 223.097 187.021 223.097 186.811 223.097ZM180.684 181.819C174.682 181.819 169.31 186.056 168.051 190.67C167.044 194.32 168.891 197.088 173.172 198.556C173.717 198.724 174.137 199.228 174.179 199.815C174.221 200.402 173.927 200.948 173.423 201.241C171.954 202.038 171.115 204.052 171.409 206.107C171.745 208.456 173.423 210.134 176.067 210.764C180.894 211.854 183.286 216.259 183.873 217.559C184.629 219.195 186.182 220.286 187.021 220.202C187.65 220.118 188.196 219.07 188.448 217.434C189.455 211.141 192.183 209.463 193.82 208.498C194.072 208.331 194.281 208.205 194.449 208.121C194.785 207.827 195.54 205.898 195.456 203.632C195.414 202.206 195.037 201.073 194.365 200.528C193.82 200.067 193.694 199.353 193.988 198.724C194.323 198.095 194.995 197.801 195.666 197.969C197.387 198.431 199.527 197.885 200.996 196.669C202.087 195.746 203.346 194.068 203.095 191.215C203.053 190.628 203.346 190.083 203.892 189.789C204.438 189.537 205.067 189.579 205.529 189.957C207.082 191.257 209.977 191.719 212.579 191.048C214.174 190.67 217.028 189.495 218.371 186.181C218.539 185.72 218.958 185.384 219.42 185.301C219.882 185.217 220.385 185.342 220.763 185.72C224.75 189.705 228.653 188.069 230.122 187.188C232.766 185.636 234.109 182.993 233.647 181.525C233.312 180.309 231.591 179.637 228.989 179.721C228.443 179.721 227.94 179.428 227.646 178.966C227.394 178.463 227.436 177.876 227.73 177.414C230.08 173.974 230.584 170.828 229.115 168.227C227.688 165.668 224.33 163.99 221.183 164.2C219.756 164.284 217.196 164.871 216.063 167.682C215.853 168.227 215.349 168.563 214.762 168.605C214.174 168.605 213.629 168.311 213.377 167.766C212.202 165.291 208.718 164.703 206.2 165.584C205.193 165.92 202.969 167.011 203.598 169.612C203.724 170.241 203.472 170.912 202.885 171.206C202.297 171.541 201.626 171.415 201.122 170.996C197.639 167.64 193.022 168.311 190.127 169.947C187.105 171.625 183.915 175.359 185.006 180.351C185.132 180.854 184.965 181.357 184.629 181.693C184.293 182.028 183.789 182.196 183.286 182.112C182.404 181.903 181.523 181.819 180.684 181.819Z" fill="#202D37"/>
<defs>
<linearGradient id="paint0_linear_34_3423" x1="150.818" y1="135.502" x2="523.205" y2="442.094" gradientUnits="userSpaceOnUse">
<stop stop-color="#241E77"/>
<stop offset="1" stop-color="#4337DD"/>
</linearGradient>
</defs>
</svg>
