<svg width="983" height="856" viewBox="0 0 983 856" fill="none" xmlns="http://www.w3.org/2000/svg">
<mask id="mask0_138_336" style="mask-type:luminance" maskUnits="userSpaceOnUse" x="0" y="0" width="983" height="856">
<path d="M0 2.95639e-05H982.245V856H0V2.95639e-05Z" fill="white"/>
</mask>
<g mask="url(#mask0_138_336)">
<path fill-rule="evenodd" clip-rule="evenodd" d="M127.389 607.78L130.248 599.539C136.813 580.62 166.493 578.012 187.968 584.368L233.283 597.786L328.653 590.615L243.569 577.106C226.078 574.331 211.7 569.116 197.114 560.255L120.345 513.622L135.307 492.069C141.715 482.839 155.292 479.618 166.185 484.75L167.338 485.294L175.638 474.283C184.599 462.397 199.828 456.566 215.935 458.852L267.313 466.143L332.602 455.33L275.653 455.275C264.058 455.265 254.118 452.928 244.089 447.858L211.099 431.179L213.419 428.579C223.988 416.729 240.913 411.98 257.429 416.228L272.264 420.043L351.493 402.34L466.868 349.065C543.752 313.562 621.799 301.127 706.431 311.016C750.351 316.148 789.996 309.644 828.21 290.091L982.036 211.378V331.161L592.769 566.632L346.729 652.685L207.5 645.341L127.389 607.78Z" fill="#F5793B"/>
</g>
<mask id="mask1_138_336" style="mask-type:luminance" maskUnits="userSpaceOnUse" x="0" y="0" width="983" height="856">
<path d="M0 2.95639e-05H982.245V856H0V2.95639e-05Z" fill="white"/>
</mask>
<g mask="url(#mask1_138_336)">
<path fill-rule="evenodd" clip-rule="evenodd" d="M472.121 417.733C503.898 417.733 533.13 422.212 556.287 429.718H608.183V473.672C608.183 504.567 547.266 529.612 472.121 529.612C396.976 529.612 336.061 504.567 336.061 473.672V429.718H387.956C411.113 422.212 440.344 417.733 472.121 417.733Z" fill="#FFCC00"/>
</g>
<mask id="mask2_138_336" style="mask-type:luminance" maskUnits="userSpaceOnUse" x="0" y="0" width="983" height="856">
<path d="M0 2.95639e-05H982.245V856H0V2.95639e-05Z" fill="white"/>
</mask>
<g mask="url(#mask2_138_336)">
<path fill-rule="evenodd" clip-rule="evenodd" d="M472.123 485.656C547.061 485.656 608.182 460.527 608.182 429.717C608.182 398.907 547.061 373.778 472.123 373.778C397.182 373.778 336.06 398.907 336.06 429.717C336.06 460.527 397.182 485.656 472.123 485.656Z" fill="#FFF07F"/>
</g>
<mask id="mask3_138_336" style="mask-type:luminance" maskUnits="userSpaceOnUse" x="0" y="0" width="983" height="856">
<path d="M0 2.95639e-05H982.245V856H0V2.95639e-05Z" fill="white"/>
</mask>
<g mask="url(#mask3_138_336)">
<path fill-rule="evenodd" clip-rule="evenodd" d="M472.123 479.429C538.718 479.429 593.035 457.097 593.035 429.718C593.035 402.337 538.718 380.005 472.123 380.005C405.526 380.005 351.209 402.337 351.209 429.718C351.209 457.097 405.526 479.429 472.123 479.429Z" fill="#FFDD30"/>
</g>
<mask id="mask4_138_336" style="mask-type:luminance" maskUnits="userSpaceOnUse" x="0" y="0" width="983" height="856">
<path d="M0 2.95639e-05H982.245V856H0V2.95639e-05Z" fill="white"/>
</mask>
<g mask="url(#mask4_138_336)">
<path fill-rule="evenodd" clip-rule="evenodd" d="M592.589 433.968C587.346 459.434 535.417 479.43 472.121 479.43C408.826 479.43 356.898 459.434 351.654 433.968C356.898 408.502 408.826 388.506 472.123 388.506C535.417 388.506 587.346 408.502 592.589 433.968Z" fill="#FFCC00"/>
</g>
<mask id="mask5_138_336" style="mask-type:luminance" maskUnits="userSpaceOnUse" x="0" y="0" width="983" height="856">
<path d="M0 2.95639e-05H982.245V856H0V2.95639e-05Z" fill="white"/>
</mask>
<g mask="url(#mask5_138_336)">
<path fill-rule="evenodd" clip-rule="evenodd" d="M464.384 526.091L464.506 526.093L464.628 526.095L464.749 526.099L464.872 526.103L464.994 526.106L465.115 526.108L465.237 526.109L465.359 526.113L465.482 526.115L465.603 526.117L465.723 526.119L465.847 526.121L465.968 526.123L466.088 526.126H466.212L466.332 526.13L466.453 526.134H466.576L466.697 526.138H466.817L466.941 526.141L467.06 526.143H467.061L467.182 526.145L467.303 526.147L467.425 526.148L467.545 526.151L467.666 526.152H467.789L467.908 526.156H467.91H468.03L468.149 526.157L468.273 526.16L468.39 526.161H468.393L468.514 526.163H468.633L468.757 526.165L468.874 526.166H468.998L469.117 526.169L469.237 526.17H469.358L469.478 526.171H469.481L469.599 526.173H469.719H469.841L469.961 526.175L470.081 526.176H470.084H470.202H470.321H470.441H470.444L470.562 526.178H470.681L470.801 526.18H470.804H470.922H471.042H471.163H471.284H471.403H471.52H471.525H471.642L471.763 526.182H471.882H472.001H472.002H472.121H472.242H472.361H472.48L472.601 526.18H472.602H472.721H472.84H472.959H473.08H473.2H473.32H473.44H473.443L473.562 526.178H473.681L473.802 526.176H473.922H474.041H474.162L474.282 526.175L474.403 526.173H474.525H474.643L474.765 526.171L474.885 526.17H475.006L475.126 526.169L475.245 526.166H475.369L475.486 526.165H475.489L475.61 526.163H475.729H475.732L475.853 526.161L475.973 526.16L476.094 526.157L476.213 526.156H476.335L476.455 526.152H476.577L476.698 526.151L476.818 526.148L476.942 526.147L477.061 526.145L477.183 526.143L477.304 526.141H477.307L477.426 526.138H477.548L477.668 526.134H477.79L477.912 526.13L478.033 526.126H478.153L478.277 526.123L478.399 526.121L478.519 526.119L478.642 526.117L478.764 526.115L478.884 526.113L479.006 526.109L479.13 526.108L479.25 526.106L479.371 526.103L479.494 526.099L479.616 526.095L479.738 526.093L479.859 526.091V490.169C477.298 490.228 474.718 490.259 472.123 490.259C469.526 490.259 466.947 490.228 464.384 490.169V526.091ZM433.247 523.841C437.88 524.411 442.522 524.873 447.14 525.227V489.317C442.423 488.956 437.786 488.497 433.247 487.94V523.841ZM410.024 519.956C414.089 520.829 418.199 521.601 422.337 522.279V486.396C418.132 485.716 414.028 484.955 410.024 484.117V519.956ZM391.563 515.138C395.078 516.233 398.659 517.236 402.296 518.151V482.364C398.609 481.466 395.033 480.498 391.563 479.465V515.138ZM376.286 509.58C376.723 509.767 377.159 509.95 377.592 510.125C380.152 511.18 382.771 512.17 385.434 513.108V477.536C382.274 476.483 379.222 475.374 376.286 474.212V509.58ZM363.284 503.141C365.792 504.594 368.344 505.924 370.852 507.129V471.945C368.222 470.788 365.694 469.587 363.284 468.345V503.141ZM342.04 482.792C343.139 485.212 344.644 487.512 346.446 489.684V457.445C344.866 456.135 343.398 454.795 342.04 453.435V482.792ZM511.001 523.841C506.363 524.411 501.72 524.873 497.106 525.227V489.317C501.821 488.956 506.457 488.497 511.001 487.94V523.841ZM534.22 519.956C530.157 520.829 526.045 521.601 521.906 522.279V486.396C526.111 485.716 530.22 484.955 534.22 484.117V519.956ZM552.68 515.138C549.167 516.233 545.583 517.236 541.95 518.151V482.364C545.632 481.466 549.213 480.498 552.68 479.465V515.138ZM567.959 509.58C567.518 509.767 567.082 509.95 566.652 510.125C564.092 511.18 561.474 512.17 558.809 513.108V477.536C561.97 476.483 565.022 475.374 567.959 474.212V509.58ZM580.96 503.141C578.452 504.594 575.9 505.924 573.391 507.129V471.945C576.021 470.788 578.551 469.587 580.96 468.345V503.141ZM602.203 482.792C601.104 485.212 599.602 487.512 597.798 489.684V457.445C599.379 456.135 600.848 454.795 602.203 453.435V482.792ZM586.261 465.425V499.816C588.358 498.391 590.375 496.873 592.247 495.263V461.628C590.363 462.93 588.366 464.193 586.261 465.425ZM357.983 465.425V499.816C355.886 498.391 353.87 496.873 351.996 495.263V461.628C353.883 462.93 355.877 464.193 357.983 465.425Z" fill="#FFBB00"/>
</g>
<mask id="mask6_138_336" style="mask-type:luminance" maskUnits="userSpaceOnUse" x="0" y="0" width="983" height="856">
<path d="M0 2.95639e-05H982.245V856H0V2.95639e-05Z" fill="white"/>
</mask>
<g mask="url(#mask6_138_336)">
<path fill-rule="evenodd" clip-rule="evenodd" d="M398.019 438.434H546.222V422.254H398.019V438.434Z" fill="#F5A40E"/>
</g>
<mask id="mask7_138_336" style="mask-type:luminance" maskUnits="userSpaceOnUse" x="0" y="0" width="983" height="856">
<path d="M0 2.95639e-05H982.245V856H0V2.95639e-05Z" fill="white"/>
</mask>
<g mask="url(#mask7_138_336)">
<path fill-rule="evenodd" clip-rule="evenodd" d="M398.019 443.918H546.222V438.434H398.019V443.918Z" fill="#FFDD30"/>
</g>
<mask id="mask8_138_336" style="mask-type:luminance" maskUnits="userSpaceOnUse" x="0" y="0" width="983" height="856">
<path d="M0 2.95639e-05H982.245V856H0V2.95639e-05Z" fill="white"/>
</mask>
<g mask="url(#mask8_138_336)">
<path fill-rule="evenodd" clip-rule="evenodd" d="M517.433 364.535C549.21 364.535 578.44 369.015 601.599 376.521H653.493V420.475C653.493 451.369 592.577 476.415 517.433 476.415C442.288 476.415 381.371 451.369 381.371 420.475V376.521H433.266C456.423 369.015 485.654 364.535 517.433 364.535Z" fill="#FFBB00"/>
</g>
<mask id="mask9_138_336" style="mask-type:luminance" maskUnits="userSpaceOnUse" x="0" y="0" width="983" height="856">
<path d="M0 2.95639e-05H982.245V856H0V2.95639e-05Z" fill="white"/>
</mask>
<g mask="url(#mask9_138_336)">
<path fill-rule="evenodd" clip-rule="evenodd" d="M517.433 432.459C592.373 432.459 653.493 407.331 653.493 376.52C653.493 345.709 592.373 320.58 517.433 320.58C442.493 320.58 381.371 345.709 381.371 376.52C381.371 407.331 442.493 432.459 517.433 432.459Z" fill="#F5A40E"/>
</g>
<mask id="mask10_138_336" style="mask-type:luminance" maskUnits="userSpaceOnUse" x="0" y="0" width="983" height="856">
<path d="M0 2.95639e-05H982.245V856H0V2.95639e-05Z" fill="white"/>
</mask>
<g mask="url(#mask10_138_336)">
<path fill-rule="evenodd" clip-rule="evenodd" d="M517.433 426.232C584.029 426.232 638.345 403.901 638.345 376.52C638.345 349.14 584.029 326.808 517.433 326.808C450.835 326.808 396.518 349.14 396.518 376.52C396.518 403.901 450.835 426.232 517.433 426.232Z" fill="#FFDD30"/>
</g>
<mask id="mask11_138_336" style="mask-type:luminance" maskUnits="userSpaceOnUse" x="0" y="0" width="983" height="856">
<path d="M0 2.95639e-05H982.245V856H0V2.95639e-05Z" fill="white"/>
</mask>
<g mask="url(#mask11_138_336)">
<path fill-rule="evenodd" clip-rule="evenodd" d="M637.901 380.771C632.655 406.236 580.728 426.232 517.433 426.232C454.136 426.232 402.208 406.236 396.962 380.771C402.208 355.305 454.136 335.31 517.433 335.31C580.728 335.31 632.655 355.305 637.901 380.771Z" fill="#FFBB00"/>
</g>
<mask id="mask12_138_336" style="mask-type:luminance" maskUnits="userSpaceOnUse" x="0" y="0" width="983" height="856">
<path d="M0 2.95639e-05H982.245V856H0V2.95639e-05Z" fill="white"/>
</mask>
<g mask="url(#mask12_138_336)">
<path fill-rule="evenodd" clip-rule="evenodd" d="M509.693 472.893L509.815 472.895L509.939 472.899L510.059 472.903L510.18 472.906L510.304 472.908L510.427 472.909L510.548 472.913L510.668 472.915L510.79 472.916L510.912 472.92L511.033 472.922H511.155L511.278 472.926L511.4 472.929L511.521 472.93L511.644 472.934L511.765 472.935L511.886 472.938L512.009 472.939L512.127 472.941L512.25 472.944H512.371H512.374L512.491 472.948H512.615L512.734 472.952H512.856L512.975 472.956H513.098L513.219 472.957L513.34 472.96L513.46 472.961L513.581 472.963H513.701H513.704L513.823 472.967H513.945H514.066L514.186 472.97H514.307H514.426H514.43L514.548 472.973H514.667H514.67H514.791L514.91 472.976L515.03 472.977H515.151H515.27L515.392 472.978L515.511 472.981H515.631H515.634H515.752H515.871L515.992 472.982H515.995H516.114L516.233 472.983H516.353H516.356H516.474H516.593H516.712H516.833H516.953H517.072H517.191H517.312H517.432H517.551H517.67H517.789H517.792H517.913H518.032H518.15H518.153H518.272H518.392H518.51H518.629H518.632L518.749 472.982H518.752H518.871L518.989 472.981H518.992H519.113H519.232H519.349H519.352L519.473 472.978L519.592 472.977H519.712H519.834L519.953 472.976L520.075 472.973H520.194H520.315H520.318L520.436 472.97H520.439H520.558H520.678L520.799 472.967H520.919H521.04H521.043L521.16 472.963H521.282L521.403 472.961L521.523 472.96L521.644 472.957L521.768 472.956H521.885L522.009 472.952H522.131L522.251 472.948H522.372L522.494 472.944H522.616L522.736 472.941L522.857 472.939L522.98 472.938L523.1 472.935L523.222 472.934L523.342 472.93L523.464 472.929L523.586 472.926L523.707 472.922H523.829L523.951 472.92L524.074 472.916L524.195 472.915L524.315 472.913L524.439 472.909L524.561 472.908L524.682 472.906L524.802 472.903L524.926 472.899L525.049 472.895L525.17 472.893V436.973C522.607 437.031 520.029 437.064 517.432 437.064C514.835 437.064 512.256 437.031 509.693 436.973V472.893ZM478.556 470.642C483.189 471.216 487.831 471.673 492.449 472.031V436.118C487.733 435.758 483.095 435.3 478.556 434.745V470.642ZM455.334 466.758C459.398 467.632 463.512 468.405 467.647 469.081V433.196C463.443 432.518 459.337 431.758 455.334 430.919V466.758ZM436.873 461.941C440.387 463.037 443.971 464.038 447.607 464.954V429.168C443.919 428.269 440.342 427.3 436.873 426.268V461.941ZM421.595 456.383C422.035 456.569 422.472 456.753 422.902 456.927C425.461 457.981 428.079 458.974 430.745 459.91V424.339C427.584 423.286 424.531 422.176 421.595 421.015V456.383ZM408.594 449.943C411.101 451.398 413.654 452.729 416.161 453.932V418.748C413.532 417.591 411.003 416.391 408.594 415.148V449.943ZM387.35 429.593C388.449 432.016 389.953 434.316 391.756 436.487V404.247C390.175 402.938 388.708 401.599 387.35 400.236V429.593ZM556.31 470.642C551.674 471.216 547.032 471.673 542.416 472.031V436.118C547.13 435.758 551.769 435.3 556.31 434.745V470.642ZM579.529 466.758C575.467 467.632 571.355 468.405 567.217 469.081V433.196C571.42 432.518 575.529 431.758 579.529 430.919V466.758ZM597.991 461.941C594.476 463.037 590.895 464.038 587.258 464.954V429.168C590.944 428.269 594.524 427.3 597.991 426.268V461.941ZM613.27 456.383C612.831 456.569 612.395 456.753 611.963 456.927C609.402 457.981 606.785 458.974 604.12 459.91V424.339C607.279 423.286 610.332 422.176 613.27 421.015V456.383ZM626.269 449.943C623.762 451.398 621.209 452.729 618.702 453.932V418.748C621.333 417.591 623.86 416.391 626.269 415.148V449.943ZM647.516 429.593C646.414 432.016 644.913 434.316 643.11 436.487V404.247C644.688 402.938 646.155 401.599 647.516 400.236V429.593ZM631.571 412.229V446.62C633.671 445.196 635.684 443.676 637.558 442.066V408.432C635.672 409.731 633.675 410.997 631.571 412.229ZM403.292 412.229V446.62C401.196 445.196 399.179 443.676 397.307 442.066V408.432C399.192 409.731 401.188 410.997 403.292 412.229Z" fill="#FCA80D"/>
</g>
<mask id="mask13_138_336" style="mask-type:luminance" maskUnits="userSpaceOnUse" x="0" y="0" width="983" height="856">
<path d="M0 2.95639e-05H982.245V856H0V2.95639e-05Z" fill="white"/>
</mask>
<g mask="url(#mask13_138_336)">
<path fill-rule="evenodd" clip-rule="evenodd" d="M443.332 385.236H591.534V369.058H443.332V385.236Z" fill="#F5A40E"/>
</g>
<mask id="mask14_138_336" style="mask-type:luminance" maskUnits="userSpaceOnUse" x="0" y="0" width="983" height="856">
<path d="M0 2.95639e-05H982.245V856H0V2.95639e-05Z" fill="white"/>
</mask>
<g mask="url(#mask14_138_336)">
<path fill-rule="evenodd" clip-rule="evenodd" d="M443.332 390.721H591.534V385.238H443.332V390.721Z" fill="#FFDD30"/>
</g>
<mask id="mask15_138_336" style="mask-type:luminance" maskUnits="userSpaceOnUse" x="0" y="0" width="983" height="856">
<path d="M0 2.95639e-05H982.245V856H0V2.95639e-05Z" fill="white"/>
</mask>
<g mask="url(#mask15_138_336)">
<path fill-rule="evenodd" clip-rule="evenodd" d="M446.949 327.242C478.726 327.242 507.956 331.722 531.115 339.228H583.01V383.182C583.01 414.077 522.093 439.122 446.949 439.122C371.804 439.122 310.888 414.077 310.888 383.182V339.228H362.784C385.941 331.722 415.17 327.242 446.949 327.242Z" fill="#FFCC00"/>
</g>
<mask id="mask16_138_336" style="mask-type:luminance" maskUnits="userSpaceOnUse" x="0" y="0" width="983" height="856">
<path d="M0 2.95639e-05H982.245V856H0V2.95639e-05Z" fill="white"/>
</mask>
<g mask="url(#mask16_138_336)">
<path fill-rule="evenodd" clip-rule="evenodd" d="M446.949 395.166C521.888 395.166 583.01 370.037 583.01 339.226C583.01 308.416 521.888 283.287 446.949 283.287C372.009 283.287 310.888 308.416 310.888 339.226C310.888 370.037 372.009 395.166 446.949 395.166Z" fill="#FFF07F"/>
</g>
<mask id="mask17_138_336" style="mask-type:luminance" maskUnits="userSpaceOnUse" x="0" y="0" width="983" height="856">
<path d="M0 2.95639e-05H982.245V856H0V2.95639e-05Z" fill="white"/>
</mask>
<g mask="url(#mask17_138_336)">
<path fill-rule="evenodd" clip-rule="evenodd" d="M446.949 388.938C513.545 388.938 567.862 366.607 567.862 339.227C567.862 311.847 513.545 289.515 446.949 289.515C380.353 289.515 326.034 311.847 326.034 339.227C326.034 366.607 380.353 388.938 446.949 388.938Z" fill="#FFDD30"/>
</g>
<mask id="mask18_138_336" style="mask-type:luminance" maskUnits="userSpaceOnUse" x="0" y="0" width="983" height="856">
<path d="M0 2.95639e-05H982.245V856H0V2.95639e-05Z" fill="white"/>
</mask>
<g mask="url(#mask18_138_336)">
<path fill-rule="evenodd" clip-rule="evenodd" d="M567.417 343.477C562.171 368.943 510.244 388.94 446.949 388.94C383.654 388.94 331.726 368.943 326.481 343.477C331.726 318.011 383.654 298.016 446.949 298.016C510.244 298.016 562.171 318.011 567.417 343.477Z" fill="#FFBB00"/>
</g>
<mask id="mask19_138_336" style="mask-type:luminance" maskUnits="userSpaceOnUse" x="0" y="0" width="983" height="856">
<path d="M0 2.95639e-05H982.245V856H0V2.95639e-05Z" fill="white"/>
</mask>
<g mask="url(#mask19_138_336)">
<path fill-rule="evenodd" clip-rule="evenodd" d="M439.211 435.601L439.334 435.603L439.456 435.605L439.576 435.608L439.7 435.612L439.822 435.616L439.942 435.617L440.064 435.619L440.186 435.623L440.31 435.624L440.429 435.627L440.551 435.629L440.674 435.63L440.795 435.633L440.916 435.636L441.039 435.638L441.158 435.64L441.28 435.643H441.404L441.523 435.647H441.645L441.765 435.651H441.768L441.887 435.652L442.009 435.655L442.128 435.656L442.25 435.658L442.373 435.66L442.493 435.662H442.617L442.736 435.665H442.858L442.977 435.667L443.1 435.669L443.218 435.671H443.221L443.341 435.673H443.46L443.584 435.675L443.702 435.676H443.704H443.824L443.944 435.678H444.065H444.185L444.306 435.681L444.426 435.682H444.547H444.669L444.788 435.685L444.908 435.686H445.029H445.148H445.269H445.272L445.389 435.688H445.51L445.629 435.69H445.632H445.751H445.87H445.99H446.111H446.23H446.348H446.351H446.47L446.59 435.691H446.709H446.828H446.83H446.949H447.068H447.188H447.308L447.428 435.69H447.43H447.547H447.668H447.787H447.906H447.909H448.028H448.147H448.266L448.387 435.688H448.389H448.509L448.629 435.686H448.75H448.869H448.989L449.11 435.685L449.229 435.682H449.349H449.352H449.471L449.592 435.681L449.713 435.678H449.832H449.954L450.073 435.676H450.196L450.314 435.675H450.317L450.437 435.673H450.556L450.68 435.671L450.797 435.669H450.8L450.921 435.667L451.04 435.665H451.162L451.283 435.662H451.405L451.525 435.66L451.646 435.658L451.769 435.656L451.888 435.655L452.01 435.652L452.131 435.651L452.253 435.647H452.375L452.494 435.643H452.618L452.738 435.64L452.859 435.638L452.982 435.636L453.104 435.633L453.223 435.63L453.347 435.629L453.469 435.627L453.591 435.624L453.711 435.623L453.834 435.619L453.957 435.617L454.078 435.616L454.198 435.612L454.322 435.608L454.444 435.605L454.566 435.603L454.686 435.601V399.678C452.125 399.737 449.544 399.769 446.949 399.769C444.353 399.769 441.773 399.737 439.211 399.678V435.601ZM408.071 433.35C412.707 433.921 417.351 434.381 421.967 434.737V398.826C417.251 398.466 412.613 398.005 408.071 397.449V433.35ZM384.852 429.466C388.916 430.339 393.025 431.111 397.164 431.788V395.903C392.96 395.225 388.852 394.465 384.852 393.624V429.466ZM366.39 424.646C369.905 425.742 373.486 426.746 377.12 427.661V391.875C373.437 390.976 369.858 390.008 366.39 388.976V424.646ZM351.113 419.09C351.551 419.277 351.987 419.459 352.42 419.635C354.98 420.688 357.596 421.68 360.261 422.619V387.046C357.102 385.993 354.049 384.884 351.113 383.722V419.09ZM338.112 412.649C340.619 414.103 343.172 415.435 345.679 416.638V381.455C343.05 380.299 340.521 379.098 338.112 377.853V412.649ZM316.867 392.301C317.967 394.723 319.468 397.021 321.274 399.193V366.955C319.692 365.645 318.226 364.306 316.867 362.943V392.301ZM485.826 433.35C481.191 433.921 476.547 434.381 471.931 434.737V398.826C476.648 398.466 481.284 398.005 485.826 397.449V433.35ZM509.046 429.466C504.983 430.339 500.873 431.111 496.734 431.788V395.903C500.938 395.225 505.046 394.465 509.046 393.624V429.466ZM527.508 424.646C523.994 425.742 520.41 426.746 516.778 427.661V391.875C520.459 390.976 524.04 390.008 527.508 388.976V424.646ZM542.785 419.09C542.346 419.277 541.91 419.459 541.478 419.635C538.92 420.688 536.302 421.68 533.636 422.619V387.046C536.796 385.993 539.85 384.884 542.785 383.722V419.09ZM555.788 412.649C553.278 414.103 550.727 415.435 548.218 416.638V381.455C550.848 380.299 553.375 379.098 555.788 377.853V412.649ZM577.031 392.301C575.931 394.723 574.429 397.021 572.626 399.193V366.955C574.206 365.645 575.675 364.306 577.031 362.943V392.301ZM561.089 374.935V409.325C563.186 407.9 565.202 406.382 567.076 404.774V371.137C565.19 372.438 563.193 373.704 561.089 374.935ZM332.811 374.935V409.325C330.714 407.9 328.697 406.382 326.823 404.774V371.137C328.71 372.438 330.705 373.704 332.811 374.935Z" fill="#FFBB00"/>
</g>
<mask id="mask20_138_336" style="mask-type:luminance" maskUnits="userSpaceOnUse" x="0" y="0" width="983" height="856">
<path d="M0 2.95639e-05H982.245V856H0V2.95639e-05Z" fill="white"/>
</mask>
<g mask="url(#mask20_138_336)">
<path fill-rule="evenodd" clip-rule="evenodd" d="M372.847 347.943H521.05V331.765H372.847V347.943Z" fill="#FFF07F"/>
</g>
<mask id="mask21_138_336" style="mask-type:luminance" maskUnits="userSpaceOnUse" x="0" y="0" width="983" height="856">
<path d="M0 2.95639e-05H982.245V856H0V2.95639e-05Z" fill="white"/>
</mask>
<g mask="url(#mask21_138_336)">
<path fill-rule="evenodd" clip-rule="evenodd" d="M372.847 353.428H521.05V347.945H372.847V353.428Z" fill="#FFDD30"/>
</g>
<mask id="mask22_138_336" style="mask-type:luminance" maskUnits="userSpaceOnUse" x="0" y="0" width="983" height="856">
<path d="M0 2.95639e-05H982.245V856H0V2.95639e-05Z" fill="white"/>
</mask>
<g mask="url(#mask22_138_336)">
<path fill-rule="evenodd" clip-rule="evenodd" d="M523.8 281.327C555.575 281.327 584.806 285.806 607.966 293.313H659.858V337.267C659.858 368.161 598.943 393.207 523.8 393.207C448.655 393.207 387.738 368.161 387.738 337.267V293.313H439.633C462.79 285.806 492.02 281.327 523.8 281.327Z" fill="#F5A40E"/>
</g>
<mask id="mask23_138_336" style="mask-type:luminance" maskUnits="userSpaceOnUse" x="0" y="0" width="983" height="856">
<path d="M0 2.95639e-05H982.245V856H0V2.95639e-05Z" fill="white"/>
</mask>
<g mask="url(#mask23_138_336)">
<path fill-rule="evenodd" clip-rule="evenodd" d="M523.8 349.251C598.738 349.251 659.858 324.121 659.858 293.311C659.858 262.501 598.738 237.372 523.8 237.372C448.86 237.372 387.738 262.501 387.738 293.311C387.738 324.121 448.86 349.251 523.8 349.251Z" fill="#FFDD30"/>
</g>
<mask id="mask24_138_336" style="mask-type:luminance" maskUnits="userSpaceOnUse" x="0" y="0" width="983" height="856">
<path d="M0 2.95639e-05H982.245V856H0V2.95639e-05Z" fill="white"/>
</mask>
<g mask="url(#mask24_138_336)">
<path fill-rule="evenodd" clip-rule="evenodd" d="M523.8 343.023C590.395 343.023 644.711 320.692 644.711 293.312C644.711 265.932 590.395 243.599 523.8 243.599C457.202 243.599 402.885 265.932 402.885 293.312C402.885 320.692 457.202 343.023 523.8 343.023Z" fill="#FFCC00"/>
</g>
<mask id="mask25_138_336" style="mask-type:luminance" maskUnits="userSpaceOnUse" x="0" y="0" width="983" height="856">
<path d="M0 2.95639e-05H982.245V856H0V2.95639e-05Z" fill="white"/>
</mask>
<g mask="url(#mask25_138_336)">
<path fill-rule="evenodd" clip-rule="evenodd" d="M644.268 297.562C639.022 323.027 587.092 343.023 523.8 343.023C460.503 343.023 408.575 323.027 403.329 297.562C408.575 272.096 460.503 252.099 523.8 252.099C587.092 252.099 639.022 272.096 644.268 297.562Z" fill="#FFBB00"/>
</g>
<mask id="mask26_138_336" style="mask-type:luminance" maskUnits="userSpaceOnUse" x="0" y="0" width="983" height="856">
<path d="M0 2.95639e-05H982.245V856H0V2.95639e-05Z" fill="white"/>
</mask>
<g mask="url(#mask26_138_336)">
<path fill-rule="evenodd" clip-rule="evenodd" d="M516.061 389.685L516.183 389.687L516.306 389.69L516.427 389.694L516.547 389.695L516.671 389.699L516.793 389.702L516.913 389.704L517.035 389.706L517.157 389.709L517.278 389.712H517.281L517.398 389.713L517.522 389.716L517.646 389.718L517.766 389.72L517.888 389.722L518.012 389.725L518.132 389.728L518.253 389.729L518.373 389.731L518.494 389.733L518.617 389.735L518.738 389.737L518.858 389.738L518.982 389.741L519.1 389.742L519.223 389.744L519.342 389.746L519.464 389.747L519.583 389.748H519.585L519.707 389.751L519.827 389.752L519.948 389.754L520.068 389.755L520.189 389.756L520.31 389.757L520.433 389.759L520.554 389.76L520.674 389.761L520.793 389.763L520.915 389.764H521.034L521.158 389.765L521.275 389.766L521.396 389.768H521.399L521.518 389.769H521.636H521.639L521.759 389.77H521.878H521.996H521.999L522.119 389.772L522.238 389.773H522.359L522.479 389.774H522.6H522.72H522.841L522.96 389.776H523.079H523.2H523.32L523.439 389.777H523.557H523.56H523.679H523.799H523.919H524.036H524.039H524.155L524.279 389.776H524.398H524.517H524.52H524.637H524.64L524.756 389.774H524.877H524.996H525.117H525.12L525.237 389.773H525.356L525.48 389.772L525.597 389.77H525.716H525.84L525.957 389.769H525.96H526.079L526.2 389.768L526.319 389.766H526.322L526.443 389.765L526.562 389.764H526.682L526.803 389.763L526.923 389.761H526.926L527.044 389.76L527.166 389.759L527.286 389.757L527.407 389.756L527.528 389.755L527.648 389.754H527.651L527.769 389.752L527.891 389.751L528.011 389.748L528.133 389.747L528.252 389.746L528.376 389.744L528.493 389.742L528.618 389.741L528.739 389.738L528.859 389.737L528.983 389.735L529.104 389.733L529.224 389.731L529.345 389.729L529.465 389.728L529.589 389.725L529.709 389.722L529.83 389.72L529.953 389.718L530.074 389.716L530.194 389.713L530.318 389.712L530.44 389.709L530.562 389.706L530.683 389.704L530.805 389.702L530.928 389.699L531.049 389.695L531.169 389.694L531.293 389.69L531.415 389.687L531.537 389.685V353.764C528.974 353.822 526.395 353.855 523.799 353.855C521.202 353.855 518.623 353.822 516.061 353.764V389.685ZM484.922 387.435C489.556 388.005 494.198 388.467 498.815 388.822V352.912C494.1 352.551 489.461 352.091 484.922 351.536V387.435ZM461.701 383.55C465.765 384.423 469.879 385.197 474.012 385.873V349.988C469.81 349.31 465.703 348.549 461.701 347.71V383.55ZM443.239 378.732C446.754 379.827 450.335 380.829 453.971 381.746V345.96C450.286 345.06 446.71 344.092 443.239 343.06V378.732ZM427.961 373.174C428.401 373.361 428.839 373.543 429.269 373.72C431.829 374.772 434.446 375.766 437.11 376.702V341.131C433.951 340.078 430.898 338.969 427.961 337.807V373.174ZM414.961 366.734C417.469 368.188 420.021 369.519 422.529 370.723V335.54C419.897 334.383 417.37 333.182 414.961 331.94V366.734ZM393.718 346.385C394.816 348.807 396.319 351.105 398.121 353.279V321.039C396.542 319.728 395.075 318.39 393.718 317.027V346.385ZM562.675 387.435C558.041 388.005 553.399 388.467 548.781 388.822V352.912C553.496 352.551 558.133 352.091 562.675 351.536V387.435ZM585.897 383.55C581.832 384.423 577.722 385.197 573.583 385.873V349.988C577.787 349.31 581.895 348.549 585.897 347.71V383.55ZM604.355 378.732C600.843 379.827 597.261 380.829 593.625 381.746V345.96C597.309 345.06 600.889 344.092 604.355 343.06V378.732ZM619.637 373.174C619.196 373.361 618.762 373.543 618.329 373.72C615.769 374.772 613.152 375.766 610.484 376.702V341.131C613.645 340.078 616.697 338.969 619.637 337.807V373.174ZM632.635 366.734C630.127 368.188 627.577 369.519 625.069 370.723V335.54C627.699 334.383 630.227 333.182 632.635 331.94V366.734ZM653.88 346.385C652.78 348.807 651.278 351.105 649.475 353.279V321.039C651.054 319.728 652.523 318.39 653.88 317.027V346.385ZM637.938 329.02V363.411C640.036 361.985 642.05 360.467 643.925 358.858V325.221C642.038 326.522 640.042 327.788 637.938 329.02ZM409.66 329.02V363.411C407.561 361.985 405.546 360.467 403.674 358.858V325.221C405.558 326.522 407.555 327.788 409.66 329.02Z" fill="#E39400"/>
</g>
<mask id="mask27_138_336" style="mask-type:luminance" maskUnits="userSpaceOnUse" x="0" y="0" width="983" height="856">
<path d="M0 2.95639e-05H982.245V856H0V2.95639e-05Z" fill="white"/>
</mask>
<g mask="url(#mask27_138_336)">
<path fill-rule="evenodd" clip-rule="evenodd" d="M449.697 302.028H597.9V285.851H449.697V302.028Z" fill="#FFDD30"/>
</g>
<mask id="mask28_138_336" style="mask-type:luminance" maskUnits="userSpaceOnUse" x="0" y="0" width="983" height="856">
<path d="M0 2.95639e-05H982.245V856H0V2.95639e-05Z" fill="white"/>
</mask>
<g mask="url(#mask28_138_336)">
<path fill-rule="evenodd" clip-rule="evenodd" d="M449.697 307.513H597.9V302.028H449.697V307.513Z" fill="#FFCC00"/>
</g>
<mask id="mask29_138_336" style="mask-type:luminance" maskUnits="userSpaceOnUse" x="0" y="0" width="983" height="856">
<path d="M0 2.95639e-05H982.245V856H0V2.95639e-05Z" fill="white"/>
</mask>
<g mask="url(#mask29_138_336)">
<path fill-rule="evenodd" clip-rule="evenodd" d="M167.338 485.293L232.025 516.982L307.54 513.692L233.912 509.303L174.769 475.436L167.338 485.293ZM328.652 590.615L414.209 564.42L330.827 580.326L246.694 577.602L328.652 590.615ZM982.035 405.648L552.046 618.882L353.198 659.701C332.744 663.899 314.334 664.154 293.738 660.527L227.71 648.901C213.639 646.424 201.983 642.754 189.342 636.827L127.389 607.779L230.352 633.309L332.632 638.356L507.977 586.811L649.232 477.098L635.997 446.007L589.502 435.464C558.512 428.435 531.063 425.743 499.055 426.589C473.295 427.271 449.872 424.653 424.176 418.331L419.059 417.07C407.221 414.157 399.478 404.81 400.027 394.102C400.578 383.396 409.25 374.689 421.336 372.709L442.526 369.239C464.11 365.705 482.96 364.685 504.88 365.874L512.671 366.296C541.646 367.866 566.576 366.405 595.046 361.473L695.875 344.004C732.487 337.661 765.428 339.09 801.137 348.567L861.297 364.534L982.035 304.861V405.648Z" fill="#E66220"/>
</g>
</svg>
